{
.appVersion = "3257";
.formatVersion = 3;
DisplayStrings = (
"Semana:/CR 001020304050607080900/CR Espacejamento e Kerning - Numerais Oldstyle (Romana)/CR/CR *nnnonooo0000 /CR *010020030030405006007080090     /CR *112131415161718191    22324252627228292   /CR *33435363738393     445464748494/CR *5565758595   66768696     778797     8898     99/CR/CR *0'0'1'1'2'2'3'3'4'4'5'5'6'6'7'7'8'8'9'9'/CR/CR *31' 32' 33' 34' 35' 36' 37' 38' 39' 30'/CR/CR *31° 32°  33° 34° 35° 36° 37° 38° 39° 30°/CR/CR *$12 $22 $32 $42 $52 $62 $72 $82 $92 $02/CR/CR *1¢ 2¢ 3¢ 4¢ 5¢ 6¢ 7¢ 8¢ 9¢ 0¢ /CR/CR *£12 £22 £32 £42 £52 £62 £72 £82 £92 £02/CR/CR *¥12 ¥22 ¥32 ¥42 ¥52 ¥62 ¥72 ¥82 ¥92 ¥02/CR/CR *€12 €22 €32 €42 €52 €62 €72 €82 €92 €02/CR/CR *21% 22% 23% 24% 205% 26% 27% 28% 29% 20%/CR/CR *·0·1·2·3·4·5·6·7·8·9·    .1.2.3.4.5.6.7.8.9.0.    /CR/CR -1-2-3-4-5-6-7-8-9-0-//1//2//3//4//5//6//7//8//9//0//     /CR/CR */backslash/backslash 1/backslash/backslash 2/backslash/backslash 3/backslash/backslash 4/backslash/backslash 5/backslash/backslash 6/backslash/backslash 7/backslash/backslash 8/backslash/backslash 9/backslash/backslash 0/backslash/backslash/CR/CR",
"Lowercase to Lowercase   

aabacadaeafagahaiajakalamanaoapaqarasatauavawaxaya
za
aﬁaﬂaßaæaœaðaþała 
bbcbdbebfbgbhbibjbkblbmbnbobpbqbrbsbtbubvbwbpxecovbybzb
bﬁbﬂbßbæbœbðbþbłb 
cxdqecdcecfcgchcicjckclcmcnccconcpcqcrcsctcucvcwcxcy
czcnozqecovo
cﬁcﬂcßcæcœcðcþcłc 
ddedofceodogodhdidjdkoxdldmdndodpdqdrdsdtdudvdwdxdydzd
dﬁdﬂdßdædœdðdþdłd 
eefegeheiejekelemeneoepeqereseteuevewexeyeze
eﬁeﬂeßeæeœeðeþełe 
ffgfhfifjfkflfmfnfofpfqfrfsftfufvfwfxfyfzfﬁfﬂfßfæfœfłf 
gghgigjgkglgmgngognpgqgnrggsgtgugvgwgxgygzg
gﬁgﬂgßgægœgłg 
hhihjhkhlhmhnhohphqhrhshthuhvhwhxhyhzhﬁhﬂhßhæhœhłh 
ijikiliminioipiqirisitiuiviwixiyiziﬁiﬂißiæiœiłi 
jjkjljmjnjojpjqjrjsjtjujvjwjxjyjzjﬁjﬂjßjæjœjłj 
kklkmknkokpkqkrksktkukvkwkkxkviykzkﬁkﬂkßkaækœkłk 
llmlnlolplqlrlsltlulvlwlxlylzlﬁlﬂlßlælœlłl 
mmnmompmqmvrmsmtmumvmwmxmymzmﬁmﬂmßmæmœmłm 
nnonpnqnrnsntnunvnwnxnynznﬁnﬂnßnænœnłn 

glyphs = (
{
glyphname = A;
kernLeft = _A;
kernRight = _A;
lastChange = "2024-05-28 22:06:43 +0000";
layers = (
{
anchors = (
{
name = top;
pos = (605,1456);
}
);
layerId = "4EE6A762-B31F-492D-BAD7-A15389DCB08F";
shapes = (
{
closed = 1;
nodes = (
(896,0,l,{
name = ._.105553285812688;
}),
(1210,0,l),
(770,1456,l,{
name = ._.105553285812608;
}),
(440,1456,l),
(0,0,l),
(314,0,l),
(394,298,l,{
name = ._.105553285812288;
}),
(815,298,l)
);
},
{
closed = 1;
nodes = (
(580,1016,l),
(601,1122,l),
(607,1122,l),
(628,1015,l),
(749,542,l),
(460,542,l,{
name = ._.105553285811648;
})
);
}
);
width = 1210;
},
{
anchors = (
{
name = top;
pos = (610,1456);
}
);
layerId = "7B7CA763-6202-4B35-9FCB-B97398BB2D53";
shapes = (
{
closed = 1;
nodes = (
(980,0,l),
(1198,0,l),
(707,1456,l),
(515,1456,l),
(20,0,l),
(239,0,l),
(351,364,l),
(867,364,l)
);
},
{
closed = 1;
nodes = (
(579,1102,l),
(607,1222,l),
(613,1222,l),
(641,1102,l),
(821,523,l),
(398,523,l)
);
}
);
width = 1218;
},
{
anchors = (
{
name = top;
pos = (610,1456);
}
);
layerId = "80A40485-F9FE-43F8-8BB8-E239AA3B9F7E";
shapes = (
{
closed = 1;
nodes = (
(1019,0,l,{
name = ._.105553285810448;
}),
(1191,0,l),
(683,1456,l,{
name = ._.105553285810208;
}),
(541,1456,l),
(28,0,l),
(200,0,l),
(330,389,l,{
name = ._.105553285809888;
}),
(889,389,l)
);
},
{
closed = 1;
nodes = (
(577,1134,l),
(608,1259,l),
(614,1259,l),
(645,1134,l),
(848,516,l),
(373,516,l,{
name = ._.105553285809568;
})
);
}
);
width = 1219;
},
{
anchors = (
{
name = top;
pos = (604,1456);
}
);
guides = (
{
pos = (0,451);
}
);
layerId = "557D07FA-4833-462F-859E-332980C518A5";
shapes = (
{
closed = 1;
nodes = (
(1065,0,l,{
name = ._.105553285808848;
}),
(1161,0,l),
(635,1456,l,{
name = ._.105553285808608;
}),
(572,1456,l),
(47,0,l),
(143,0,l),
(295,426,l),
(913,426,l)
);
},
{
closed = 1;
nodes = (
(557,1177,l),
(600,1326,l),
(606,1326,l),
(649,1175,l),
(889,495,l),
(318,495,l)
);
}
);
width = 1208;
}
);
unicode = 65;
},
{
glyphname = Aacute;
kernLeft = _A;
kernRight = _A;
lastChange = "2024-05-25 11:48:25 +0000";
layers = (
{
associatedMasterId = "557D07FA-4833-462F-859E-332980C518A5";
layerId = "8B9C2315-63B1-430F-AFCA-A7E2B0E3FB05";
name = img;
width = 1208;
},
{
guides = (
{
pos = (0,1879);
}
);
layerId = "4EE6A762-B31F-492D-BAD7-A15389DCB08F";
shapes = (
{
closed = 1;
nodes = (
(896,0,l,{
name = ._.105553419567984;
}),
(1210,0,l),
(770,1456,l,{
name = ._.105553419568224;
}),
(440,1456,l),
(0,0,l),
(314,0,l),
(394,298,l,{
name = ._.105553419568544;
}),
(815,298,l)
);
},
{
closed = 1;
nodes = (
(580,1016,l),
(601,1122,l),
(607,1122,l),
(628,1015,l),
(749,542,l),
(460,542,l,{
name = ._.105553419569024;
})
);
},
{
closed = 1;
nodes = (
(671,1880,l,{
name = ._.105553419569184;
}),
(402,1585,l),
(668,1585,l),
(1097,1880,l)
);
}
);
width = 1210;
},
{
layerId = "7B7CA763-6202-4B35-9FCB-B97398BB2D53";
shapes = (
{
closed = 1;
nodes = (
(980,0,l),
(1198,0,l),
(707,1456,l),
(515,1456,l),
(20,0,l),
(239,0,l),
(351,364,l),
(867,364,l)
);
},
{
closed = 1;
nodes = (
(579,1102,l),
(607,1222,l),
(613,1222,l),
(641,1102,l),
(821,523,l),
(398,523,l)
);
},
{
closed = 1;
nodes = (
(758,1879,l),
(449,1585,l),
(625,1585,l),
(1066,1879,l)
);
}
);
width = 1218;
},
{
layerId = "80A40485-F9FE-43F8-8BB8-E239AA3B9F7E";
shapes = (
{
closed = 1;
nodes = (
(1018,0,l,{
name = ._.105553419570944;
}),
(1190,0,l),
(682,1456,l,{
name = ._.105553419571184;
}),
(540,1456,l),
(27,0,l),
(199,0,l),
(329,389,l,{
name = ._.105553419571504;
}),
(888,389,l)
);
},
{
closed = 1;
nodes = (
(576,1134,l),
(607,1249,l),
(613,1249,l),
(644,1134,l),
(847,516,l),
(372,516,l,{
name = ._.105553419571984;
})
);
},
{
closed = 1;
nodes = (
(790,1879,l,{
name = ._.105553419572144;
}),
(466,1585,l),
(609,1585,l),
(1054,1879,l)
);
}
);
width = 1217;
},
{
guides = (
{
pos = (0,451);
},
{
pos = (0,1878);
}
);
layerId = "557D07FA-4833-462F-859E-332980C518A5";
shapes = (
{
closed = 1;
nodes = (
(1065,0,l,{
name = ._.105553419573744;
}),
(1161,0,l),
(635,1456,l,{
name = ._.105553419573984;
}),
(572,1456,l),
(47,0,l),
(143,0,l),
(295,426,l),
(913,426,l)
);
},
{
closed = 1;
nodes = (
(557,1177,l),
(600,1326,l),
(606,1326,l),
(649,1175,l),
(889,495,l),
(318,495,l)
);
},
{
closed = 1;
nodes = (
(862,1878,l,{
name = ._.105553419573264;
}),
(492,1585,l),
(573,1585,l),
(1021,1878,l)
);
}
);
width = 1208;
}
);
unicode = 193;
},
{
glyphname = Acircumflex;
kernLeft = _A;
kernRight = _A;
lastChange = "2024-05-25 11:48:25 +0000";
layers = (
{
associatedMasterId = "557D07FA-4833-462F-859E-332980C518A5";
layerId = "8B9C2315-63B1-430F-AFCA-A7E2B0E3FB05";
name = img;
width = 1208;
},
{
guides = (
{
pos = (0,1585);
}
);
layerId = "4EE6A762-B31F-492D-BAD7-A15389DCB08F";
shapes = (
{
closed = 1;
nodes = (
(1048,1585,l),
(795,1585,l),
(604,1691,l),
(415,1585,l),
(162,1585,l),
(481,1879,l,{
name = ._.105553419576944;
}),
(729,1879,l)
);
},
{
closed = 1;
nodes = (
(815,298,l,{
name = ._.105553419574944;
}),
(394,298,l),
(314,0,l,{
name = ._.105553419575184;
}),
(0,0,l),
(440,1456,l,{
name = ._.105553419575344;
}),
(770,1456,l),
(1210,0,l),
(896,0,l)
);
},
{
closed = 1;
nodes = (
(580,1016,l),
(460,542,l),
(749,542,l,{
name = ._.105553419575744;
}),
(628,1015,l),
(607,1122,l),
(601,1122,l)
);
}
);
width = 1210;
},
{
guides = (
{
angle = 90;
pos = (610,0);
}
);
layerId = "7B7CA763-6202-4B35-9FCB-B97398BB2D53";
shapes = (
{
closed = 1;
nodes = (
(997,1585,l),
(833,1585,l),
(609,1736,l),
(387,1585,l),
(224,1585,l),
(525,1878,l),
(694,1878,l)
);
},
{
closed = 1;
nodes = (
(867,364,l),
(351,364,l),
(239,0,l),
(20,0,l),
(515,1456,l),
(707,1456,l),
(1198,0,l),
(980,0,l)
);
},
{
closed = 1;
nodes = (
(579,1102,l),
(398,523,l),
(821,523,l),
(641,1102,l),
(613,1222,l),
(607,1222,l)
);
}
);
width = 1218;
},
{
layerId = "80A40485-F9FE-43F8-8BB8-E239AA3B9F7E";
shapes = (
{
closed = 1;
nodes = (
(973,1585,l),
(842,1585,l),
(606,1752,l),
(371,1585,l),
(242,1585,l),
(536,1878,l,{
name = ._.105553419580304;
}),
(676,1878,l)
);
},
{
closed = 1;
nodes = (
(888,389,l,{
name = ._.105553419578304;
}),
(329,389,l),
(199,0,l,{
name = ._.105553419578544;
}),
(27,0,l),
(540,1456,l,{
name = ._.105553419578704;
}),
(682,1456,l),
(1190,0,l),
(1018,0,l)
);
},
{
closed = 1;
nodes = (
(576,1134,l),
(372,516,l),
(847,516,l,{
name = ._.105553419579104;
}),
(644,1134,l),
(613,1249,l),
(607,1249,l)
);
}
);
width = 1217;
},
{
guides = (
{
pos = (0,451);
}
);
layerId = "557D07FA-4833-462F-859E-332980C518A5";
shapes = (
{
closed = 1;
nodes = (
(927,1587,l),
(860,1587,l),
(603,1790,l),
(346,1587,l),
(279,1587,l),
(574,1879,l,{
name = ._.105553419582144;
}),
(631,1879,l)
);
},
{
closed = 1;
nodes = (
(913,426,l),
(295,426,l),
(143,0,l,{
name = ._.105553419580944;
}),
(47,0,l),
(572,1456,l,{
name = ._.105553419581104;
}),
(635,1456,l),
(1161,0,l),
(1065,0,l)
);
},
{
closed = 1;
nodes = (
(557,1177,l),
(318,495,l),
(889,495,l),
(649,1175,l),
(606,1326,l),
(600,1326,l)
);
}
);
width = 1208;
}
);
unicode = 194;
},
{
glyphname = Adieresis;
kernLeft = _A;
kernRight = _A;
lastChange = "2024-05-25 11:48:25 +0000";
layers = (
{
associatedMasterId = "557D07FA-4833-462F-859E-332980C518A5";
layerId = "8B9C2315-63B1-430F-AFCA-A7E2B0E3FB05";
name = img;
width = 1208;
},
{
layerId = "4EE6A762-B31F-492D-BAD7-A15389DCB08F";
shapes = (
{
closed = 1;
nodes = (
(815,298,l,{
name = ._.105553419626896;
}),
(896,0,l,{
name = ._.105553419627056;
}),
(1210,0,l),
(770,1456,l,{
name = ._.105553419627216;
}),
(440,1456,l),
(0,0,l),
(314,0,l),
(394,298,l)
);
},
{
closed = 1;
nodes = (
(580,1016,l),
(601,1122,l),
(607,1122,l),
(628,1015,l),
(749,542,l,{
name = ._.105553419627856;
}),
(460,542,l)
);
},
{
closed = 1;
nodes = (
(511,1823,l),
(240,1823,l),
(240,1596,l),
(511,1596,l)
);
},
{
closed = 1;
nodes = (
(961,1823,l),
(691,1823,l),
(691,1596,l),
(961,1596,l)
);
}
);
width = 1210;
},
{
layerId = "7B7CA763-6202-4B35-9FCB-B97398BB2D53";
shapes = (
{
closed = 1;
nodes = (
(867,364,l),
(980,0,l),
(1198,0,l),
(707,1456,l),
(515,1456,l),
(20,0,l),
(239,0,l),
(351,364,l)
);
},
{
closed = 1;
nodes = (
(579,1102,l),
(607,1222,l),
(613,1222,l),
(641,1102,l),
(821,523,l),
(398,523,l)
);
},
{
closed = 1;
nodes = (
(498,1819,l),
(307,1819,l),
(307,1637,l),
(498,1637,l)
);
},
{
closed = 1;
nodes = (
(909,1819,l),
(719,1819,l),
(719,1637,l),
(909,1637,l)
);
}
);
width = 1218;
},
{
layerId = "80A40485-F9FE-43F8-8BB8-E239AA3B9F7E";
shapes = (
{
closed = 1;
nodes = (
(888,389,l,{
name = ._.105553419630816;
}),
(1018,0,l,{
name = ._.105553419630976;
}),
(1190,0,l),
(682,1456,l,{
name = ._.105553419631136;
}),
(540,1456,l),
(27,0,l),
(199,0,l),
(329,389,l)
);
},
{
closed = 1;
nodes = (
(576,1134,l),
(607,1249,l),
(613,1249,l),
(644,1134,l),
(847,516,l,{
name = ._.105553419631776;
}),
(372,516,l)
);
},
{
closed = 1;
nodes = (
(491,1817,l),
(329,1817,l),
(329,1652,l),
(491,1652,l)
);
},
{
closed = 1;
nodes = (
(887,1817,l),
(727,1817,l),
(727,1652,l),
(887,1652,l)
);
}
);
width = 1217;
},
{
guides = (
{
pos = (0,1736);
},
{
pos = (0,451);
}
);
layerId = "557D07FA-4833-462F-859E-332980C518A5";
shapes = (
{
closed = 1;
nodes = (
(913,426,l),
(1065,0,l,{
name = ._.105553419600992;
}),
(1161,0,l),
(635,1456,l,{
name = ._.105553419601152;
}),
(572,1456,l),
(47,0,l),
(143,0,l),
(295,426,l)
);
},
{
closed = 1;
nodes = (
(557,1177,l),
(600,1326,l),
(606,1326,l),
(649,1175,l),
(889,495,l),
(318,495,l)
);
},
{
closed = 1;
nodes = (
(485,1792,l),
(393,1792,l),
(393,1682,l),
(485,1682,l)
);
},
{
closed = 1;
nodes = (
(813,1792,l),
(721,1792,l),
(721,1682,l),
(813,1682,l)
);
}
);
width = 1208;
}
);
unicode = 196;
},
{
glyphname = Agrave;
kernLeft = _A;
kernRight = _A;
lastChange = "2024-05-25 11:48:25 +0000";
layers = (
{
associatedMasterId = "557D07FA-4833-462F-859E-332980C518A5";
layerId = "8B9C2315-63B1-430F-AFCA-A7E2B0E3FB05";
name = img;
width = 1208;
},
{
layerId = "4EE6A762-B31F-492D-BAD7-A15389DCB08F";
shapes = (
{
closed = 1;
nodes = (
(538,1880,l,{
name = ._.105553419595008;
}),
(112,1880,l),
(541,1585,l),
(807,1585,l)
);
},
{
closed = 1;
nodes = (
(815,298,l,{
name = ._.105553419593808;
}),
(896,0,l,{
name = ._.105553419593968;
}),
(1210,0,l),
(770,1456,l,{
name = ._.105553419594128;
}),
(440,1456,l),
(0,0,l),
(314,0,l),
(394,298,l)
);
},
{
closed = 1;
nodes = (
(580,1016,l),
(601,1122,l),
(607,1122,l),
(628,1015,l),
(749,542,l,{
name = ._.105553419594768;
}),
(460,542,l)
);
}
);
width = 1210;
},
{
layerId = "7B7CA763-6202-4B35-9FCB-B97398BB2D53";
shapes = (
{
closed = 1;
nodes = (
(458,1879,l),
(151,1879,l),
(591,1585,l),
(767,1585,l)
);
},
{
closed = 1;
nodes = (
(867,364,l),
(980,0,l),
(1198,0,l),
(707,1456,l),
(515,1456,l),
(20,0,l),
(239,0,l),
(351,364,l)
);
},
{
closed = 1;
nodes = (
(579,1102,l),
(607,1222,l),
(613,1222,l),
(641,1102,l),
(821,523,l),
(398,523,l)
);
}
);
width = 1218;
},
{
layerId = "80A40485-F9FE-43F8-8BB8-E239AA3B9F7E";
shapes = (
{
closed = 1;
nodes = (
(429,1879,l,{
name = ._.105553419597968;
}),
(165,1879,l),
(609,1585,l),
(752,1585,l)
);
},
{
closed = 1;
nodes = (
(888,389,l,{
name = ._.105553419596768;
}),
(1018,0,l,{
name = ._.105553419596928;
}),
(1190,0,l),
(682,1456,l,{
name = ._.105553419597088;
}),
(540,1456,l),
(27,0,l),
(199,0,l),
(329,389,l)
);
},
{
closed = 1;
nodes = (
(576,1134,l),
(607,1249,l),
(613,1249,l),
(644,1134,l),
(847,516,l,{
name = ._.105553419597728;
}),
(372,516,l)
);
}
);
width = 1217;
},
{
guides = (
{
pos = (0,451);
}
);
layerId = "557D07FA-4833-462F-859E-332980C518A5";
shapes = (
{
closed = 1;
nodes = (
(354,1878,l,{
name = ._.105553419598928;
}),
(195,1878,l),
(643,1585,l),
(724,1585,l)
);
},
{
closed = 1;
nodes = (
(913,426,l),
(1065,0,l,{
name = ._.105553419599568;
}),
(1161,0,l),
(635,1456,l,{
name = ._.105553419599728;
}),
(572,1456,l),
(47,0,l),
(143,0,l),
(295,426,l)
);
},
{
closed = 1;
nodes = (
(557,1177,l),
(600,1326,l),
(606,1326,l),
(649,1175,l),
(889,495,l),
(318,495,l)
);
}
);
width = 1208;
}
);
unicode = 192;
},
{
glyphname = Aring;
kernLeft = _A;
kernRight = _A;
lastChange = "2024-05-25 11:48:25 +0000";
layers = (
{
associatedMasterId = "557D07FA-4833-462F-859E-332980C518A5";
layerId = "8B9C2315-63B1-430F-AFCA-A7E2B0E3FB05";
name = img;
width = 1208;
},
{
layerId = "4EE6A762-B31F-492D-BAD7-A15389DCB08F";
shapes = (
{
closed = 1;
nodes = (
(815,298,l,{
name = ._.105553419602912;
}),
(896,0,l,{
name = ._.105553419603072;
}),
(1210,0,l),
(770,1456,l,{
name = ._.105553419603232;
}),
(440,1456,l),
(0,0,l),
(314,0,l),
(394,298,l)
);
},
{
closed = 1;
nodes = (
(580,1016,l),
(601,1122,l),
(607,1122,l),
(628,1015,l),
(749,542,l,{
name = ._.105553419603872;
}),
(460,542,l)
);
},
{
closed = 1;
nodes = (
(349,1597,o),
(442,1519,o),
(601,1519,cs),
(759,1519,o),
(849,1598,o),
(849,1713,cs),
(849,1825,o),
(759,1914,o),
(601,1914,cs),
(442,1914,o),
(349,1828,o),
(349,1713,cs)
);
},
{
closed = 1;
nodes = (
(519,1750,o),
(541,1797,o),
(601,1797,cs),
(659,1797,o),
(679,1750,o),
(679,1713,cs),
(679,1676,o),
(653,1634,o),
(601,1634,cs),
(545,1634,o),
(519,1677,o),
(519,1713,cs)
);
}
);
width = 1210;
},
{
layerId = "7B7CA763-6202-4B35-9FCB-B97398BB2D53";
shapes = (
{
closed = 1;
nodes = (
(867,364,l),
(980,0,l),
(1198,0,l),
(707,1456,l),
(515,1456,l),
(20,0,l),
(239,0,l),
(351,364,l)
);
},
{
closed = 1;
nodes = (
(579,1102,l),
(607,1222,l),
(613,1222,l),
(641,1102,l),
(821,523,l),
(398,523,l)
);
},
{
closed = 1;
nodes = (
(394,1590,o),
(481,1515,o),
(610,1515,cs),
(738,1515,o),
(823,1592,o),
(823,1702,cs),
(823,1811,o),
(739,1894,o),
(610,1894,cs),
(482,1894,o),
(394,1811,o),
(394,1702,cs)
);
},
{
closed = 1;
nodes = (
(517,1757,o),
(552,1798,o),
(610,1798,cs),
(667,1798,o),
(700,1757,o),
(700,1702,cs),
(700,1646,o),
(666,1609,o),
(610,1609,cs),
(552,1609,o),
(517,1649,o),
(517,1702,cs)
);
}
);
width = 1218;
},
{
layerId = "80A40485-F9FE-43F8-8BB8-E239AA3B9F7E";
shapes = (
{
closed = 1;
nodes = (
(888,389,l,{
name = ._.105553419606992;
}),
(1018,0,l,{
name = ._.105553419607152;
}),
(1190,0,l),
(682,1456,l,{
name = ._.105553419607312;
}),
(539,1456,l),
(27,0,l),
(199,0,l),
(329,389,l)
);
},
{
closed = 1;
nodes = (
(576,1134,l),
(607,1249,l),
(613,1249,l),
(644,1134,l),
(846,516,l,{
name = ._.105553419607952;
}),
(372,516,l)
);
},
{
closed = 1;
nodes = (
(406,1588,o),
(491,1511,o),
(609,1511,cs),
(727,1511,o),
(810,1590,o),
(810,1698,cs),
(810,1805,o),
(728,1889,o),
(609,1889,cs),
(492,1889,o),
(406,1804,o),
(406,1698,cs)
);
},
{
closed = 1;
nodes = (
(510,1760,o),
(551,1805,o),
(610,1805,cs),
(667,1805,o),
(705,1759,o),
(705,1698,cs),
(705,1636,o),
(667,1594,o),
(610,1594,cs),
(550,1594,o),
(510,1639,o),
(510,1698,cs)
);
}
);
width = 1217;
},
{
guides = (
{
pos = (0,1878);
},
{
pos = (0,451);
}
);
layerId = "557D07FA-4833-462F-859E-332980C518A5";
shapes = (
{
closed = 1;
nodes = (
(913,426,l),
(1065,0,l,{
name = ._.105553419609872;
}),
(1161,0,l),
(635,1456,l,{
name = ._.105553419610032;
}),
(572,1456,l),
(47,0,l),
(143,0,l),
(295,426,l)
);
},
{
closed = 1;
nodes = (
(557,1177,l),
(600,1326,l),
(606,1326,l),
(649,1175,l),
(889,495,l),
(318,495,l)
);
},
{
closed = 1;
nodes = (
(410,1582,o),
(492,1505,o),
(604,1505,cs),
(716,1505,o),
(796,1584,o),
(796,1692,cs),
(796,1799,o),
(717,1883,o),
(604,1883,cs),
(493,1883,o),
(410,1798,o),
(410,1692,cs)
);
},
{
closed = 1;
nodes = (
(482,1764,o),
(531,1823,o),
(605,1823,cs),
(677,1823,o),
(723,1763,o),
(723,1692,cs),
(723,1620,o),
(677,1564,o),
(605,1564,cs),
(530,1564,o),
(482,1623,o),
(482,1692,cs)
);
}
);
width = 1208;
}
);
unicode = 197;
},
{
glyphname = Atilde;
kernLeft = _A;
kernRight = _A;
lastChange = "2024-05-25 11:48:25 +0000";
layers = (
{
associatedMasterId = "557D07FA-4833-462F-859E-332980C518A5";
layerId = "8B9C2315-63B1-430F-AFCA-A7E2B0E3FB05";
name = img;
width = 1208;
},
{
layerId = "4EE6A762-B31F-492D-BAD7-A15389DCB08F";
shapes = (
{
closed = 1;
nodes = (
(866,1897,l,{
name = ._.105553419616336;
}),
(852,1855,o),
(832,1804,o),
(774,1804,cs,{
name = hr02;
}),
(679,1804,o),
(592,1890,o),
(445,1890,cs,{
name = ._.105553419616896;
}),
(303,1890,o),
(196,1778,o),
(176,1619,c),
(344,1585,l),
(353,1621,o),
(379,1678,o),
(441,1678,cs,{
name = hr01;
}),
(531,1678,o),
(626,1592,o),
(770,1592,cs,{
name = ._.105553419617696;
}),
(899,1592,o),
(1024,1693,o),
(1035,1852,c)
);
},
{
closed = 1;
nodes = (
(815,298,l,{
name = ._.105553419582464;
}),
(896,0,l,{
name = ._.105553419582624;
}),
(1210,0,l),
(770,1456,l,{
name = ._.105553419582784;
}),
(440,1456,l),
(0,0,l),
(314,0,l),
(394,298,l)
);
},
{
closed = 1;
nodes = (
(580,1016,l),
(601,1122,l),
(607,1122,l),
(628,1015,l),
(749,542,l,{
name = ._.105553419599328;
}),
(460,542,l)
);
}
);
width = 1210;
},
{
layerId = "7B7CA763-6202-4B35-9FCB-B97398BB2D53";
shapes = (
{
closed = 1;
nodes = (
(853,1868,l),
(849,1809,o),
(810,1769,o),
(756,1769,cs),
(667,1769,o),
(606,1855,o),
(469,1855,cs),
(356,1855,o),
(260,1761,o),
(255,1630,c),
(366,1609,l),
(368,1657,o),
(404,1706,o),
(463,1706,cs),
(553,1706,o),
(615,1620,o),
(749,1620,cs),
(859,1620,o),
(960,1708,o),
(963,1840,c)
);
},
{
closed = 1;
nodes = (
(867,364,l),
(980,0,l),
(1198,0,l),
(707,1456,l),
(515,1456,l),
(20,0,l),
(239,0,l),
(351,364,l)
);
},
{
closed = 1;
nodes = (
(579,1102,l),
(607,1222,l),
(613,1222,l),
(641,1102,l),
(821,523,l),
(398,523,l)
);
}
);
width = 1218;
},
{
layerId = "80A40485-F9FE-43F8-8BB8-E239AA3B9F7E";
shapes = (
{
closed = 1;
nodes = (
(845,1858,l,{
name = ._.105553419620016;
}),
(845,1793,o),
(799,1756,o),
(747,1756,cs,{
name = ._.105553419620336;
}),
(660,1756,o),
(609,1843,o),
(475,1843,cs,{
name = hr01;
}),
(373,1843,o),
(281,1755,o),
(281,1634,c),
(371,1618,l),
(371,1670,o),
(410,1717,o),
(468,1717,cs,{
name = ._.105553419621136;
}),
(558,1717,o),
(608,1630,o),
(739,1630,cs,{
name = hr02;
}),
(842,1630,o),
(934,1714,o),
(934,1837,c)
);
},
{
closed = 1;
nodes = (
(888,389,l,{
name = ._.105553419621696;
}),
(1018,0,l,{
name = ._.105553419621936;
}),
(1190,0,l),
(682,1456,l,{
name = ._.105553419622096;
}),
(540,1456,l),
(27,0,l),
(199,0,l),
(329,389,l)
);
},
{
closed = 1;
nodes = (
(576,1134,l),
(607,1249,l),
(613,1249,l),
(644,1134,l),
(847,516,l,{
name = ._.105553419622736;
}),
(372,516,l)
);
}
);
width = 1217;
},
{
guides = (
{
pos = (0,451);
}
);
layerId = "557D07FA-4833-462F-859E-332980C518A5";
shapes = (
{
closed = 1;
nodes = (
(841,1835,l,{
name = ._.105553419624576;
}),
(841,1772,o),
(801,1723,o),
(743,1723,cs),
(672,1723,o),
(599,1822,o),
(472,1822,cs,{
name = hr01;
}),
(390,1822,o),
(315,1754,o),
(315,1653,c),
(367,1642,l),
(367,1677,o),
(393,1748,o),
(464,1748,cs),
(554,1748,o),
(625,1649,o),
(731,1649,cs,{
name = hr02;
}),
(820,1649,o),
(890,1721,o),
(890,1822,c)
);
},
{
closed = 1;
nodes = (
(913,426,l),
(1065,0,l,{
name = ._.105553419623776;
}),
(1161,0,l),
(635,1456,l,{
name = ._.105553419623936;
}),
(572,1456,l),
(47,0,l),
(143,0,l),
(295,426,l)
);
},
{
closed = 1;
nodes = (
(557,1177,l),
(600,1326,l),
(606,1326,l),
(649,1175,l),
(889,495,l),
(318,495,l)
);
}
);
width = 1208;
}
);
unicode = 195;
},
{
glyphname = AE;
kernRight = _E;
lastChange = "2024-05-28 21:57:24 +0000";
layers = (
{
layerId = "4EE6A762-B31F-492D-BAD7-A15389DCB08F";
shapes = (
{
closed = 1;
nodes = (
(819,1115,l),
(825,1115,l),
(839,588,l),
(600,588,l,{
name = ._.105553357336048;
})
);
},
{
closed = 1;
nodes = (
(1697,247,l),
(1162,247,l,{
name = ._.105553357334608;
}),
(1147,622,l,{
name = ._.105553357334688;
}),
(1565,622,l),
(1565,869,l),
(1138,869,l,{
name = ._.105553357334928;
}),
(1125,1208,l,{
name = ._.105553357335008;
}),
(1640,1208,l),
(1640,1456,l),
(684,1456,l,{
name = ._.105553357335248;
}),
(2,0,l),
(346,0,l),
(490,334,l,{
name = ._.105553357335488;
}),
(848,334,l),
(861,0,l,{
name = ._.105553357335648;
}),
(1697,0,l)
);
}
);
width = 1757;
},
{
layerId = "7B7CA763-6202-4B35-9FCB-B97398BB2D53";
shapes = (
{
closed = 1;
nodes = (
(840,1242,l),
(845,1242,l),
(868,532,l),
(475,532,l)
);
},
{
closed = 1;
nodes = (
(1702,159,l),
(1086,159,l),
(1066,675,l),
(1572,675,l),
(1572,834,l),
(1060,834,l),
(1041,1296,l),
(1650,1296,l),
(1650,1456,l),
(757,1456,l),
(-29,0,l),
(201,0,l),
(392,371,l),
(874,371,l),
(889,0,l),
(1702,0,l)
);
}
);
width = 1770;
},
{
layerId = "80A40485-F9FE-43F8-8BB8-E239AA3B9F7E";
shapes = (
{
closed = 1;
nodes = (
(848,1289,l),
(852,1289,l),
(879,512,l),
(429,512,l,{
name = ._.105553357339408;
})
);
},
{
closed = 1;
nodes = (
(1704,127,l),
(1058,127,l,{
name = ._.105553357337968;
}),
(1036,694,l,{
name = ._.105553357338048;
}),
(1575,694,l),
(1575,821,l),
(1031,821,l,{
name = ._.105553357338288;
}),
(1010,1329,l,{
name = ._.105553357338368;
}),
(1654,1329,l),
(1654,1456,l),
(784,1456,l,{
name = ._.105553357338608;
}),
(-41,0,l),
(147,0,l),
(356,385,l,{
name = ._.105553357338848;
}),
(884,385,l),
(900,0,l,{
name = ._.105553357339008;
}),
(1704,0,l)
);
}
);
width = 1775;
},
{
layerId = "557D07FA-4833-462F-859E-332980C518A5";
shapes = (
{
closed = 1;
nodes = (
(908,1366,l),
(911,1366,l),
(945,496,l),
(380,496,l)
);
},
{
closed = 1;
nodes = (
(1732,70,l),
(1054,70,l),
(1028,727,l,{
name = ._.105553357340448;
}),
(1610,727,l),
(1610,797,l),
(1025,797,l,{
name = ._.105553357307984;
}),
(999,1386,l),
(1695,1386,l),
(1695,1456,l),
(873,1456,l,{
name = ._.105553357308304;
}),
(-25,0,l),
(79,0,l),
(340,427,l),
(947,427,l,{
name = ._.105553357308624;
}),
(965,0,l,{
name = ._.105553357308704;
}),
(1732,0,l)
);
}
);
width = 1809;
}
);
unicode = 198;
},
{
glyphname = B;
lastChange = "2024-05-25 11:48:25 +0000";
layers = (
{
layerId = "4EE6A762-B31F-492D-BAD7-A15389DCB08F";
shapes = (
{
closed = 1;
nodes = (
(678,0,ls,{
name = hr01;
}),
(1004,0,o),
(1185,156,o),
(1185,428,cs,{
name = ._.105553285824288;
}),
(1185,570,o),
(1111,707,o),
(948,751,c),
(1077,805,o),
(1140,918,o),
(1140,1057,cs,{
name = ._.105553285820288;
}),
(1140,1352,o),
(884,1456,o),
(613,1456,cs,{
name = ._.105553285817328;
}),
(150,1456,l,{
name = ._.105553285821648;
}),
(150,0,l)
);
},
{
closed = 1;
nodes = (
(461,1212,l,{
name = ._.105553285823648;
}),
(613,1212,ls,{
name = ._.105553285820128;
}),
(758,1212,o),
(828,1154,o),
(828,1024,cs,{
name = ._.105553285822048;
}),
(828,909,o),
(758,848,o),
(623,845,c,{
name = hr02;
}),
(461,845,l)
);
},
{
closed = 1;
nodes = (
(697,633,ls,{
name = ._.105553285632624;
}),
(822,633,o),
(875,552,o),
(875,429,cs,{
name = ._.105553285634544;
}),
(875,315,o),
(810,243,o),
(678,243,cs,{
name = ._.105553285633904;
}),
(461,243,l),
(461,633,l)
);
}
);
width = 1260;
},
{
layerId = "7B7CA763-6202-4B35-9FCB-B97398BB2D53";
shapes = (
{
closed = 1;
nodes = (
(689,0,ls),
(968,0,o),
(1148,141,o),
(1148,409,cs),
(1148,584,o),
(1053,730,o),
(881,766,c),
(1018,815,o),
(1094,932,o),
(1094,1070,cs),
(1094,1328,o),
(915,1456,o),
(629,1456,cs),
(188,1456,l),
(188,0,l)
);
},
{
closed = 1;
nodes = (
(392,1297,l),
(629,1297,ls),
(799,1297,o),
(889,1219,o),
(889,1062,cs),
(889,912,o),
(790,830,o),
(648,830,cs),
(392,830,l)
);
},
{
closed = 1;
nodes = (
(704,680,ls),
(857,680,o),
(944,574,o),
(944,413,cs),
(944,250,o),
(852,158,o),
(689,158,cs),
(392,158,l),
(392,680,l)
);
}
);
width = 1256;
},
{
layerId = "80A40485-F9FE-43F8-8BB8-E239AA3B9F7E";
shapes = (
{
closed = 1;
nodes = (
(692,0,ls,{
name = ._.105553285642144;
}),
(955,0,o),
(1135,135,o),
(1135,402,cs,{
name = ._.105553285643024;
}),
(1135,589,o),
(1031,739,o),
(856,772,c),
(996,819,o),
(1076,938,o),
(1076,1076,cs,{
name = hr02;
}),
(1076,1319,o),
(927,1456,o),
(634,1456,cs),
(202,1456,l,{
name = ._.105553285641344;
}),
(202,0,l)
);
},
{
closed = 1;
nodes = (
(366,1329,l,{
name = ._.105553285643664;
}),
(634,1329,ls),
(813,1329,o),
(911,1244,o),
(911,1076,cs,{
name = ._.105553285641104;
}),
(911,913,o),
(801,824,o),
(657,825,c,{
name = ._.105553285639584;
}),
(366,825,l)
);
},
{
closed = 1;
nodes = (
(706,698,ls,{
name = ._.105553285639824;
}),
(869,698,o),
(970,583,o),
(970,407,cs,{
name = hr01;
}),
(970,226,o),
(867,126,o),
(692,126,cs,{
name = ._.105553285644144;
}),
(366,126,l),
(366,698,l)
);
}
);
width = 1255;
},
{
layerId = "557D07FA-4833-462F-859E-332980C518A5";
shapes = (
{
closed = 1;
nodes = (
(688,0,ls,{
name = ._.105553285634464;
}),
(920,0,o),
(1109,120,o),
(1109,384,cs,{
name = ._.105553285635344;
}),
(1109,598,o),
(991,751,o),
(800,779,c,{
name = ._.105553285636224;
}),
(965,822,o),
(1038,958,o),
(1038,1103,cs,{
name = hr02;
}),
(1038,1304,o),
(938,1456,o),
(633,1456,cs,{
name = ._.105553285635664;
}),
(221,1456,l,{
name = ._.105553285643504;
}),
(221,0,l)
);
},
{
closed = 1;
nodes = (
(311,1386,l,{
name = ._.105553285639744;
}),
(633,1386,ls),
(832,1386,o),
(950,1291,o),
(950,1103,cs,{
name = ._.105553285636384;
}),
(950,906,o),
(796,804,o),
(643,807,c,{
name = ._.105553285635904;
}),
(311,807,l)
);
},
{
closed = 1;
nodes = (
(679,737,ls,{
name = ._.105553285636144;
}),
(858,737,o),
(1021,608,o),
(1021,401,cs,{
name = hr01;
}),
(1021,187,o),
(889,70,o),
(688,70,cs),
(311,70,l),
(311,737,l)
);
}
);
width = 1244;
}
);
unicode = 66;
},
{
glyphname = C;
kernLeft = _C;
kernRight = _C;
lastChange = "2024-05-28 22:01:17 +0000";
layers = (
{
layerId = "4EE6A762-B31F-492D-BAD7-A15389DCB08F";
shapes = (
{
closed = 1;
nodes = (
(861,-21,o),
(1011,64,o),
(1067,126,c),
(969,320,l),
(893,263,o),
(779,225,o),
(698,223,c,{
name = ._.105553285630464;
}),
(522,223,o),
(402,351,o),
(402,696,cs),
(402,804,ls,{
name = ._.105553285629424;
}),
(402,1114,o),
(521,1233,o),
(692,1233,cs,{
name = ._.105553285630704;
}),
(779,1233,o),
(892,1194,o),
(969,1136,c),
(1067,1330,l),
(1001,1391,o),
(861,1477,o),
(652,1477,cs,{
name = ._.105553285642064;
}),
(302,1477,o),
(90,1241,o),
(90,759,cs,{
name = ._.105553285643424;
}),
(90,653,ls),
(90,198,o),
(311,-21,o),
(652,-21,cs,{
name = ._.105553285631584;
})
);
}
);
width = 1102;
},
{
layerId = "7B7CA763-6202-4B35-9FCB-B97398BB2D53";
shapes = (
{
closed = 1;
nodes = (
(866,-21,o),
(986,67,o),
(1036,116,c),
(967,247,l),
(915,204,o),
(811,142,o),
(681,141,c),
(485,141,o),
(323,309,o),
(323,685,cs),
(323,805,ls),
(323,1153,o),
(476,1314,o),
(672,1314,cs),
(806,1314,o),
(911,1252,o),
(964,1207,c),
(1033,1341,l),
(983,1387,o),
(867,1477,o),
(664,1477,cs),
(307,1477,o),
(118,1203,o),
(118,751,cs),
(118,654,ls),
(118,197,o),
(352,-21,o),
(664,-21,cs)
);
}
);
width = 1093;
},
{
layerId = "80A40485-F9FE-43F8-8BB8-E239AA3B9F7E";
shapes = (
{
closed = 1;
nodes = (
(867,-21,o),
(976,68,o),
(1024,112,c),
(966,220,l),
(922,182,o),
(822,111,o),
(674,111,cs,{
name = ._.105553285634064;
}),
(470,111,o),
(293,294,o),
(293,681,cs),
(293,805,ls,{
name = ._.105553285634224;
}),
(293,1167,o),
(459,1344,o),
(664,1344,cs,{
name = ._.105553285640144;
}),
(815,1344,o),
(917,1273,o),
(962,1234,c),
(1020,1345,l),
(976,1386,o),
(868,1477,o),
(667,1477,cs,{
name = ._.105553285628384;
}),
(308,1477,o),
(128,1189,o),
(128,748,cs,{
name = ._.105553285627904;
}),
(128,655,ls),
(128,197,o),
(366,-21,o),
(668,-21,cs,{
name = ._.105553285628064;
})
);
}
);
width = 1090;
},
{
guides = (
{
pos = (0,785);
},
{
pos = (0,694);
},
{
pos = (0,1407);
},
{
pos = (0,49);
},
{
pos = (0,2291);
},
{
angle = 90;
pos = (669,0);
}
);
layerId = "557D07FA-4833-462F-859E-332980C518A5";
shapes = (
{
closed = 1;
nodes = (
(844,-21,o),
(945,48,o),
(1001,101,c),
(972,159,l),
(925,123,o),
(835,54,o),
(673,54,cs),
(484,54,o),
(230,243,o),
(230,694,cs),
(230,785,ls,{
name = ._.105553285824592;
}),
(230,1211,o),
(436,1404,o),
(660,1404,cs),
(834,1404,o),
(916,1334,o),
(967,1297,c),
(997,1356,l),
(949,1400,o),
(849,1477,o),
(670,1477,cs,{
name = ._.105553285825392;
}),
(310,1477,o),
(142,1175,o),
(142,755,cs,{
name = ._.105553285825632;
}),
(142,684,ls),
(142,209,o),
(389,-21,o),
(673,-21,cs,{
name = ._.105553285628144;
})
);
}
);
width = 1071;
}
);
unicode = 67;
},
{
glyphname = Ccedilla;
kernLeft = _C;
kernRight = _C;
lastChange = "2024-05-25 11:48:25 +0000";
layers = (
{
layerId = "4EE6A762-B31F-492D-BAD7-A15389DCB08F";
shapes = (
{
closed = 1;
nodes = (
(969,320,l),
(893,263,o),
(779,225,o),
(698,223,c,{
name = ._.105553357153664;
}),
(522,223,o),
(402,351,o),
(402,696,cs),
(402,804,ls,{
name = ._.105553357153984;
}),
(402,1114,o),
(521,1233,o),
(692,1233,cs,{
name = ._.105553357154224;
}),
(779,1233,o),
(892,1194,o),
(969,1136,c),
(1067,1330,l),
(1001,1391,o),
(861,1477,o),
(652,1477,cs,{
name = ._.105553357154784;
}),
(302,1477,o),
(90,1241,o),
(90,759,cs,{
name = ._.105553357155024;
}),
(90,653,ls),
(90,267,o),
(248,51,o),
(504,-5,c),
(466,-151,l,{
name = ._.105553357155424;
}),
(560,-155,o),
(594,-202,o),
(594,-244,cs,{
name = ._.105553357155664;
}),
(594,-327,o),
(495,-340,o),
(432,-340,c),
(441,-506,l),
(622,-508,o),
(817,-434,o),
(817,-254,cs,{
name = ._.105553357156224;
}),
(817,-128,o),
(740,-83,o),
(683,-71,c),
(698,-19,l,{
name = hr01;
}),
(883,-8,o),
(1015,68,o),
(1067,126,c)
);
}
);
width = 1102;
},
{
layerId = "7B7CA763-6202-4B35-9FCB-B97398BB2D53";
shapes = (
{
closed = 1;
nodes = (
(967,248,l),
(914,205,o),
(810,143,o),
(680,141,c),
(484,141,o),
(321,310,o),
(321,685,cs),
(321,805,ls),
(321,1153,o),
(476,1314,o),
(671,1314,cs),
(805,1314,o),
(910,1252,o),
(964,1208,c),
(1032,1341,l),
(982,1387,o),
(866,1477,o),
(663,1477,cs),
(307,1477,o),
(118,1203,o),
(118,751,cs),
(118,655,ls),
(118,262,o),
(290,45,o),
(535,-7,c),
(493,-165,l),
(590,-172,o),
(636,-211,o),
(636,-277,cs),
(636,-360,o),
(550,-390,o),
(468,-390,c),
(474,-502,l),
(659,-503,o),
(797,-428,o),
(797,-268,cs),
(797,-156,o),
(733,-103,o),
(651,-89,c),
(672,-20,l),
(856,-16,o),
(977,60,o),
(1035,116,c)
);
}
);
width = 1103;
},
{
layerId = "80A40485-F9FE-43F8-8BB8-E239AA3B9F7E";
shapes = (
{
closed = 1;
nodes = (
(966,220,l),
(922,182,o),
(822,111,o),
(674,111,cs,{
name = ._.105553357158944;
}),
(470,111,o),
(290,294,o),
(290,681,cs),
(290,805,ls,{
name = ._.105553357159264;
}),
(290,1167,o),
(459,1344,o),
(664,1344,cs,{
name = ._.105553357159504;
}),
(815,1344,o),
(917,1273,o),
(962,1234,c),
(1020,1345,l),
(976,1386,o),
(868,1477,o),
(667,1477,cs,{
name = ._.105553357160064;
}),
(308,1477,o),
(128,1189,o),
(128,748,cs,{
name = ._.105553357160304;
}),
(128,655,ls),
(128,259,o),
(305,43,o),
(547,-8,c),
(503,-170,l,{
name = ._.105553356931232;
}),
(602,-178,o),
(652,-214,o),
(652,-289,cs,{
name = ._.105553356931472;
}),
(652,-372,o),
(570,-408,o),
(481,-408,c,{
name = ._.105553356931712;
}),
(486,-501,l,{
name = ._.105553356931792;
}),
(673,-501,o),
(790,-426,o),
(790,-273,cs,{
name = ._.105553356932032;
}),
(790,-166,o),
(731,-110,o),
(640,-96,c),
(663,-21,l,{
name = ._.105553356932352;
}),
(846,-19,o),
(964,57,o),
(1024,112,c)
);
}
);
width = 1104;
},
{
layerId = "557D07FA-4833-462F-859E-332980C518A5";
shapes = (
{
closed = 1;
nodes = (
(972,159,l),
(925,123,o),
(835,54,o),
(673,54,cs,{
name = ._.105553356933792;
}),
(484,54,o),
(230,243,o),
(230,694,cs),
(230,785,ls,{
name = ._.105553356934112;
}),
(230,1211,o),
(436,1404,o),
(660,1404,cs),
(834,1404,o),
(916,1334,o),
(967,1297,c),
(997,1356,l),
(949,1400,o),
(849,1477,o),
(670,1477,cs,{
name = ._.105553356934912;
}),
(310,1477,o),
(142,1175,o),
(142,755,cs,{
name = ._.105553356935152;
}),
(142,684,ls),
(142,260,o),
(338,32,o),
(582,-12,c),
(538,-167,l,{
name = ._.105553356935552;
}),
(625,-175,o),
(707,-198,o),
(707,-300,cs,{
name = ._.105553356935792;
}),
(707,-393,o),
(629,-433,o),
(522,-433,c),
(524,-492,l,{
name = ._.105553356936112;
}),
(714,-492,o),
(793,-410,o),
(793,-290,cs,{
name = ._.105553356936352;
}),
(793,-192,o),
(736,-119,o),
(623,-107,c,{
name = ._.105553356936592;
}),
(648,-20,l,{
name = ._.105553356936672;
}),
(781,-20,o),
(909,16,o),
(1001,101,c)
);
}
);
width = 1081;
}
);
unicode = 199;
},
{
glyphname = D;
kernLeft = _D;
kernRight = _D;
lastChange = "2024-05-25 11:48:25 +0000";
layers = (
{
layerId = "4EE6A762-B31F-492D-BAD7-A15389DCB08F";
shapes = (
{
closed = 1;
nodes = (
(613,0,ls,{
name = ._.105553285826432;
}),
(994,0,o),
(1222,265,o),
(1222,681,cs),
(1222,774,ls,{
name = ._.105553285826832;
}),
(1222,1172,o),
(1011,1456,o),
(613,1456,cs,{
name = ._.105553285827072;
}),
(150,1456,l,{
name = ._.105553285827152;
}),
(150,0,l)
);
},
{
closed = 1;
nodes = (
(573,1212,ls,{
name = ._.105553285826272;
}),
(834,1212,o),
(911,1031,o),
(911,776,cs,{
name = ._.105553285827472;
}),
(911,681,ls),
(911,445,o),
(844,243,o),
(573,243,cs,{
name = ._.105553285827792;
}),
(462,243,l),
(462,1212,l,{
name = ._.105553285827952;
})
);
}
);
width = 1312;
},
{
layerId = "7B7CA763-6202-4B35-9FCB-B97398BB2D53";
shapes = (
{
closed = 1;
nodes = (
(584,0,ls),
(970,0,o),
(1198,261,o),
(1198,677,cs),
(1198,780,ls),
(1198,1264,o),
(913,1456,o),
(560,1456,cs),
(188,1456,l),
(188,0,l)
);
},
{
closed = 1;
nodes = (
(574,1297,ls),
(848,1297,o),
(994,1104,o),
(994,781,cs),
(994,677,ls),
(994,357,o),
(851,158,o),
(579,158,cs),
(392,158,l),
(392,1297,l)
);
}
);
width = 1315;
},
{
layerId = "80A40485-F9FE-43F8-8BB8-E239AA3B9F7E";
shapes = (
{
closed = 1;
nodes = (
(573,0,ls,{
name = ._.105553285829312;
}),
(962,0,o),
(1190,260,o),
(1190,676,cs),
(1190,783,ls,{
name = ._.105553285829712;
}),
(1190,1299,o),
(877,1456,o),
(540,1456,cs,{
name = ._.105553285829952;
}),
(202,1456,l,{
name = ._.105553285830032;
}),
(202,0,l)
);
},
{
closed = 1;
nodes = (
(575,1329,ls,{
name = ._.105553285829232;
}),
(854,1329,o),
(1025,1132,o),
(1025,784,cs,{
name = ._.105553285830352;
}),
(1025,676,ls),
(1025,325,o),
(854,127,o),
(581,127,cs,{
name = ._.105553285830672;
}),
(366,127,l),
(366,1329,l,{
name = ._.105553285830832;
})
);
}
);
width = 1316;
},
{
guides = (
{
angle = 90;
pos = (545,0);
}
);
layerId = "557D07FA-4833-462F-859E-332980C518A5";
shapes = (
{
closed = 1;
nodes = (
(546,0,ls,{
name = ._.105553285831392;
}),
(963,0,o),
(1181,263,o),
(1181,683,cs),
(1181,782,ls,{
name = ._.105553285831792;
}),
(1181,1348,o),
(822,1456,o),
(546,1456,cs,{
name = ._.105553285832032;
}),
(221,1456,l,{
name = ._.105553285832112;
}),
(221,0,l)
);
},
{
closed = 1;
nodes = (
(558,1386,ls),
(861,1386,o),
(1093,1197,o),
(1093,782,cs,{
name = ._.105553285832432;
}),
(1093,683,ls),
(1093,276,o),
(863,70,o),
(578,70,cs),
(311,70,l),
(311,1386,l,{
name = ._.105553285832912;
})
);
}
);
width = 1323;
}
);
unicode = 68;
},
{
glyphname = Eth;
kernLeft = _D;
kernRight = _D;
lastChange = "2024-05-25 11:48:25 +0000";
layers = (
{
guides = (
{
pos = (0,713);
}
);
layerId = "4EE6A762-B31F-492D-BAD7-A15389DCB08F";
shapes = (
{
closed = 1;
nodes = (
(633,0,ls,{
name = ._.105553419415184;
}),
(1014,0,o),
(1242,265,o),
(1242,681,cs),
(1242,774,ls,{
name = ._.105553419415584;
}),
(1242,1172,o),
(1031,1456,o),
(633,1456,cs,{
name = ._.105553419415824;
}),
(170,1456,l,{
name = ._.105553419415904;
}),
(170,861,l),
(31,861,l,{
name = ._.105553419416064;
}),
(31,617,l,{
name = ._.105553419416144;
}),
(170,617,l),
(170,0,l)
);
},
{
closed = 1;
nodes = (
(593,1212,ls,{
name = ._.105553419414784;
}),
(854,1212,o),
(931,1031,o),
(931,776,cs,{
name = ._.105553419416464;
}),
(931,681,ls),
(931,445,o),
(864,243,o),
(593,243,cs,{
name = ._.105553419416784;
}),
(482,243,l),
(482,617,l),
(721,617,l),
(721,861,l),
(482,861,l),
(482,1212,l,{
name = ._.105553419417264;
})
);
}
);
width = 1332;
},
{
layerId = "7B7CA763-6202-4B35-9FCB-B97398BB2D53";
shapes = (
{
closed = 1;
nodes = (
(589,0,ls),
(976,0,o),
(1204,261,o),
(1204,677,cs),
(1204,781,ls),
(1204,1264,o),
(918,1456,o),
(565,1456,cs),
(193,1456,l),
(193,802,l),
(42,802,l),
(42,643,l),
(193,643,l),
(193,0,l)
);
},
{
closed = 1;
nodes = (
(579,1297,ls),
(854,1297,o),
(1000,1105,o),
(1000,782,cs),
(1000,677,ls),
(1000,357,o),
(857,158,o),
(584,158,cs),
(397,158,l),
(397,643,l),
(692,643,l),
(692,802,l),
(397,802,l),
(397,1297,l)
);
}
);
width = 1320;
},
{
guides = (
{
pos = (0,719);
}
);
layerId = "80A40485-F9FE-43F8-8BB8-E239AA3B9F7E";
shapes = (
{
closed = 1;
nodes = (
(573,0,ls,{
name = ._.105553419419344;
}),
(962,0,o),
(1190,260,o),
(1190,676,cs),
(1190,783,ls,{
name = ._.105553420238928;
}),
(1190,1299,o),
(877,1456,o),
(540,1456,cs,{
name = ._.105553420239168;
}),
(202,1456,l,{
name = ._.105553420239248;
}),
(202,780,l),
(47,780,l,{
name = ._.105553420239408;
}),
(47,653,l,{
name = ._.105553420239488;
}),
(202,653,l),
(202,0,l)
);
},
{
closed = 1;
nodes = (
(575,1329,ls,{
name = ._.105553420239808;
}),
(854,1329,o),
(1025,1132,o),
(1025,784,cs,{
name = ._.105553420240048;
}),
(1025,676,ls),
(1025,325,o),
(854,127,o),
(581,127,cs,{
name = ._.105553420240368;
}),
(366,127,l),
(366,653,l),
(682,653,l),
(682,780,l),
(366,780,l),
(366,1329,l,{
name = ._.105553420240848;
})
);
}
);
width = 1316;
},
{
guides = (
{
angle = 90;
pos = (545,0);
},
{
angle = 90;
pos = (545,0);
},
{
pos = (0,720);
}
);
layerId = "557D07FA-4833-462F-859E-332980C518A5";
shapes = (
{
closed = 1;
nodes = (
(546,0,ls,{
name = ._.105553420241968;
}),
(963,0,o),
(1181,263,o),
(1181,683,cs),
(1181,782,ls,{
name = ._.105553420242368;
}),
(1181,1348,o),
(822,1456,o),
(546,1456,cs),
(221,1456,l,{
name = ._.105553420242688;
}),
(221,757,l),
(84,757,l),
(84,687,l),
(221,687,l,{
name = ._.105553420243008;
}),
(221,0,l)
);
},
{
closed = 1;
nodes = (
(558,1386,ls),
(861,1386,o),
(1093,1197,o),
(1093,782,cs,{
name = ._.105553420243248;
}),
(1093,683,ls),
(1093,276,o),
(863,70,o),
(578,70,cs),
(311,70,l),
(311,687,l),
(626,687,l),
(626,757,l,{
name = ._.105553420243888;
}),
(311,757,l),
(311,1386,l,{
name = ._.105553420244048;
})
);
}
);
width = 1323;
}
);
unicode = 208;
},
{
glyphname = E;
kernLeft = _E;
kernRight = _E;
lastChange = "2024-05-25 12:04:17 +0000";
layers = (
{
anchors = (
{
name = top;
pos = (619,1453);
}
);
layerId = "4EE6A762-B31F-492D-BAD7-A15389DCB08F";
shapes = (
{
closed = 1;
nodes = (
(982,874,l),
(462,874,l,{
name = ._.105553285833712;
}),
(462,1212,l,{
name = ._.105553285833792;
}),
(1076,1212,l),
(1076,1456,l),
(150,1456,l,{
name = ._.105553285834032;
}),
(150,0,l,{
name = ._.105553285834112;
}),
(1086,0,l),
(1086,244,l),
(462,244,l,{
name = ._.105553285834352;
}),
(462,631,l,{
name = ._.105553285834432;
}),
(982,631,l)
);
}
);
width = 1158;
},
{
anchors = (
{
name = top;
pos = (630,1453);
}
);
layerId = "7B7CA763-6202-4B35-9FCB-B97398BB2D53";
shapes = (
{
closed = 1;
nodes = (
(976,834,l),
(392,834,l),
(392,1297,l),
(1067,1297,l),
(1067,1456,l),
(188,1456,l),
(188,0,l),
(1077,0,l),
(1077,159,l),
(392,159,l),
(392,676,l),
(976,676,l)
);
}
);
width = 1161;
},
{
anchors = (
{
name = top;
pos = (628,1453);
}
);
layerId = "80A40485-F9FE-43F8-8BB8-E239AA3B9F7E";
shapes = (
{
closed = 1;
nodes = (
(973,819,l),
(366,819,l,{
name = ._.105553285836032;
}),
(366,1329,l,{
name = ._.105553285836112;
}),
(1064,1329,l),
(1064,1456,l),
(202,1456,l,{
name = ._.105553285836352;
}),
(202,0,l,{
name = ._.105553285836432;
}),
(1074,0,l),
(1074,127,l),
(366,127,l,{
name = ._.105553285836672;
}),
(366,692,l,{
name = ._.105553285836752;
}),
(973,692,l)
);
}
);
width = 1162;
},
{
anchors = (
{
name = top;
pos = (641,1453);
}
);
guides = (
{
pos = (0,773);
},
{
angle = 90;
pos = (1065,0);
}
);
layerId = "557D07FA-4833-462F-859E-332980C518A5";
shapes = (
{
closed = 1;
nodes = (
(944,797,l),
(311,797,l,{
name = ._.105553285837632;
}),
(311,1386,l,{
name = ._.105553285837712;
}),
(1047,1386,l),
(1047,1456,l),
(221,1456,l,{
name = ._.105553285837952;
}),
(221,0,l,{
name = ._.105553285838032;
}),
(1061,0,l),
(1061,70,l),
(311,70,l),
(311,727,l,{
name = ._.105553285838352;
}),
(944,727,l)
);
}
);
width = 1138;
}
);
unicode = 69;
},
{
glyphname = F;
lastChange = "2024-05-25 11:48:25 +0000";
layers = (
{
layerId = "4EE6A762-B31F-492D-BAD7-A15389DCB08F";
shapes = (
{
closed = 1;
nodes = (
(960,839,l),
(462,839,l,{
name = ._.105553285838752;
}),
(462,1212,l,{
name = ._.105553285838832;
}),
(1065,1212,l),
(1065,1456,l),
(150,1456,l,{
name = ._.105553285839072;
}),
(150,0,l,{
name = ._.105553285839152;
}),
(462,0,l),
(462,595,l,{
name = ._.105553285839312;
}),
(960,595,l)
);
}
);
width = 1091;
},
{
layerId = "7B7CA763-6202-4B35-9FCB-B97398BB2D53";
shapes = (
{
closed = 1;
nodes = (
(946,801,l),
(392,801,l),
(392,1297,l),
(1043,1297,l),
(1043,1456,l),
(188,1456,l),
(188,0,l),
(392,0,l),
(392,642,l),
(946,642,l)
);
}
);
width = 1079;
},
{
layerId = "80A40485-F9FE-43F8-8BB8-E239AA3B9F7E";
shapes = (
{
closed = 1;
nodes = (
(941,786,l),
(366,786,l,{
name = ._.105553285775600;
}),
(366,1329,l,{
name = ._.105553285775680;
}),
(1035,1329,l),
(1035,1456,l),
(202,1456,l,{
name = ._.105553285775920;
}),
(202,0,l,{
name = ._.105553285776000;
}),
(366,0,l),
(366,659,l,{
name = ._.105553285776160;
}),
(941,659,l)
);
}
);
width = 1075;
},
{
guides = (
{
pos = (0,720);
}
);
layerId = "557D07FA-4833-462F-859E-332980C518A5";
shapes = (
{
closed = 1;
nodes = (
(918,754,l),
(311,754,l),
(311,1389,l,{
name = ._.105553285777040;
}),
(1012,1389,l),
(1012,1456,l),
(221,1456,l,{
name = ._.105553285777280;
}),
(221,0,l,{
name = ._.105553285777360;
}),
(311,0,l),
(311,687,l,{
name = ._.105553285777520;
}),
(918,687,l)
);
}
);
width = 1057;
}
);
unicode = 70;
},
{
glyphname = G;
kernLeft = _G;
kernRight = _G;
lastChange = "2024-05-28 22:01:50 +0000";
layers = (
{
anchors = (
{
name = top;
pos = (681,1453);
}
);
layerId = "4EE6A762-B31F-492D-BAD7-A15389DCB08F";
shapes = (
{
closed = 1;
nodes = (
(1175,753,l,{
name = ._.105553285777920;
}),
(653,753,l,{
name = ._.105553285778080;
}),
(653,541,l,{
name = ._.105553285778160;
}),
(863,541,l,{
name = ._.105553285778240;
}),
(863,295,l),
(825,248,o),
(751,222,o),
(652,222,cs,{
name = ._.105553285778560;
}),
(495,222,o),
(400,347,o),
(400,685,cs),
(400,772,ls,{
name = ._.105553285778880;
}),
(400,1103,o),
(523,1233,o),
(726,1233,c,{
name = ._.105553285779120;
}),
(833,1231,o),
(937,1196,o),
(1057,1137,c),
(1155,1331,l),
(1099,1372,o),
(929,1477,o),
(700,1477,cs,{
name = ._.105553285779680;
}),
(341,1477,o),
(90,1240,o),
(90,770,cs,{
name = ._.105553285779920;
}),
(90,641,ls),
(90,194,o),
(319,-21,o),
(652,-21,cs,{
name = ._.105553285780240;
}),
(915,-21,o),
(1088,88,o),
(1175,208,c)
);
}
);
width = 1279;
},
{
anchors = (
{
name = top;
pos = (692,1456);
}
);
layerId = "7B7CA763-6202-4B35-9FCB-B97398BB2D53";
shapes = (
{
closed = 1;
nodes = (
(1157,728,l),
(672,728,l),
(672,578,l),
(953,578,l),
(953,251,l),
(909,187,o),
(819,139,o),
(679,139,cs),
(461,139,o),
(322,312,o),
(322,675,cs),
(322,804,ls),
(322,1148,o),
(493,1317,o),
(702,1317,cs),
(837,1317,o),
(953,1272,o),
(1066,1202,c),
(1135,1336,l),
(1065,1385,o),
(926,1477,o),
(694,1477,cs),
(355,1477,o),
(118,1230,o),
(118,763,cs),
(118,666,ls),
(118,265,o),
(285,-21,o),
(677,-21,cs),
(939,-21,o),
(1093,98,o),
(1157,200,c)
);
}
);
width = 1286;
},
{
anchors = (
{
name = top;
pos = (691,1456);
}
);
layerId = "80A40485-F9FE-43F8-8BB8-E239AA3B9F7E";
shapes = (
{
closed = 1;
nodes = (
(1150,718,l,{
name = ._.105553285782080;
}),
(679,718,l,{
name = ._.105553285782240;
}),
(679,591,l,{
name = ._.105553285782320;
}),
(986,591,l,{
name = hr01;
}),
(986,235,l),
(940,164,o),
(844,108,o),
(689,108,cs,{
name = ._.105553285782720;
}),
(448,108,o),
(293,299,o),
(293,671,cs),
(293,815,ls,{
name = ._.105553285783040;
}),
(293,1165,o),
(482,1348,o),
(693,1348,c,{
name = ._.105553285783280;
}),
(838,1349,o),
(958,1300,o),
(1069,1226,c),
(1127,1338,l),
(1052,1390,o),
(924,1477,o),
(691,1477,cs,{
name = ._.105553285783840;
}),
(360,1477,o),
(128,1226,o),
(128,760,cs,{
name = ._.105553285784080;
}),
(128,674,ls),
(128,291,o),
(272,-21,o),
(686,-21,cs,{
name = ._.105553285784400;
}),
(947,-21,o),
(1094,101,o),
(1150,197,c)
);
}
);
width = 1289;
},
{
anchors = (
{
name = top;
pos = (706,1456);
}
);
guides = (
{
pos = (0,654);
}
);
layerId = "557D07FA-4833-462F-859E-332980C518A5";
shapes = (
{
closed = 1;
nodes = (
(1135,690,l,{
name = ._.105553285785280;
}),
(689,690,l,{
name = ._.105553285785440;
}),
(689,624,l,{
name = ._.105553285785520;
}),
(1047,624,l,{
name = ._.105553285785600;
}),
(1047,205,l),
(995,123,o),
(881,48,o),
(715,48,cs),
(454,48,o),
(230,285,o),
(230,669,cs),
(230,816,ls,{
name = ._.105553285786240;
}),
(230,1175,o),
(429,1403,o),
(700,1403,c),
(873,1405,o),
(1007,1335,o),
(1072,1290,c),
(1101,1351,l),
(1044,1392,o),
(927,1477,o),
(696,1477,cs,{
name = ._.105553285787040;
}),
(385,1477,o),
(142,1244,o),
(142,780,cs,{
name = ._.105553285787280;
}),
(142,691,ls),
(142,394,o),
(273,-21,o),
(705,-21,cs,{
name = ._.105553285787600;
}),
(986,-21,o),
(1102,124,o),
(1135,192,c)
);
}
);
width = 1295;
}
);
unicode = 71;
},
{
glyphname = H;
lastChange = "2024-05-25 11:48:25 +0000";
layers = (
{
layerId = "4EE6A762-B31F-492D-BAD7-A15389DCB08F";
shapes = (
{
closed = 1;
nodes = (
(1268,1456,l,{
name = ._.105553285788240;
}),
(957,1456,l,{
name = ._.105553285788400;
}),
(957,854,l),
(462,854,l,{
name = ._.105553285788560;
}),
(462,1456,l,{
name = ._.105553285788640;
}),
(150,1456,l,{
name = ._.105553285788720;
}),
(150,0,l,{
name = ._.105553285788800;
}),
(462,0,l),
(462,610,l,{
name = ._.105553285788960;
}),
(957,610,l),
(957,0,l),
(1268,0,l)
);
}
);
width = 1418;
},
{
layerId = "7B7CA763-6202-4B35-9FCB-B97398BB2D53";
shapes = (
{
closed = 1;
nodes = (
(1223,1456,l),
(1019,1456,l),
(1019,804,l),
(392,804,l),
(392,1456,l),
(188,1456,l),
(188,0,l),
(392,0,l),
(392,645,l),
(1019,645,l),
(1019,0,l),
(1223,0,l)
);
}
);
width = 1411;
},
{
layerId = "80A40485-F9FE-43F8-8BB8-E239AA3B9F7E";
shapes = (
{
closed = 1;
nodes = (
(1206,1456,l,{
name = ._.105553285791040;
}),
(1042,1456,l,{
name = ._.105553285791200;
}),
(1042,785,l),
(366,785,l,{
name = ._.105553285791360;
}),
(366,1456,l,{
name = ._.105553285791440;
}),
(202,1456,l,{
name = ._.105553285791520;
}),
(202,0,l,{
name = ._.105553285791600;
}),
(366,0,l),
(366,658,l,{
name = ._.105553285791824;
}),
(1042,658,l),
(1042,0,l),
(1206,0,l)
);
}
);
width = 1408;
},
{
layerId = "557D07FA-4833-462F-859E-332980C518A5";
shapes = (
{
closed = 1;
nodes = (
(1167,1456,l,{
name = ._.105553285792864;
}),
(1079,1456,l,{
name = ._.105553285793024;
}),
(1079,760,l),
(311,760,l),
(311,1456,l,{
name = ._.105553285793264;
}),
(221,1456,l,{
name = ._.105553285793344;
}),
(221,0,l,{
name = ._.105553285793424;
}),
(311,0,l),
(311,690,l),
(1079,690,l),
(1079,0,l),
(1167,0,l)
);
}
);
width = 1388;
}
);
unicode = 72;
},
{
glyphname = I;
lastChange = "2024-05-25 11:48:25 +0000";
layers = (
{
layerId = "4EE6A762-B31F-492D-BAD7-A15389DCB08F";
shapes = (
{
closed = 1;
nodes = (
(467,1456,l,{
name = ._.105553285794224;
}),
(155,1456,l,{
name = ._.105553285794384;
}),
(155,0,l,{
name = ._.105553285794464;
}),
(467,0,l)
);
}
);
width = 622;
},
{
layerId = "7B7CA763-6202-4B35-9FCB-B97398BB2D53";
shapes = (
{
closed = 1;
nodes = (
(393,1456,l),
(189,1456,l),
(189,0,l),
(393,0,l)
);
}
);
width = 583;
},
{
layerId = "80A40485-F9FE-43F8-8BB8-E239AA3B9F7E";
shapes = (
{
closed = 1;
nodes = (
(366,1456,l,{
name = ._.105553285795664;
}),
(202,1456,l,{
name = ._.105553285795824;
}),
(202,0,l,{
name = ._.105553285795904;
}),
(366,0,l)
);
}
);
width = 568;
},
{
layerId = "557D07FA-4833-462F-859E-332980C518A5";
shapes = (
{
closed = 1;
nodes = (
(311,1456,l,{
name = ._.105553285796384;
}),
(221,1456,l,{
name = ._.105553285796544;
}),
(221,0,l,{
name = ._.105553285796624;
}),
(311,0,l)
);
}
);
width = 532;
}
);
unicode = 73;
},
{
glyphname = Iacute;
lastChange = "2024-05-25 11:48:25 +0000";
layers = (
{
associatedMasterId = "557D07FA-4833-462F-859E-332980C518A5";
layerId = "8B9C2315-63B1-430F-AFCA-A7E2B0E3FB05";
name = img;
width = 532;
},
{
guides = (
{
pos = (0,1879);
}
);
layerId = "4EE6A762-B31F-492D-BAD7-A15389DCB08F";
shapes = (
{
closed = 1;
nodes = (
(467,1456,l,{
name = ._.105553419652544;
}),
(467,0,l,{
name = ._.105553419652704;
}),
(155,0,l,{
name = ._.105553419652784;
}),
(155,1456,l)
);
},
{
closed = 1;
nodes = (
(368,1880,l,{
name = ._.105553419652944;
}),
(794,1880,l),
(365,1585,l),
(99,1585,l)
);
}
);
width = 622;
},
{
layerId = "7B7CA763-6202-4B35-9FCB-B97398BB2D53";
shapes = (
{
closed = 1;
nodes = (
(393,1456,l),
(393,0,l),
(189,0,l),
(189,1456,l)
);
},
{
closed = 1;
nodes = (
(430,1879,l),
(738,1879,l),
(298,1585,l),
(121,1585,l)
);
}
);
width = 583;
},
{
layerId = "80A40485-F9FE-43F8-8BB8-E239AA3B9F7E";
shapes = (
{
closed = 1;
nodes = (
(366,1456,l,{
name = ._.105553419655904;
}),
(366,0,l,{
name = ._.105553419656064;
}),
(202,0,l,{
name = ._.105553419656144;
}),
(202,1456,l)
);
},
{
closed = 1;
nodes = (
(454,1879,l,{
name = ._.105553419656304;
}),
(718,1879,l),
(273,1585,l),
(130,1585,l)
);
}
);
width = 568;
},
{
guides = (
{
pos = (0,1878);
}
);
layerId = "557D07FA-4833-462F-859E-332980C518A5";
shapes = (
{
closed = 1;
nodes = (
(311,1456,l,{
name = ._.105553419657264;
}),
(311,0,l,{
name = ._.105553419657424;
}),
(221,0,l,{
name = ._.105553419657504;
}),
(221,1456,l)
);
},
{
closed = 1;
nodes = (
(512,1878,l,{
name = ._.105553419657664;
}),
(671,1878,l),
(223,1585,l),
(142,1585,l)
);
}
);
width = 532;
}
);
unicode = 205;
},
{
glyphname = Icircumflex;
lastChange = "2024-05-25 11:48:25 +0000";
layers = (
{
associatedMasterId = "557D07FA-4833-462F-859E-332980C518A5";
layerId = "8B9C2315-63B1-430F-AFCA-A7E2B0E3FB05";
name = img;
width = 532;
},
{
guides = (
{
pos = (0,1585);
}
);
layerId = "4EE6A762-B31F-492D-BAD7-A15389DCB08F";
shapes = (
{
closed = 1;
nodes = (
(435,1879,l,{
name = ._.105553419659424;
}),
(187,1879,l),
(-132,1585,l),
(121,1585,l),
(310,1691,l),
(501,1585,l),
(754,1585,l)
);
},
{
closed = 1;
nodes = (
(467,1456,l,{
name = ._.105553419658704;
}),
(155,1456,l,{
name = ._.105553419658864;
}),
(155,0,l,{
name = ._.105553419658944;
}),
(467,0,l)
);
}
);
width = 622;
},
{
layerId = "7B7CA763-6202-4B35-9FCB-B97398BB2D53";
shapes = (
{
closed = 1;
nodes = (
(374,1878,l),
(205,1878,l),
(-96,1585,l),
(67,1585,l),
(289,1736,l),
(513,1585,l),
(677,1585,l)
);
},
{
closed = 1;
nodes = (
(393,1456,l),
(189,1456,l),
(189,0,l),
(393,0,l)
);
}
);
width = 583;
},
{
layerId = "80A40485-F9FE-43F8-8BB8-E239AA3B9F7E";
shapes = (
{
closed = 1;
nodes = (
(352,1878,l,{
name = ._.105553419661824;
}),
(212,1878,l),
(-82,1585,l),
(47,1585,l),
(282,1752,l),
(518,1585,l),
(649,1585,l)
);
},
{
closed = 1;
nodes = (
(366,1456,l,{
name = ._.105553419661104;
}),
(202,1456,l,{
name = ._.105553419661264;
}),
(202,0,l,{
name = ._.105553419661344;
}),
(366,0,l)
);
}
);
width = 568;
},
{
layerId = "557D07FA-4833-462F-859E-332980C518A5";
shapes = (
{
closed = 1;
nodes = (
(292,1879,l,{
name = ._.105553419663264;
}),
(235,1879,l),
(-60,1587,l),
(7,1587,l),
(264,1790,l),
(521,1587,l),
(588,1587,l)
);
},
{
closed = 1;
nodes = (
(311,1456,l,{
name = ._.105553419662544;
}),
(221,1456,l,{
name = ._.105553419662704;
}),
(221,0,l,{
name = ._.105553419662784;
}),
(311,0,l)
);
}
);
width = 532;
}
);
unicode = 206;
},
{
color = (153,254,255,255);
glyphname = Imacron;
kernLeft = _Itilde;
kernRight = _Itilde;
lastChange = "2024-05-25 11:48:25 +0000";
layers = (
{
guides = (
{
pos = (0,1587);
},
{
pos = (0,1898);
},
{
angle = 90;
pos = (311.5,0);
},
{
pos = (0,1587);
},
{
pos = (0,1898);
},
{
angle = 90;
pos = (311,0);
}
);
layerId = "4EE6A762-B31F-492D-BAD7-A15389DCB08F";
shapes = (
{
closed = 1;
nodes = (
(636,1833,l),
(-15,1833,l),
(-15,1635,l),
(636,1635,l)
);
},
{
alignment = -1;
ref = I;
}
);
width = 622;
},
{
layerId = "7B7CA763-6202-4B35-9FCB-B97398BB2D53";
shapes = (
{
closed = 1;
nodes = (
(573,1810,l),
(8,1810,l),
(8,1663,l),
(573,1663,l)
);
},
{
alignment = -1;
ref = I;
}
);
width = 583;
},
{
guides = (
{
pos = (0,2043);
},
{
pos = (0,2005);
},
{
angle = 90;
pos = (283.5,0);
},
{
pos = (0,2043);
},
{
pos = (0,2005);
},
{
angle = 90;
pos = (283,0);
}
);
layerId = "80A40485-F9FE-43F8-8BB8-E239AA3B9F7E";
shapes = (
{
closed = 1;
nodes = (
(550,1800,l),
(17,1800,l),
(17,1675,l),
(550,1675,l)
);
},
{
alignment = -1;
ref = I;
}
);
width = 568;
},
{
guides = (
{
angle = 90;
pos = (261.5,0);
},
{
angle = 90;
pos = (261,0);
}
);
layerId = "557D07FA-4833-462F-859E-332980C518A5";
shapes = (
{
closed = 1;
nodes = (
(487,1775,l),
(44,1775,l),
(44,1703,l),
(487,1703,l)
);
},
{
alignment = -1;
ref = I;
}
);
width = 532;
}
);
unicode = 298;
},
{
glyphname = J;
lastChange = "2024-05-28 21:43:20 +0000";
layers = (
{
guides = (
{
pos = (0,297);
}
);
layerId = "4EE6A762-B31F-492D-BAD7-A15389DCB08F";
shapes = (
{
closed = 1;
nodes = (
(476,450,ls,{
name = ._.105553285797264;
}),
(476,360,o),
(438,222,o),
(311,222,cs,{
name = ._.105553285797584;
}),
(217,222,o),
(123,298,o),
(106,317,c),
(-10,127,l),
(12,112,o),
(139,-21,o),
(371,-21,cs,{
name = ._.105553285798144;
}),
(639,-21,o),
(786,170,o),
(786,450,cs,{
name = ._.105553285798384;
}),
(786,1456,l,{
name = ._.105553285798464;
}),
(476,1456,l)
);
}
);
width = 916;
},
{
layerId = "7B7CA763-6202-4B35-9FCB-B97398BB2D53";
shapes = (
{
closed = 1;
nodes = (
(571,411,ls),
(571,245,o),
(502,141,o),
(370,141,cs),
(254,141,o),
(135,226,o),
(81,285,c),
(-4,157,l),
(81,68,o),
(212,-21,o),
(394,-21,cs),
(605,-21,o),
(774,108,o),
(774,411,cs),
(774,1456,l),
(571,1456,l)
);
}
);
width = 945;
},
{
layerId = "80A40485-F9FE-43F8-8BB8-E239AA3B9F7E";
shapes = (
{
closed = 1;
nodes = (
(606,397,ls,{
name = ._.105553285799584;
}),
(606,203,o),
(526,111,o),
(391,111,cs,{
name = ._.105553285799904;
}),
(267,111,o),
(139,199,o),
(72,273,c),
(-2,168,l),
(106,52,o),
(239,-21,o),
(402,-21,cs,{
name = ._.105553285800464;
}),
(593,-21,o),
(770,85,o),
(770,397,cs,{
name = ._.105553285800704;
}),
(770,1456,l,{
name = ._.105553285800784;
}),
(606,1456,l)
);
}
);
width = 956;
},
{
guides = (
{
pos = (0,43);
}
);
layerId = "557D07FA-4833-462F-859E-332980C518A5";
shapes = (
{
closed = 1;
nodes = (
(651,370,ls,{
name = ._.105553285801344;
}),
(651,124,o),
(557,53,o),
(416,53,cs),
(256,53,o),
(98,193,o),
(69,224,c),
(32,169,l),
(105,92,o),
(247,-21,o),
(421,-21,cs,{
name = ._.105553285802224;
}),
(569,-21,o),
(741,42,o),
(741,370,cs,{
name = ._.105553285802464;
}),
(741,1456,l,{
name = ._.105553285802544;
}),
(651,1456,l)
);
}
);
width = 962;
}
);
unicode = 74;
},
{
glyphname = K;
lastChange = "2024-05-25 11:48:25 +0000";
layers = (
{
guides = (
{
pos = (0,100);
}
);
layerId = "4EE6A762-B31F-492D-BAD7-A15389DCB08F";
shapes = (
{
closed = 1;
nodes = (
(909,0,l,{
name = ._.105553285803264;
}),
(1288,0,l),
(828,794,l),
(1252,1456,l,{
name = ._.105553285803584;
}),
(867,1456,l),
(555,858,l),
(462,858,l),
(462,1456,l,{
name = ._.105553285803904;
}),
(150,1456,l,{
name = ._.105553285803984;
}),
(150,0,l),
(462,0,l),
(462,614,l),
(512,614,ls),
(564,614,o),
(594,601,o),
(626,540,cs)
);
}
);
width = 1253;
},
{
layerId = "7B7CA763-6202-4B35-9FCB-B97398BB2D53";
shapes = (
{
closed = 1;
nodes = (
(991,0,l),
(1245,0,l),
(704,766,l),
(1200,1456,l),
(955,1456,l),
(527,816,l),
(392,816,l),
(392,1456,l),
(188,1456,l),
(188,0,l),
(392,0,l),
(392,657,l),
(488,657,ls),
(534,657,o),
(558,642,o),
(590,594,cs)
);
}
);
width = 1229;
},
{
layerId = "80A40485-F9FE-43F8-8BB8-E239AA3B9F7E";
shapes = (
{
closed = 1;
nodes = (
(1026,0,l,{
name = ._.105553285805664;
}),
(1229,0,l),
(658,756,l),
(1180,1456,l,{
name = ._.105553285805984;
}),
(991,1456,l),
(517,800,l),
(366,800,l,{
name = ._.105553285806224;
}),
(366,1456,l,{
name = ._.105553285806304;
}),
(202,1456,l,{
name = ._.105553285806384;
}),
(202,0,l),
(366,0,l),
(366,673,l,{
name = ._.105553285806624;
}),
(479,673,ls),
(523,673,o),
(544,657,o),
(577,614,c)
);
}
);
width = 1220;
},
{
layerId = "557D07FA-4833-462F-859E-332980C518A5";
shapes = (
{
closed = 1;
nodes = (
(1065,0,l,{
name = ._.105553285807424;
}),
(1184,0,l),
(569,752,l),
(1114,1456,l,{
name = ._.105553285807744;
}),
(1007,1456,l),
(490,772,l),
(311,772,l),
(311,1456,l,{
name = ._.105553285742592;
}),
(221,1456,l,{
name = ._.105553285742672;
}),
(221,0,l),
(311,0,l),
(311,702,l),
(465,702,ls),
(506,702,o),
(524,685,o),
(556,650,c)
);
}
);
width = 1199;
}
);
unicode = 75;
},
{
glyphname = L;
lastChange = "2024-05-25 11:48:25 +0000";
layers = (
{
layerId = "4EE6A762-B31F-492D-BAD7-A15389DCB08F";
shapes = (
{
closed = 1;
nodes = (
(462,1456,l,{
name = ._.105553285743792;
}),
(150,1456,l,{
name = ._.105553285743952;
}),
(150,0,l,{
name = ._.105553285744032;
}),
(1041,0,l),
(1041,243,l),
(462,243,l,{
name = ._.105553285744272;
})
);
}
);
width = 1061;
},
{
layerId = "7B7CA763-6202-4B35-9FCB-B97398BB2D53";
shapes = (
{
closed = 1;
nodes = (
(392,1456,l),
(188,1456,l),
(188,0,l),
(1002,0,l),
(1002,158,l),
(392,158,l)
);
}
);
width = 1030;
},
{
layerId = "80A40485-F9FE-43F8-8BB8-E239AA3B9F7E";
shapes = (
{
closed = 1;
nodes = (
(366,1456,l,{
name = ._.105553285745312;
}),
(202,1456,l,{
name = ._.105553285745472;
}),
(202,0,l,{
name = ._.105553285745552;
}),
(987,0,l),
(987,127,l),
(366,127,l,{
name = ._.105553285745792;
})
);
}
);
width = 1019;
},
{
layerId = "557D07FA-4833-462F-859E-332980C518A5";
shapes = (
{
closed = 1;
nodes = (
(311,1456,l,{
name = ._.105553285746112;
}),
(221,1456,l,{
name = ._.105553285746272;
}),
(221,0,l,{
name = ._.105553285746352;
}),
(958,0,l),
(958,70,l),
(311,70,l)
);
}
);
width = 1009;
}
);
unicode = 76;
},
{
glyphname = Lslash;
lastChange = "2024-05-25 11:48:25 +0000";
layers = (
{
layerId = "4EE6A762-B31F-492D-BAD7-A15389DCB08F";
shapes = (
{
closed = 1;
nodes = (
(484,1456,l,{
name = ._.105553420246208;
}),
(172,1456,l,{
name = ._.105553420246368;
}),
(172,788,l),
(31,727,l,{
name = ._.105553420246528;
}),
(31,479,l),
(172,540,l),
(172,0,l,{
name = ._.105553420246768;
}),
(1063,0,l),
(1063,243,l),
(484,243,l,{
name = ._.105553420247008;
}),
(484,675,l,{
name = ._.105553420247088;
}),
(821,820,l),
(821,1068,l),
(484,923,l)
);
}
);
width = 1083;
},
{
layerId = "7B7CA763-6202-4B35-9FCB-B97398BB2D53";
shapes = (
{
closed = 1;
nodes = (
(398,1456,l),
(194,1456,l),
(194,748,l),
(48,683,l),
(48,522,l),
(194,588,l),
(194,0,l),
(1008,0,l),
(1008,158,l),
(398,158,l),
(398,678,l),
(734,828,l),
(734,988,l),
(398,839,l)
);
}
);
width = 1036;
},
{
layerId = "80A40485-F9FE-43F8-8BB8-E239AA3B9F7E";
shapes = (
{
closed = 1;
nodes = (
(366,1456,l,{
name = ._.105553420248768;
}),
(202,1456,l,{
name = ._.105553420248928;
}),
(202,734,l,{
name = ._.105553420249008;
}),
(54,667,l,{
name = ._.105553420249088;
}),
(54,539,l),
(202,606,l),
(202,0,l,{
name = ._.105553420249328;
}),
(987,0,l),
(987,127,l),
(366,127,l,{
name = ._.105553420249568;
}),
(366,680,l,{
name = ._.105553420249648;
}),
(702,831,l),
(702,959,l,{
name = ._.105553420249808;
}),
(366,808,l)
);
}
);
width = 1019;
},
{
layerId = "557D07FA-4833-462F-859E-332980C518A5";
shapes = (
{
closed = 1;
nodes = (
(311,1456,l,{
name = ._.105553420250368;
}),
(221,1456,l,{
name = ._.105553420250528;
}),
(221,729,l),
(84,667,l),
(84,591,l),
(221,653,l),
(221,0,l,{
name = ._.105553420250928;
}),
(958,0,l),
(958,70,l),
(311,70,l),
(311,695,l),
(630,840,l),
(630,916,l),
(311,771,l)
);
}
);
width = 1009;
}
);
unicode = 321;
},
{
glyphname = M;
lastChange = "2024-05-25 11:48:25 +0000";
layers = (
{
layerId = "4EE6A762-B31F-492D-BAD7-A15389DCB08F";
shapes = (
{
closed = 1;
nodes = (
(150,1456,l,{
name = ._.105553285747232;
}),
(150,0,l,{
name = ._.105553285747392;
}),
(461,0,l),
(461,392,l,{
name = ._.105553285747552;
}),
(426,1052,l),
(432,1053,l),
(750,0,l),
(958,0,l),
(1277,1058,l),
(1283,1057,l),
(1251,392,l),
(1251,0,l,{
name = ._.105553285748192;
}),
(1562,0,l,{
name = ._.105553285748272;
}),
(1562,1456,l),
(1153,1456,l),
(859,412,l),
(853,412,l),
(557,1456,l)
);
}
);
width = 1712;
},
{
layerId = "7B7CA763-6202-4B35-9FCB-B97398BB2D53";
shapes = (
{
closed = 1;
nodes = (
(187,1456,l),
(187,0,l),
(391,0,l),
(391,471,l),
(364,1171,l),
(369,1172,l),
(782,0,l),
(918,0,l),
(1329,1174,l),
(1334,1173,l),
(1310,471,l),
(1310,0,l),
(1514,0,l),
(1514,1456,l),
(1254,1456,l),
(857,275,l),
(851,275,l),
(451,1456,l)
);
}
);
width = 1703;
},
{
layerId = "80A40485-F9FE-43F8-8BB8-E239AA3B9F7E";
shapes = (
{
closed = 1;
nodes = (
(201,1456,l,{
name = ._.105553285750592;
}),
(201,0,l,{
name = ._.105553285750752;
}),
(365,0,l),
(365,500,l,{
name = ._.105553285750912;
}),
(341,1215,l),
(346,1216,l),
(794,0,l),
(903,0,l),
(1349,1217,l),
(1354,1216,l),
(1332,500,l),
(1332,0,l,{
name = ._.105553285751552;
}),
(1496,0,l,{
name = ._.105553285751632;
}),
(1496,1456,l),
(1292,1456,l),
(856,224,l),
(850,224,l),
(412,1456,l)
);
}
);
width = 1699;
},
{
guides = (
{
pos = (0,1277);
}
);
layerId = "557D07FA-4833-462F-859E-332980C518A5";
shapes = (
{
closed = 1;
nodes = (
(221,1456,l,{
name = ._.105553285753152;
}),
(221,0,l,{
name = ._.105553285753312;
}),
(311,0,l),
(311,366,l,{
name = ._.105553285753472;
}),
(293,1323,l),
(298,1323,l),
(808,0,l),
(871,0,l),
(1376,1323,l),
(1380,1323,l),
(1367,367,l),
(1367,0,l,{
name = ._.105553285754112;
}),
(1457,0,l,{
name = ._.105553285754192;
}),
(1457,1456,l),
(1349,1456,l),
(842,130,l),
(836,130,l),
(328,1456,l)
);
}
);
width = 1678;
}
);
unicode = 77;
},
{
glyphname = N;
lastChange = "2024-05-25 11:48:25 +0000";
layers = (
{
layerId = "4EE6A762-B31F-492D-BAD7-A15389DCB08F";
shapes = (
{
closed = 1;
nodes = (
(1267,0,l,{
name = ._.105553285755632;
}),
(957,0,l,{
name = ._.105553285755792;
}),
(421,1021,l),
(415,1019,l),
(462,389,l),
(462,0,l,{
name = ._.105553285756112;
}),
(150,0,l,{
name = ._.105553285756192;
}),
(150,1456,l,{
name = ._.105553285756272;
}),
(462,1456,l),
(999,427,l),
(1005,429,l),
(957,1079,l),
(957,1456,l),
(1267,1456,l)
);
}
);
width = 1417;
},
{
layerId = "7B7CA763-6202-4B35-9FCB-B97398BB2D53";
shapes = (
{
closed = 1;
nodes = (
(1223,0,l),
(1020,0,l),
(369,1160,l),
(365,1158,l),
(392,531,l),
(392,0,l),
(188,0,l),
(188,1456,l),
(392,1456,l),
(1045,294,l),
(1050,295,l),
(1019,946,l),
(1019,1456,l),
(1223,1456,l)
);
}
);
width = 1410;
},
{
layerId = "80A40485-F9FE-43F8-8BB8-E239AA3B9F7E";
shapes = (
{
closed = 1;
nodes = (
(1206,0,l,{
name = ._.105553285758752;
}),
(1043,0,l),
(350,1211,l),
(346,1210,l),
(366,584,l),
(366,0,l,{
name = ._.105553285790960;
}),
(202,0,l,{
name = ._.105553285840752;
}),
(202,1456,l,{
name = ._.105553285840672;
}),
(366,1456,l),
(1061,245,l),
(1066,246,l),
(1042,897,l),
(1042,1456,l,{
name = ._.105553285694240;
}),
(1206,1456,l,{
name = ._.105553285708000;
})
);
}
);
width = 1408;
},
{
guides = (
{
angle = 90;
pos = (-1526,0);
}
);
layerId = "557D07FA-4833-462F-859E-332980C518A5";
shapes = (
{
closed = 1;
nodes = (
(1168,0,l,{
name = ._.105553285697040;
}),
(1083,0,l),
(304,1326,l),
(301,1326,l),
(311,617,l),
(311,0,l,{
name = ._.105553285716224;
}),
(221,0,l,{
name = ._.105553287619968;
}),
(221,1456,l,{
name = ._.105553287619888;
}),
(312,1456,l),
(1088,133,l),
(1090,133,l),
(1080,861,l),
(1080,1456,l,{
name = ._.105553289309600;
}),
(1168,1456,l,{
name = ._.105553289282976;
})
);
}
);
width = 1389;
}
);
unicode = 78;
},
{
glyphname = O;
kernLeft = _O;
kernRight = _O;
lastChange = "2024-05-28 22:01:11 +0000";
layers = (
{
anchors = (
{
name = top;
pos = (653,1456);
}
);
layerId = "4EE6A762-B31F-492D-BAD7-A15389DCB08F";
shapes = (
{
closed = 1;
nodes = (
(1216,795,ls),
(1216,1219,o),
(1043,1477,o),
(652,1477,cs,{
name = ._.105553290213840;
}),
(299,1477,o),
(90,1223,o),
(90,744,cs,{
name = ._.105553290213440;
}),
(90,660,ls),
(90,212,o),
(325,-21,o),
(654,-21,cs,{
name = ._.105553290213120;
}),
(981,-21,o),
(1216,212,o),
(1216,660,cs,{
name = ._.105553290208960;
})
);
},
{
closed = 1;
nodes = (
(904,694,ls),
(904,360,o),
(819,223,o),
(654,223,cs,{
name = ._.105553290209680;
}),
(484,223,o),
(401,362,o),
(401,694,cs),
(401,763,ls,{
name = ._.105553290263552;
}),
(401,1093,o),
(482,1232,o),
(652,1232,cs,{
name = ._.105553290249152;
}),
(806,1232,o),
(904,1102,o),
(904,797,cs)
);
}
);
width = 1306;
},
{
anchors = (
{
name = top;
pos = (657,1456);
}
);
layerId = "7B7CA763-6202-4B35-9FCB-B97398BB2D53";
shapes = (
{
closed = 1;
nodes = (
(1202,792,ls),
(1202,1227,o),
(998,1477,o),
(655,1477,cs),
(317,1477,o),
(118,1222,o),
(118,759,cs),
(118,655,ls),
(118,216,o),
(337,-21,o),
(656,-21,cs),
(978,-21,o),
(1202,216,o),
(1202,655,cs)
);
},
{
closed = 1;
nodes = (
(997,667,ls),
(997,319,o),
(871,139,o),
(656,139,cs),
(432,139,o),
(322,337,o),
(322,696,cs),
(322,783,ls),
(322,1140,o),
(449,1317,o),
(655,1317,cs),
(862,1317,o),
(997,1142,o),
(997,792,cs)
);
}
);
width = 1320;
},
{
anchors = (
{
name = top;
pos = (657,1456);
}
);
guides = (
{
angle = 90;
pos = (657,0);
}
);
layerId = "80A40485-F9FE-43F8-8BB8-E239AA3B9F7E";
shapes = (
{
closed = 1;
nodes = (
(1197,791,ls),
(1197,1230,o),
(982,1477,o),
(657,1477,cs,{
name = ._.105553290048720;
}),
(324,1477,o),
(128,1221,o),
(128,764,cs,{
name = ._.105553290038400;
}),
(128,653,ls),
(128,218,o),
(342,-21,o),
(657,-21,cs,{
name = ._.105553290040960;
}),
(978,-21,o),
(1197,218,o),
(1197,653,cs,{
name = ._.105553290036800;
})
);
},
{
closed = 1;
nodes = (
(1032,657,ls),
(1032,304,o),
(891,108,o),
(657,108,cs,{
name = ._.105553290048880;
}),
(413,108,o),
(293,328,o),
(293,696,cs),
(293,790,ls,{
name = ._.105553290050240;
}),
(293,1157,o),
(437,1348,o),
(657,1348,cs,{
name = ._.105553290050800;
}),
(883,1348,o),
(1032,1157,o),
(1032,790,cs)
);
}
);
width = 1325;
},
{
anchors = (
{
name = top;
pos = (672,1456);
}
);
guides = (
{
pos = (0,1577);
},
{
pos = (0,-187);
},
{
pos = (0,727);
},
{
angle = 90;
pos = (161,0);
},
{
angle = 90;
pos = (1181,0);
},
{
angle = 90;
pos = (673,0);
}
);
layerId = "557D07FA-4833-462F-859E-332980C518A5";
shapes = (
{
closed = 1;
nodes = (
(1202,769,ls),
(1202,1214,o),
(995,1477,o),
(672,1477,cs,{
name = ._.105553290035440;
}),
(349,1477,o),
(142,1214,o),
(142,769,cs,{
name = ._.105553290035840;
}),
(142,655,ls),
(142,227,o),
(363,-21,o),
(672,-21,cs,{
name = ._.105553290042160;
}),
(981,-21,o),
(1202,227,o),
(1202,655,cs,{
name = ._.105553290047040;
})
);
},
{
closed = 1;
nodes = (
(1114,667,ls),
(1114,293,o),
(940,49,o),
(672,49,cs),
(406,49,o),
(230,313,o),
(230,667,cs),
(230,763,ls,{
name = ._.105553290045440;
}),
(230,1190,o),
(426,1407,o),
(672,1407,cs),
(918,1407,o),
(1114,1190,o),
(1114,763,cs)
);
}
);
width = 1344;
}
);
unicode = 79;
},
{
glyphname = Odieresis;
kernLeft = _O;
kernRight = _O;
lastChange = "2024-05-25 11:48:25 +0000";
layers = (
{
associatedMasterId = "557D07FA-4833-462F-859E-332980C518A5";
layerId = "8B9C2315-63B1-430F-AFCA-A7E2B0E3FB05";
name = img;
width = 1344;
},
{
layerId = "4EE6A762-B31F-492D-BAD7-A15389DCB08F";
shapes = (
{
closed = 1;
nodes = (
(1216,795,ls),
(1216,1219,o),
(1043,1477,o),
(652,1477,cs,{
name = ._.105553419644640;
}),
(299,1477,o),
(90,1223,o),
(90,744,cs,{
name = ._.105553419644880;
}),
(90,660,ls),
(90,212,o),
(325,-21,o),
(654,-21,cs,{
name = ._.105553419645200;
}),
(981,-21,o),
(1216,212,o),
(1216,660,cs,{
name = ._.105553419645440;
})
);
},
{
closed = 1;
nodes = (
(904,694,ls,{
name = ._.105553419644080;
}),
(904,360,o),
(819,223,o),
(654,223,cs,{
name = ._.105553419645600;
}),
(484,223,o),
(401,362,o),
(401,694,cs),
(401,763,ls,{
name = ._.105553419645920;
}),
(401,1093,o),
(482,1232,o),
(652,1232,cs,{
name = ._.105553419646160;
}),
(806,1232,o),
(904,1102,o),
(904,797,cs)
);
},
{
closed = 1;
nodes = (
(564,1845,l),
(293,1845,l),
(293,1618,l),
(564,1618,l)
);
},
{
closed = 1;
nodes = (
(1014,1845,l),
(744,1845,l),
(744,1618,l),
(1014,1618,l)
);
}
);
width = 1306;
},
{
layerId = "7B7CA763-6202-4B35-9FCB-B97398BB2D53";
shapes = (
{
closed = 1;
nodes = (
(1202,792,ls),
(1202,1227,o),
(998,1477,o),
(655,1477,cs),
(317,1477,o),
(118,1222,o),
(118,759,cs),
(118,655,ls),
(118,216,o),
(337,-21,o),
(656,-21,cs),
(978,-21,o),
(1202,216,o),
(1202,655,cs)
);
},
{
closed = 1;
nodes = (
(997,667,ls),
(997,319,o),
(871,139,o),
(656,139,cs),
(432,139,o),
(322,337,o),
(322,696,cs),
(322,783,ls),
(322,1140,o),
(449,1317,o),
(655,1317,cs),
(862,1317,o),
(997,1142,o),
(997,792,cs)
);
},
{
closed = 1;
nodes = (
(550,1822,l),
(359,1822,l),
(359,1640,l),
(550,1640,l)
);
},
{
closed = 1;
nodes = (
(962,1822,l),
(772,1822,l),
(772,1640,l),
(962,1640,l)
);
}
);
width = 1320;
},
{
layerId = "80A40485-F9FE-43F8-8BB8-E239AA3B9F7E";
shapes = (
{
closed = 1;
nodes = (
(1197,791,ls),
(1197,1230,o),
(982,1477,o),
(657,1477,cs,{
name = ._.105553419684272;
}),
(324,1477,o),
(128,1221,o),
(128,764,cs,{
name = ._.105553419684512;
}),
(128,653,ls),
(128,218,o),
(342,-21,o),
(657,-21,cs,{
name = ._.105553419684832;
}),
(978,-21,o),
(1197,218,o),
(1197,653,cs,{
name = ._.105553419685072;
})
);
},
{
closed = 1;
nodes = (
(1032,657,ls,{
name = ._.105553419683712;
}),
(1032,304,o),
(891,108,o),
(657,108,cs,{
name = ._.105553419685232;
}),
(413,108,o),
(293,328,o),
(293,696,cs),
(293,790,ls,{
name = ._.105553419685552;
}),
(293,1157,o),
(437,1348,o),
(657,1348,cs,{
name = ._.105553419685792;
}),
(883,1348,o),
(1032,1157,o),
(1032,790,cs)
);
},
{
closed = 1;
nodes = (
(547,1817,l),
(385,1817,l),
(385,1652,l),
(547,1652,l)
);
},
{
closed = 1;
nodes = (
(943,1817,l),
(783,1817,l),
(783,1652,l),
(943,1652,l)
);
}
);
width = 1325;
},
{
guides = (
{
pos = (0,1736);
},
{
pos = (0,1577);
},
{
pos = (0,-187);
},
{
pos = (0,727);
},
{
angle = 90;
pos = (161,0);
},
{
angle = 90;
pos = (1181,0);
},
{
angle = 90;
pos = (673,0);
}
);
layerId = "557D07FA-4833-462F-859E-332980C518A5";
shapes = (
{
closed = 1;
nodes = (
(1202,769,ls),
(1202,1214,o),
(995,1477,o),
(672,1477,cs,{
name = ._.105553419688672;
}),
(349,1477,o),
(142,1214,o),
(142,769,cs,{
name = ._.105553419688912;
}),
(142,655,ls),
(142,227,o),
(363,-21,o),
(672,-21,cs,{
name = ._.105553419689232;
}),
(981,-21,o),
(1202,227,o),
(1202,655,cs,{
name = ._.105553419689472;
})
);
},
{
closed = 1;
nodes = (
(1114,667,ls,{
name = ._.105553419686992;
}),
(1114,293,o),
(940,49,o),
(672,49,cs),
(406,49,o),
(230,313,o),
(230,667,cs),
(230,763,ls,{
name = ._.105553419689952;
}),
(230,1190,o),
(426,1407,o),
(672,1407,cs,{
name = ._.105553419690192;
}),
(918,1407,o),
(1114,1190,o),
(1114,763,cs)
);
},
{
closed = 1;
nodes = (
(559,1792,l),
(467,1792,l),
(467,1682,l),
(559,1682,l)
);
},
{
closed = 1;
nodes = (
(887,1792,l),
(795,1792,l),
(795,1682,l),
(887,1682,l)
);
}
);
width = 1344;
}
);
unicode = 214;
},
{
color = 3;
glyphname = Oslash;
kernLeft = _O;
kernRight = _O;
lastChange = "2025-07-18 18:38:10 +0000";
layers = (
{
guides = (
{
pos = (0,1587);
},
{
pos = (0,-137);
}
);
layerId = "4EE6A762-B31F-492D-BAD7-A15389DCB08F";
shapes = (
{
closed = 1;
nodes = (
(1216,795,ls),
(1216,1032,o),
(1162,1218,o),
(1045,1335,c),
(1165,1587,l,{
name = ._.105553357314304;
}),
(912,1587,l),
(847,1451,l),
(789,1468,o),
(724,1477,o),
(652,1477,cs,{
name = hr01;
}),
(299,1477,o),
(90,1223,o),
(90,744,cs,{
name = ._.105553357314944;
}),
(90,660,ls),
(90,402,o),
(168,216,o),
(296,104,c),
(182,-137,l,{
name = ._.105553357315344;
}),
(435,-137,l),
(499,-2,l),
(548,-14,o),
(599,-21,o),
(654,-21,cs,{
name = hr02;
}),
(981,-21,o),
(1216,212,o),
(1216,660,cs,{
name = ._.105553357315984;
})
);
},
{
closed = 1;
nodes = (
(904,694,ls,{
name = ._.105553357313344;
}),
(904,360,o),
(819,223,o),
(654,223,cs,{
name = ._.105553357316224;
}),
(484,223,o),
(401,362,o),
(401,694,cs),
(401,763,ls,{
name = ._.105553357316544;
}),
(401,1093,o),
(482,1232,o),
(652,1232,cs,{
name = ._.105553357316784;
}),
(806,1232,o),
(904,1102,o),
(904,797,cs)
);
}
);
width = 1306;
},
{
layerId = "7B7CA763-6202-4B35-9FCB-B97398BB2D53";
shapes = (
{
closed = 1;
nodes = (
(1202,792,ls),
(1202,1021,o),
(1143,1202,o),
(1038,1319,c),
(1171,1586,l),
(986,1586,l),
(902,1417,l),
(831,1456,o),
(748,1477,o),
(656,1477,cs),
(317,1477,o),
(118,1221,o),
(118,758,cs),
(118,655,ls),
(118,415,o),
(186,233,o),
(298,119,c),
(171,-137,l),
(356,-137,l),
(438,27,l),
(503,-4,o),
(576,-21,o),
(656,-21,cs),
(979,-21,o),
(1202,216,o),
(1202,655,cs)
);
},
{
closed = 1;
nodes = (
(999,667,ls),
(999,319,o),
(872,139,o),
(656,139,cs),
(432,139,o),
(320,337,o),
(320,695,cs),
(320,783,ls),
(320,1140,o),
(449,1315,o),
(656,1315,cs),
(862,1315,o),
(999,1142,o),
(999,792,cs)
);
}
);
width = 1320;
},
{
layerId = "80A40485-F9FE-43F8-8BB8-E239AA3B9F7E";
shapes = (
{
closed = 1;
nodes = (
(1197,791,ls),
(1197,1017,o),
(1136,1197,o),
(1036,1313,c),
(1173,1586,l,{
name = ._.105553357319664;
}),
(1013,1586,l),
(922,1405,l),
(847,1451,o),
(757,1477,o),
(657,1477,cs,{
name = hr01;
}),
(324,1477,o),
(128,1221,o),
(128,764,cs,{
name = ._.105553357320304;
}),
(128,653,ls),
(128,420,o),
(193,239,o),
(298,125,c),
(166,-137,l,{
name = ._.105553357320704;
}),
(327,-137,l),
(415,38,l),
(486,0,o),
(567,-21,o),
(657,-21,cs,{
name = hr02;
}),
(978,-21,o),
(1197,218,o),
(1197,653,cs,{
name = ._.105553357321344;
})
);
},
{
closed = 1;
nodes = (
(1034,657,ls,{
name = ._.105553357319104;
}),
(1034,304,o),
(891,108,o),
(657,108,cs),
(413,108,o),
(290,328,o),
(290,696,cs),
(290,790,ls,{
name = ._.105553357321904;
}),
(290,1157,o),
(437,1346,o),
(657,1346,cs),
(883,1346,o),
(1034,1157,o),
(1034,790,cs)
);
}
);
width = 1325;
},
{
guides = (
{
pos = (0,2190);
}
);
layerId = "557D07FA-4833-462F-859E-332980C518A5";
shapes = (
{
closed = 1;
nodes = (
(1202,769,ls),
(1202,995,o),
(1137,1188,o),
(1042,1309,c),
(1184,1585,l,{
name = ._.105553357323824;
}),
(1096,1585,l),
(985,1366,l),
(902,1436,o),
(793,1477,o),
(672,1477,cs,{
name = ._.105553357340128;
}),
(349,1477,o),
(142,1214,o),
(142,769,cs,{
name = ._.105553357357136;
}),
(142,655,ls),
(142,429,o),
(214,241,o),
(318,126,c),
(181,-137,l,{
name = ._.105553357357536;
}),
(274,-137,l),
(380,70,l),
(461,11,o),
(562,-21,o),
(672,-21,cs,{
name = ._.105553357357936;
}),
(981,-21,o),
(1202,227,o),
(1202,655,cs,{
name = ._.105553357358176;
})
);
},
{
closed = 1;
nodes = (
(1114,667,ls,{
name = ._.105553357358336;
}),
(1114,293,o),
(940,49,o),
(672,49,cs),
(406,49,o),
(230,313,o),
(230,667,cs),
(230,763,ls,{
name = ._.105553357358896;
}),
(230,1190,o),
(426,1407,o),
(672,1407,cs),
(918,1407,o),
(1114,1190,o),
(1114,763,cs)
);
}
);
width = 1344;
},
{
associatedMasterId = "557D07FA-4833-462F-859E-332980C518A5";
attr = {
axisRules = (
{
max = 300;
min = 100;
}
);
};
guides = (
{
pos = (0,2190);
}
);
layerId = "7CB62EA4-CDCA-42AA-B3E4-2CA464A32565";
name = "18 Jul 25 12:50";
shapes = (
{
closed = 1;
nodes = (
(264,-137,l),
(376.449,73.933,l),
(459.1,11.731,o),
(559.743,-21,o),
(672,-21,cs,{
name = ._.105553290042160;
}),
(981,-21,o),
(1202,227,o),
(1202,655,cs,{
name = ._.105553290047040;
}),
(1202,769,ls),
(1202,1007.249,o),
(1142.665,1193.328,o),
(1037.96,1314.808,c),
(1182,1585,l,{
name = ._.105553357323824;
}),
(1099,1585,l),
(983.22,1368.995,l),
(899.259,1439.547,o),
(793.889,1477,o),
(672,1477,cs,{
name = ._.105553290035440;
}),
(349,1477,o),
(142,1214,o),
(142,769,cs,{
name = ._.105553290035840;
}),
(142,655,ls),
(142,421.783,o),
(207.618,242.011,o),
(317.337,126.685,c),
(176,-137,l,{
name = ._.105553357357536;
})
);
},
{
closed = 1;
nodes = (
(573.008,49,o),
(486.481,85.563,o),
(416.851,149.72,c),
(994.174,1232.673,l),
(1068.64,1125.235,o),
(1114,968.418,o),
(1114,763,cs),
(1114,667,ls),
(1114,293,o),
(940,49,o),
(672,49,cs)
);
},
{
closed = 1;
nodes = (
(230,763,ls,{
name = ._.105553290045440;
}),
(230,1190,o),
(426,1407,o),
(672,1407,cs),
(774.615,1407,o),
(868.53,1369.242,o),
(943.148,1294.234,c),
(362.146,210.285,l),
(278.151,321.301,o),
(230,481.839,o),
(230,667,cs)
);
}
);
width = 1344;
},
{
associatedMasterId = "80A40485-F9FE-43F8-8BB8-E239AA3B9F7E";
attr = {
axisRules = (
{
max = 300;
min = 100;
}
);
};
layerId = "9035B480-C3F2-4CB4-8B38-E38FBB060FDE";
name = "18 Jul 25 12:50";
shapes = (
{
closed = 1;
nodes = (
(313,-137,l),
(402.491,43.132,l),
(476.056,0.771,o),
(561.928,-21,o),
(657,-21,cs,{
name = ._.105553290040960;
}),
(978,-21,o),
(1197,218,o),
(1197,653,cs,{
name = ._.105553290036800;
}),
(1197,791,ls),
(1197,1021.332,o),
(1137.814,1198.81,o),
(1034.608,1315.489,c),
(1169,1586,l,{
name = ._.105553357319664;
}),
(1027,1586,l),
(934.943,1400.92,l),
(856.257,1451.014,o),
(762.415,1477,o),
(657,1477,cs,{
name = ._.105553290048720;
}),
(324,1477,o),
(128,1221,o),
(128,764,cs,{
name = ._.105553290038400;
}),
(128,653,ls),
(128,416.348,o),
(191.337,237.705,o),
(299.816,123.995,c),
(170,-137,l,{
name = ._.105553357320704;
})
);
},
{
closed = 1;
nodes = (
(581.168,108,o),
(517.313,129.249,o),
(465.315,169.587,c),
(957.441,1160.164,l),
(1005.33,1069.037,o),
(1032,945.27,o),
(1032,790,cs),
(1032,657,ls),
(1032,304,o),
(891,108,o),
(657,108,cs,{
name = ._.105553290048880;
})
);
},
{
closed = 1;
nodes = (
(293,790,ls,{
name = ._.105553290050240;
}),
(293,1157,o),
(437,1348,o),
(657,1348,cs,{
name = ._.105553290050800;
}),
(739.761,1348,o),
(812.195,1322.387,o),
(870.769,1271.897,c),
(375.967,277.098,l),
(320.509,377.535,o),
(293,519.803,o),
(293,696,cs)
);
}
);
width = 1325;
},
{
associatedMasterId = "7B7CA763-6202-4B35-9FCB-B97398BB2D53";
attr = {
axisRules = (
{
max = 300;
min = 100;
}
);
};
layerId = "878E64B9-5E24-4670-B145-0C37AD2A4DCE";
name = "18 Jul 25 12:50";
shapes = (
{
closed = 1;
nodes = (
(344,-137,l),
(423.457,29.347,l),
(492.27,-3.993,o),
(570.547,-21,o),
(656,-21,cs),
(978,-21,o),
(1202,216,o),
(1202,655,cs),
(1202,792,ls),
(1202,1022.905,o),
(1144.52,1201.683,o),
(1039.281,1318.613,c),
(1167,1586,l),
(994,1586,l),
(913.421,1417.303,l),
(839.636,1456.596,o),
(752.99,1477,o),
(655,1477,cs),
(317,1477,o),
(118,1222,o),
(118,759,cs),
(118,655,ls),
(118,415.137,o),
(183.38,235.578,o),
(294.728,122.033,c),
(171,-137,l)
);
},
{
closed = 1;
nodes = (
(594.379,139,o),
(541.386,153.984,o),
(496.936,183.181,c),
(942.041,1115.036,l),
(977.53,1032.596,o),
(997,924.917,o),
(997,792,cs),
(997,667,ls),
(997,319,o),
(871,139,o),
(656,139,cs)
);
},
{
closed = 1;
nodes = (
(322,783,ls),
(322,1140,o),
(449,1317,o),
(655,1317,cs),
(724.658,1317,o),
(786.163,1297.183,o),
(837.114,1257.549,c),
(387.455,316.161,l),
(343.701,408.85,o),
(322,536.543,o),
(322,696,cs)
);
}
);
width = 1320;
},
{
associatedMasterId = "4EE6A762-B31F-492D-BAD7-A15389DCB08F";
attr = {
axisRules = (
{
max = 300;
min = 100;
}
);
};
guides = (
{
pos = (0,1587);
},
{
pos = (0,-137);
}
);
layerId = "7C9DB8A6-34BF-4EAF-BA04-DBC34B03F3D8";
name = "18 Jul 25 12:50";
shapes = (
{
closed = 1;
nodes = (
(411,-137,l),
(472.281,5.768,l),
(528.526,-12.032,o),
(589.454,-21,o),
(654,-21,cs,{
name = ._.105553290213120;
}),
(981,-21,o),
(1216,212,o),
(1216,660,cs,{
name = ._.105553290208960;
}),
(1216,795,ls),
(1216,1033.631,o),
(1161.202,1219.68,o),
(1043.583,1336.748,c),
(1151,1587,l,{
name = ._.105553357314304;
}),
(908,1587,l),
(849.351,1450.363,l),
(791.043,1467.918,o),
(725.358,1477,o),
(652,1477,cs,{
name = ._.105553290213840;
}),
(299,1477,o),
(90,1223,o),
(90,744,cs,{
name = ._.105553290213440;
}),
(90,660,ls),
(90,414.562,o),
(160.533,233.655,o),
(278.415,120.238,c),
(168,-137,l,{
name = ._.105553357315344;
})
);
},
{
closed = 1;
nodes = (
(623.691,223,o),
(596.147,227.418,o),
(571.345,236.562,c),
(889.442,977.64,l),
(898.985,926.034,o),
(904,865.995,o),
(904,797,cs),
(904,694,ls),
(904,360,o),
(819,223,o),
(654,223,cs,{
name = ._.105553290209680;
})
);
},
{
closed = 1;
nodes = (
(401,763,ls,{
name = ._.105553290263552;
}),
(401,1093,o),
(482,1232,o),
(652,1232,cs,{
name = ._.105553290249152;
}),
(686.637,1232,o),
(718.441,1225.424,o),
(746.934,1211.759,c),
(421.709,454.073,l),
(407.871,518.929,o),
(401,598.476,o),
(401,694,cs)
);
}
);
width = 1306;
}
);
unicode = 216;
},
{
glyphname = OE;
kernLeft = _O;
kernRight = _E;
lastChange = "2024-05-29 19:51:01 +0000";
layers = (
{
guides = (
{
pos = (0,2257);
}
);
layerId = "4EE6A762-B31F-492D-BAD7-A15389DCB08F";
shapes = (
{
closed = 1;
nodes = (
(736,1232,o),
(836,1206,o),
(859,1196,c,{
name = ._.105553357413648;
}),
(859,259,l),
(845,250,o),
(729,223,o),
(654,223,cs,{
name = ._.105553357413968;
}),
(484,223,o),
(401,362,o),
(401,694,cs),
(401,763,ls,{
name = hr01;
}),
(401,1093,o),
(482,1232,o),
(652,1232,c,{
name = ._.105553357411088;
})
);
},
{
closed = 1;
nodes = (
(1691,874,l),
(1171,874,l,{
name = ._.105553357411648;
}),
(1171,1212,l,{
name = ._.105553357411728;
}),
(1785,1212,l),
(1785,1456,l),
(859,1456,l,{
name = ._.105553357411968;
}),
(807,1466,o),
(718,1477,o),
(652,1477,cs,{
name = ._.105553357412208;
}),
(299,1477,o),
(90,1223,o),
(90,744,cs,{
name = ._.105553357412448;
}),
(90,660,ls),
(90,212,o),
(325,-21,o),
(654,-21,cs,{
name = ._.105553357412768;
}),
(727,-21,o),
(843,-2,o),
(859,0,c,{
name = ._.105553357413008;
}),
(1795,0,l),
(1795,244,l),
(1171,244,l,{
name = ._.105553357413248;
}),
(1171,631,l,{
name = ._.105553357413328;
}),
(1691,631,l)
);
}
);
width = 1866;
},
{
layerId = "7B7CA763-6202-4B35-9FCB-B97398BB2D53";
shapes = (
{
closed = 1;
nodes = (
(771,1317,o),
(864,1291,o),
(890,1278,c),
(890,173,l),
(880,169,o),
(777,139,o),
(665,139,cs),
(448,139,o),
(322,324,o),
(322,698,cs),
(322,787,ls),
(322,1126,o),
(438,1317,o),
(667,1317,cs)
);
},
{
closed = 1;
nodes = (
(1677,834,l),
(1094,834,l),
(1094,1297,l),
(1769,1297,l),
(1769,1456,l),
(890,1456,l),
(857,1462,o),
(763,1477,o),
(662,1477,cs),
(315,1477,o),
(118,1221,o),
(118,755,cs),
(118,652,ls),
(118,224,o),
(329,-21,o),
(662,-21,cs),
(766,-21,o),
(883,-1,o),
(893,0,c),
(1779,0,l),
(1779,159,l),
(1094,159,l),
(1094,676,l),
(1677,676,l)
);
}
);
width = 1862;
},
{
layerId = "80A40485-F9FE-43F8-8BB8-E239AA3B9F7E";
shapes = (
{
closed = 1;
nodes = (
(784,1348,o),
(874,1323,o),
(901,1309,c,{
name = ._.105553357419008;
}),
(901,140,l),
(893,138,o),
(790,108,o),
(665,108,cs,{
name = ._.105553357419328;
}),
(431,108,o),
(293,309,o),
(293,699,cs),
(293,796,ls,{
name = ._.105553357419648;
}),
(293,1138,o),
(422,1348,o),
(673,1348,cs,{
name = ._.105553357416688;
})
);
},
{
closed = 1;
nodes = (
(1671,819,l),
(1065,819,l,{
name = ._.105553357417008;
}),
(1065,1329,l,{
name = ._.105553357417088;
}),
(1762,1329,l),
(1762,1456,l),
(901,1456,l,{
name = ._.105553357417328;
}),
(875,1461,o),
(780,1477,o),
(666,1477,cs,{
name = ._.105553357417568;
}),
(321,1477,o),
(128,1221,o),
(128,758,cs,{
name = ._.105553357417808;
}),
(128,649,ls),
(128,228,o),
(334,-21,o),
(665,-21,cs,{
name = ._.105553357418128;
}),
(780,-21,o),
(897,-1,o),
(905,0,c,{
name = hr01;
}),
(1773,0,l),
(1773,127,l),
(1065,127,l,{
name = ._.105553357418608;
}),
(1065,692,l,{
name = ._.105553357418688;
}),
(1671,692,l)
);
}
);
width = 1861;
},
{
guides = (
{
angle = 90;
pos = (698,0);
}
);
layerId = "557D07FA-4833-462F-859E-332980C518A5";
shapes = (
{
closed = 1;
nodes = (
(828,1402,o),
(888,1382,o),
(917,1366,c,{
name = ._.105553357193216;
}),
(917,81,l),
(910,77,o),
(845,54,o),
(696,54,cs),
(460,54,o),
(230,258,o),
(230,676,cs),
(230,779,ls,{
name = ._.105553357193856;
}),
(230,1133,o),
(382,1402,o),
(718,1402,cs)
);
},
{
closed = 1;
nodes = (
(1640,797,l),
(1007,797,l,{
name = ._.105553357420768;
}),
(1007,1386,l,{
name = ._.105553357420848;
}),
(1743,1386,l),
(1743,1456,l),
(917,1456,l,{
name = ._.105553357421088;
}),
(904,1460,o),
(836,1477,o),
(698,1477,cs,{
name = ._.105553357421328;
}),
(340,1477,o),
(142,1215,o),
(142,750,cs,{
name = ._.105553357421568;
}),
(142,644,ls),
(142,256,o),
(341,-21,o),
(696,-21,cs,{
name = ._.105553357421888;
}),
(831,-21,o),
(919,0,o),
(923,0,cs,{
name = hr01;
}),
(1757,0,l),
(1757,70,l),
(1007,70,l),
(1007,727,l,{
name = ._.105553357422448;
}),
(1640,727,l)
);
}
);
width = 1834;
}
);
unicode = 338;
},
{
glyphname = P;
lastChange = "2024-05-25 11:48:25 +0000";
layers = (
{
layerId = "4EE6A762-B31F-492D-BAD7-A15389DCB08F";
shapes = (
{
closed = 1;
nodes = (
(658,510,ls,{
name = ._.105553290049920;
}),
(979,510,o),
(1215,683,o),
(1215,993,cs,{
name = ._.105553290048960;
}),
(1215,1286,o),
(994,1456,o),
(658,1456,cs,{
name = ._.105553290047840;
}),
(150,1456,l,{
name = ._.105553290048000;
}),
(150,0,l,{
name = ._.105553290047680;
}),
(462,0,l),
(462,510,l)
);
},
{
closed = 1;
nodes = (
(462,1212,l,{
name = ._.105553290038160;
}),
(658,1212,ls,{
name = ._.105553290050080;
}),
(830,1212,o),
(904,1112,o),
(904,981,cs,{
name = ._.105553290046560;
}),
(904,857,o),
(834,754,o),
(658,754,cs,{
name = ._.105553290046480;
}),
(462,754,l)
);
}
);
width = 1245;
},
{
layerId = "7B7CA763-6202-4B35-9FCB-B97398BB2D53";
shapes = (
{
closed = 1;
nodes = (
(674,568,ls),
(972,568,o),
(1156,744,o),
(1156,1011,cs),
(1156,1278,o),
(976,1456,o),
(674,1456,cs),
(188,1456,l),
(188,0,l),
(392,0,l),
(392,568,l)
);
},
{
closed = 1;
nodes = (
(392,1297,l),
(674,1297,ls),
(861,1297,o),
(952,1174,o),
(952,1007,cs),
(952,849,o),
(863,727,o),
(674,727,cs),
(392,727,l)
);
}
);
width = 1199;
},
{
layerId = "80A40485-F9FE-43F8-8BB8-E239AA3B9F7E";
shapes = (
{
closed = 1;
nodes = (
(680,589,ls,{
name = ._.105553290039760;
}),
(970,589,o),
(1135,765,o),
(1135,1018,cs,{
name = ._.105553290039680;
}),
(1135,1275,o),
(970,1456,o),
(680,1456,cs),
(202,1456,l,{
name = ._.105553290037200;
}),
(202,0,l,{
name = ._.105553290036560;
}),
(366,0,l),
(366,589,l)
);
},
{
closed = 1;
nodes = (
(366,1329,l,{
name = ._.105553290040000;
}),
(680,1329,ls),
(873,1329,o),
(970,1197,o),
(970,1017,cs,{
name = ._.105553290007552;
}),
(970,846,o),
(874,716,o),
(680,716,cs,{
name = ._.105553290002912;
}),
(366,716,l)
);
}
);
width = 1182;
},
{
guides = (
{
pos = (0,648);
}
);
layerId = "557D07FA-4833-462F-859E-332980C518A5";
shapes = (
{
closed = 1;
nodes = (
(649,608,ls,{
name = ._.105553290002672;
}),
(939,608,o),
(1088,791,o),
(1088,1021,cs,{
name = ._.105553290002432;
}),
(1088,1270,o),
(939,1456,o),
(649,1456,cs,{
name = ._.105553290004432;
}),
(221,1456,l,{
name = ._.105553290004512;
}),
(221,0,l,{
name = ._.105553290004592;
}),
(311,0,l),
(311,608,l)
);
},
{
closed = 1;
nodes = (
(311,1386,l,{
name = ._.105553290002992;
}),
(649,1386,ls),
(876,1386,o),
(1001,1240,o),
(1001,1021,cs,{
name = ._.105553290004112;
}),
(1001,827,o),
(877,678,o),
(649,678,cs),
(311,678,l)
);
}
);
width = 1168;
}
);
unicode = 80;
},
{
glyphname = Thorn;
lastChange = "2024-05-25 11:48:25 +0000";
layers = (
{
layerId = "4EE6A762-B31F-492D-BAD7-A15389DCB08F";
shapes = (
{
closed = 1;
nodes = (
(150,1456,l,{
name = ._.105553357360336;
}),
(150,0,l,{
name = ._.105553357360496;
}),
(462,0,l),
(462,283,l,{
name = ._.105553357360656;
}),
(643,283,ls),
(970,283,o),
(1159,467,o),
(1159,738,cs,{
name = ._.105553357360976;
}),
(1159,1008,o),
(969,1193,o),
(643,1193,cs),
(462,1193,l,{
name = ._.105553357361296;
}),
(462,1456,l,{
name = ._.105553357361376;
})
);
},
{
closed = 1;
nodes = (
(643,949,l),
(781,949,o),
(847,855,o),
(847,736,cs,{
name = ._.105553357361696;
}),
(847,619,o),
(783,526,o),
(643,526,cs),
(462,526,l,{
name = ._.105553357362016;
}),
(462,950,l,{
name = ._.105553357362096;
})
);
}
);
width = 1189;
},
{
layerId = "7B7CA763-6202-4B35-9FCB-B97398BB2D53";
shapes = (
{
closed = 1;
nodes = (
(188,1455,l),
(188,0,l),
(392,0,l),
(392,306,l),
(638,306,ls),
(938,306,o),
(1110,482,o),
(1110,735,cs),
(1110,991,o),
(939,1169,o),
(638,1169,cs),
(392,1169,l),
(392,1455,l)
);
},
{
closed = 1;
nodes = (
(638,1011,ls),
(816,1011,o),
(905,891,o),
(905,734,cs),
(905,583,o),
(818,464,o),
(638,464,cs),
(392,464,l),
(392,1011,l)
);
}
);
width = 1154;
},
{
layerId = "80A40485-F9FE-43F8-8BB8-E239AA3B9F7E";
shapes = (
{
closed = 1;
nodes = (
(202,1456,l,{
name = ._.105553357364256;
}),
(202,0,l,{
name = ._.105553357364416;
}),
(366,0,l),
(366,314,l,{
name = ._.105553357364576;
}),
(637,314,ls),
(927,314,o),
(1092,488,o),
(1092,734,cs,{
name = ._.105553357364896;
}),
(1092,985,o),
(928,1161,o),
(637,1161,cs,{
name = ._.105553357365136;
}),
(366,1161,l),
(366,1456,l,{
name = ._.105553357365296;
})
);
},
{
closed = 1;
nodes = (
(637,1034,ls,{
name = ._.105553357364176;
}),
(830,1034,o),
(927,905,o),
(927,733,cs,{
name = ._.105553357365616;
}),
(927,570,o),
(831,441,o),
(637,441,cs),
(366,441,l,{
name = ._.105553357365936;
}),
(366,1034,l)
);
}
);
width = 1141;
},
{
guides = (
{
pos = (0,1165);
},
{
pos = (0,312);
},
{
angle = 90;
pos = (570,0);
}
);
layerId = "557D07FA-4833-462F-859E-332980C518A5";
shapes = (
{
closed = 1;
nodes = (
(221,1456,l,{
name = ._.105553357367136;
}),
(221,0,l,{
name = ._.105553357367296;
}),
(311,0,l),
(311,321,l,{
name = ._.105553357367456;
}),
(645,321,ls),
(935,321,o),
(1084,497,o),
(1084,727,cs,{
name = ._.105553357367776;
}),
(1084,976,o),
(935,1155,o),
(645,1155,cs),
(311,1155,l,{
name = ._.105553357368096;
}),
(311,1456,l,{
name = ._.105553357368176;
})
);
},
{
closed = 1;
nodes = (
(645,1085,ls),
(872,1085,o),
(997,946,o),
(997,727,cs,{
name = ._.105553357368496;
}),
(997,533,o),
(873,391,o),
(645,391,cs),
(311,391,l),
(311,1085,l)
);
}
);
width = 1164;
}
);
unicode = 222;
},
{
glyphname = Q;
kernLeft = _O;
kernRight = _O;
lastChange = "2024-05-25 11:48:25 +0000";
layers = (
{
guides = (
{
pos = (0,-446);
}
);
layerId = "4EE6A762-B31F-492D-BAD7-A15389DCB08F";
shapes = (
{
closed = 1;
nodes = (
(316,-140,l),
(384,-358,l),
(453,-313,o),
(508,-297,o),
(556,-297,cs,{
name = ._.105553289855936;
}),
(700,-297,o),
(782,-438,o),
(1004,-438,cs,{
name = hr01;
}),
(1060,-438,o),
(1124,-429,o),
(1201,-405,c),
(1144,-183,l),
(1103,-195,o),
(1069,-200,o),
(1039,-200,cs,{
name = ._.105553289856336;
}),
(881,-200,o),
(815,-59,o),
(665,-65,c,{
name = hr02;
}),
(847,7,ls),
(1085,101,o),
(1216,329,o),
(1216,660,cs,{
name = ._.105553289855056;
}),
(1216,795,ls),
(1216,1219,o),
(1043,1477,o),
(652,1477,cs,{
name = ._.105553289856496;
}),
(299,1477,o),
(90,1223,o),
(90,744,cs,{
name = ._.105553289859776;
}),
(90,660,ls),
(90,276,o),
(262,50,o),
(518,-6,c)
);
},
{
closed = 1;
nodes = (
(904,694,ls,{
name = ._.105553289856256;
}),
(904,360,o),
(819,223,o),
(654,223,cs,{
name = ._.105553289863776;
}),
(484,223,o),
(401,362,o),
(401,694,cs),
(401,763,ls,{
name = ._.105553289860256;
}),
(401,1093,o),
(482,1232,o),
(652,1232,cs,{
name = ._.105553289865936;
}),
(806,1232,o),
(904,1102,o),
(904,797,cs)
);
}
);
width = 1306;
},
{
layerId = "7B7CA763-6202-4B35-9FCB-B97398BB2D53";
shapes = (
{
closed = 1;
nodes = (
(352,-139,l),
(402,-289,l),
(466,-239,o),
(521,-219,o),
(570,-219,cs),
(731,-219,o),
(828,-436,o),
(1046,-436,cs),
(1091,-436,o),
(1141,-426,o),
(1196,-404,c),
(1159,-257,l),
(1121,-269,o),
(1090,-275,o),
(1062,-275,cs),
(904,-275,o),
(841,-96,o),
(661,-71,c),
(840,6,ls),
(1079,110,o),
(1202,327,o),
(1202,655,cs),
(1202,792,ls),
(1202,1227,o),
(999,1477,o),
(656,1477,cs),
(317,1477,o),
(118,1221,o),
(118,758,cs),
(118,655,ls),
(118,261,o),
(295,28,o),
(563,-13,c)
);
},
{
closed = 1;
nodes = (
(999,667,ls),
(999,319,o),
(872,139,o),
(656,139,cs),
(432,139,o),
(320,337,o),
(320,695,cs),
(320,760,ls),
(320,1132,o),
(440,1315,o),
(656,1315,cs),
(862,1315,o),
(999,1142,o),
(999,792,cs)
);
}
);
width = 1320;
},
{
layerId = "80A40485-F9FE-43F8-8BB8-E239AA3B9F7E";
shapes = (
{
closed = 1;
nodes = (
(365,-139,l),
(409,-263,l),
(472,-212,o),
(529,-193,o),
(578,-193,cs,{
name = ._.105553289860176;
}),
(745,-193,o),
(850,-435,o),
(1062,-435,cs,{
name = ._.105553289857296;
}),
(1102,-435,o),
(1147,-425,o),
(1194,-403,c),
(1164,-284,l),
(1128,-296,o),
(1098,-302,o),
(1070,-302,cs,{
name = ._.105553289857456;
}),
(912,-302,o),
(850,-109,o),
(660,-73,c),
(837,6,ls),
(1077,113,o),
(1197,326,o),
(1197,653,cs,{
name = ._.105553289861616;
}),
(1197,791,ls),
(1197,1230,o),
(982,1477,o),
(657,1477,cs,{
name = ._.105553289859456;
}),
(324,1477,o),
(128,1221,o),
(128,764,cs,{
name = ._.105553289861216;
}),
(128,653,ls),
(128,255,o),
(307,20,o),
(580,-15,c,{
name = ._.105553289861376;
})
);
},
{
closed = 1;
nodes = (
(1034,657,ls,{
name = ._.105553289858016;
}),
(1034,304,o),
(891,108,o),
(657,108,cs,{
name = ._.105553289857376;
}),
(413,108,o),
(290,328,o),
(290,696,cs),
(290,759,ls,{
name = ._.105553289863536;
}),
(290,1147,o),
(425,1346,o),
(657,1346,cs,{
name = ._.105553289862576;
}),
(883,1346,o),
(1034,1157,o),
(1034,790,cs)
);
}
);
width = 1325;
},
{
guides = (
{
angle = 90;
pos = (-2000,0);
},
{
angle = 90;
pos = (-2000,0);
},
{
angle = 90;
pos = (1202,0);
}
);
layerId = "557D07FA-4833-462F-859E-332980C518A5";
shapes = (
{
closed = 1;
nodes = (
(397,-138,l),
(428,-208,l),
(490,-163,o),
(554,-151,o),
(604,-151,cs,{
name = ._.105553289865136;
}),
(789,-151,o),
(889,-434,o),
(1097,-434,cs,{
name = ._.105553289864496;
}),
(1129,-434,o),
(1164,-422,o),
(1197,-400,c),
(1180,-339,l),
(1149,-353,o),
(1119,-361,o),
(1093,-361,cs),
(947,-361,o),
(861,-79,o),
(614,-82,c),
(816,-4,ls),
(1084,99,o),
(1202,321,o),
(1202,655,cs,{
name = ._.105553289866816;
}),
(1202,769,ls),
(1202,1214,o),
(995,1477,o),
(672,1477,cs,{
name = ._.105553289867616;
}),
(349,1477,o),
(142,1214,o),
(142,769,cs,{
name = ._.105553289868336;
}),
(142,655,ls),
(142,251,o),
(339,7,o),
(621,-18,c)
);
},
{
closed = 1;
nodes = (
(1114,667,ls,{
name = ._.105553289858576;
}),
(1114,293,o),
(940,49,o),
(672,49,cs,{
name = hr01;
}),
(406,49,o),
(230,313,o),
(230,667,cs),
(230,763,ls,{
name = ._.105553289867936;
}),
(230,1190,o),
(426,1407,o),
(672,1407,cs),
(918,1407,o),
(1114,1190,o),
(1114,763,cs)
);
}
);
width = 1344;
}
);
unicode = 81;
},
{
glyphname = R;
lastChange = "2024-05-25 11:48:25 +0000";
layers = (
{
layerId = "4EE6A762-B31F-492D-BAD7-A15389DCB08F";
shapes = (
{
closed = 1;
nodes = (
(561,568,ls,{
name = ._.105553289811824;
}),
(617,568,o),
(645,535,o),
(662,497,cs),
(881,0,l,{
name = ._.105553289812544;
}),
(1222,0,l),
(902,632,l),
(1076,698,o),
(1172,871,o),
(1172,1022,cs,{
name = ._.105553289812064;
}),
(1172,1310,o),
(948,1455,o),
(648,1455,cs,{
name = ._.105553289811264;
}),
(150,1455,l,{
name = ._.105553289811024;
}),
(150,0,l),
(462,0,l),
(462,568,l)
);
},
{
closed = 1;
nodes = (
(462,1212,l,{
name = ._.105553289827008;
}),
(648,1212,ls,{
name = ._.105553289827648;
}),
(773,1212,o),
(862,1130,o),
(862,1004,cs,{
name = ._.105553289828608;
}),
(862,890,o),
(774,812,o),
(648,812,cs,{
name = ._.105553289828288;
}),
(462,812,l)
);
}
);
width = 1257;
},
{
layerId = "7B7CA763-6202-4B35-9FCB-B97398BB2D53";
shapes = (
{
closed = 1;
nodes = (
(572,624,ls),
(618,624,o),
(645,605,o),
(661,572,cs),
(935,0,l),
(1177,0,l),
(822,657,l),
(1061,709,o),
(1128,918,o),
(1128,1040,cs),
(1128,1307,o),
(955,1455,o),
(658,1455,cs),
(188,1455,l),
(188,0,l),
(392,0,l),
(392,624,l)
);
},
{
closed = 1;
nodes = (
(392,1297,l),
(658,1297,ls),
(836,1297,o),
(924,1188,o),
(924,1035,cs),
(924,884,o),
(835,783,o),
(632,783,cs),
(392,783,l)
);
}
);
width = 1239;
},
{
layerId = "80A40485-F9FE-43F8-8BB8-E239AA3B9F7E";
shapes = (
{
closed = 1;
nodes = (
(576,645,ls,{
name = ._.105553289842512;
}),
(619,645,o),
(644,631,o),
(660,600,cs),
(965,0,l,{
name = ._.105553289842432;
}),
(1159,0,l),
(792,666,l),
(1055,713,o),
(1112,936,o),
(1112,1047,cs,{
name = ._.105553289847632;
}),
(1112,1307,o),
(957,1456,o),
(661,1456,cs),
(202,1456,l,{
name = ._.105553289841792;
}),
(202,0,l),
(366,0,l),
(366,645,l)
);
},
{
closed = 1;
nodes = (
(366,1329,l,{
name = ._.105553289838672;
}),
(661,1329,ls),
(860,1329,o),
(947,1210,o),
(947,1046,cs,{
name = ._.105553289844512;
}),
(947,881,o),
(858,772,o),
(626,772,cs,{
name = ._.105553289844912;
}),
(366,772,l)
);
}
);
width = 1232;
},
{
guides = (
{
pos = (0,702);
}
);
layerId = "557D07FA-4833-462F-859E-332980C518A5";
shapes = (
{
closed = 1;
nodes = (
(576,672,ls,{
name = ._.105553289838832;
}),
(612,672,o),
(640,669,o),
(659,634,cs),
(1012,0,l,{
name = ._.105553289839072;
}),
(1120,0,l),
(723,678,l,{
name = ._.105553289838592;
}),
(1033,715,o),
(1075,965,o),
(1075,1056,cs,{
name = ._.105553289852992;
}),
(1075,1302,o),
(938,1455,o),
(644,1455,cs,{
name = ._.105553289851872;
}),
(221,1455,l,{
name = ._.105553289854512;
}),
(221,0,l),
(311,0,l),
(311,672,l)
);
},
{
closed = 1;
nodes = (
(311,1385,l,{
name = ._.105553289850112;
}),
(644,1385,ls),
(884,1385,o),
(988,1258,o),
(988,1056,cs,{
name = ._.105553289852032;
}),
(988,878,o),
(885,742,o),
(617,742,cs),
(311,742,l)
);
}
);
width = 1211;
}
);
unicode = 82;
},
{
glyphname = S;
kernLeft = _S;
kernRight = _S;
lastChange = "2024-05-28 22:02:26 +0000";
layers = (
{
guides = (
{
pos = (0,148);
},
{
angle = 90;
pos = (1075,0);
}
);
layerId = "4EE6A762-B31F-492D-BAD7-A15389DCB08F";
shapes = (
{
closed = 1;
nodes = (
(637,545,o),
(730,502,o),
(730,383,cs,{
name = ._.105553289853472;
}),
(730,283,o),
(640,223,o),
(510,223,cs,{
name = ._.105553289853712;
}),
(393,223,o),
(250,279,o),
(178,341,c),
(50,147,l),
(135,72,o),
(324,-21,o),
(540,-21,cs,{
name = ._.105553289849952;
}),
(842,-21,o),
(1039,170,o),
(1039,395,cs,{
name = ._.105553289853872;
}),
(1039,614,o),
(948,763,o),
(650,869,cs),
(450,940,o),
(394,976,o),
(394,1079,cs,{
name = ._.105553289811984;
}),
(394,1165,o),
(464,1232,o),
(578,1232,cs,{
name = ._.105553290003152;
}),
(678,1232,o),
(782,1193,o),
(879,1116,c),
(1005,1309,l),
(945,1360,o),
(798,1477,o),
(553,1477,cs,{
name = ._.105553289895504;
}),
(289,1477,o),
(85,1303,o),
(85,1060,cs,{
name = ._.105553289895744;
}),
(85,860,o),
(141,723,o),
(472,604,cs)
);
}
);
width = 1101;
},
{
layerId = "7B7CA763-6202-4B35-9FCB-B97398BB2D53";
shapes = (
{
closed = 1;
nodes = (
(764,565,o),
(825,496,o),
(825,373,cs),
(825,243,o),
(725,144,o),
(554,144,cs),
(411,144,o),
(254,211,o),
(175,282,c),
(93,147,l),
(197,60,o),
(364,-20,o),
(566,-20,cs),
(839,-20,o),
(1025,154,o),
(1025,377,cs),
(1025,578,o),
(941,723,o),
(632,827,cs),
(403,904,o),
(327,967,o),
(327,1092,cs),
(327,1228,o),
(413,1314,o),
(567,1314,cs),
(691,1314,o),
(823,1262,o),
(915,1182,c),
(995,1315,l),
(901,1394,o),
(771,1477,o),
(556,1477,cs),
(311,1477,o),
(127,1315,o),
(127,1085,cs),
(127,890,o),
(211,753,o),
(536,643,cs)
);
}
);
width = 1124;
},
{
guides = (
{
angle = 90;
pos = (1065,0);
},
{
angle = 90;
pos = (64,0);
}
);
layerId = "80A40485-F9FE-43F8-8BB8-E239AA3B9F7E";
shapes = (
{
closed = 1;
nodes = (
(811,572,o),
(860,493,o),
(860,368,cs,{
name = ._.105553289892224;
}),
(860,228,o),
(756,114,o),
(570,114,cs,{
name = ._.105553289892464;
}),
(417,114,o),
(255,185,o),
(174,259,c),
(109,146,l),
(219,55,o),
(378,-20,o),
(575,-20,cs,{
name = ._.105553289889104;
}),
(838,-20,o),
(1020,147,o),
(1020,370,cs,{
name = ._.105553289893024;
}),
(1020,564,o),
(938,707,o),
(625,809,cs),
(386,890,o),
(302,963,o),
(302,1096,cs,{
name = ._.105553289894384;
}),
(302,1251,o),
(394,1344,o),
(563,1344,cs,{
name = ._.105553289889344;
}),
(695,1344,o),
(838,1287,o),
(929,1206,c),
(992,1317,l),
(885,1407,o),
(761,1477,o),
(557,1477,cs,{
name = ._.105553289889744;
}),
(319,1477,o),
(142,1319,o),
(142,1094,cs,{
name = ._.105553289894144;
}),
(142,900,o),
(237,764,o),
(559,658,cs)
);
}
);
width = 1133;
},
{
guides = (
{
pos = (0,746);
},
{
angle = 90;
pos = (998,0);
},
{
angle = 90;
pos = (122,0);
},
{
angle = 90;
pos = (-1279,0);
},
{
angle = 90;
pos = (-294,0);
}
);
layerId = "557D07FA-4833-462F-859E-332980C518A5";
shapes = (
{
closed = 1;
nodes = (
(846,581,o),
(911,484,o),
(911,357,cs,{
name = ._.105553289898304;
}),
(911,197,o),
(781,55,o),
(569,55,cs),
(364,55,o),
(201,169,o),
(159,206,c),
(129,141,l),
(220,69,o),
(379,-21,o),
(567,-21,cs,{
name = ._.105553289893424;
}),
(827,-21,o),
(996,146,o),
(996,357,cs,{
name = ._.105553289892704;
}),
(996,560,o),
(877,667,o),
(624,773,cs),
(365,882,o),
(247,958,o),
(247,1121,cs,{
name = ._.105553289847072;
}),
(247,1305,o),
(375,1404,o),
(557,1404,cs),
(725,1404,o),
(873,1332,o),
(946,1271,c),
(971,1333,l),
(891,1403,o),
(749,1477,o),
(560,1477,cs,{
name = ._.105553289873840;
}),
(316,1477,o),
(159,1330,o),
(159,1113,cs,{
name = ._.105553289876640;
}),
(159,933,o),
(269,824,o),
(549,706,cs)
);
}
);
width = 1125;
}
);
unicode = 83;
},
{
glyphname = T;
lastChange = "2024-05-28 22:09:01 +0000";
layers = (
{
layerId = "4EE6A762-B31F-492D-BAD7-A15389DCB08F";
shapes = (
{
closed = 1;
nodes = (
(1026,1456,l),
(5,1456,l,{
name = ._.105553352512432;
}),
(5,1212,l,{
name = ._.105553352513872;
}),
(359,1212,l,{
name = ._.105553352516112;
}),
(359,0,l,{
name = ._.105553352516752;
}),
(671,0,l),
(671,1212,l,{
name = ._.105553352523632;
}),
(1026,1212,l)
);
}
);
width = 1031;
},
{
layerId = "7B7CA763-6202-4B35-9FCB-B97398BB2D53";
shapes = (
{
closed = 1;
nodes = (
(1050,1456,l),
(16,1456,l),
(16,1297,l),
(430,1297,l),
(430,0,l),
(634,0,l),
(634,1297,l),
(1050,1297,l)
);
}
);
width = 1065;
},
{
layerId = "80A40485-F9FE-43F8-8BB8-E239AA3B9F7E";
shapes = (
{
closed = 1;
nodes = (
(1058,1456,l),
(20,1456,l,{
name = ._.105553352533856;
}),
(20,1329,l,{
name = ._.105553352528416;
}),
(456,1329,l,{
name = ._.105553352524976;
}),
(456,0,l,{
name = ._.105553352528176;
}),
(620,0,l),
(620,1329,l,{
name = ._.105553352470560;
}),
(1058,1329,l)
);
}
);
width = 1078;
},
{
layerId = "557D07FA-4833-462F-859E-332980C518A5";
shapes = (
{
closed = 1;
nodes = (
(1072,1456,l,{
name = ._.105553352356752;
}),
(41,1456,l),
(41,1382,l),
(510,1382,l,{
name = ._.105553352352112;
}),
(510,0,l,{
name = ._.105553352357552;
}),
(600,0,l),
(600,1382,l,{
name = ._.105553352530816;
}),
(1072,1382,l)
);
}
);
width = 1113;
}
);
unicode = 84;
},
{
glyphname = U;
kernLeft = _U;
kernRight = _U;
lastChange = "2024-05-28 21:37:51 +0000";
layers = (
{
anchors = (
{
name = top;
pos = (678,1456);
}
);
layerId = "4EE6A762-B31F-492D-BAD7-A15389DCB08F";
shapes = (
{
closed = 1;
nodes = (
(914,1456,l,{
name = ._.105553352453376;
}),
(914,483,ls),
(914,301,o),
(831,222,o),
(679,222,cs,{
name = ._.105553352451776;
}),
(528,222,o),
(442,305,o),
(442,483,cs),
(442,1456,l,{
name = ._.105553352454896;
}),
(130,1456,l,{
name = ._.105553352447296;
}),
(130,483,ls),
(130,163,o),
(356,-21,o),
(679,-21,cs,{
name = ._.105553352427792;
}),
(980,-21,o),
(1225,151,o),
(1225,483,cs),
(1225,1456,l,{
name = ._.105553352436752;
})
);
}
);
width = 1355;
},
{
anchors = (
{
name = top;
pos = (670,1456);
}
);
layerId = "7B7CA763-6202-4B35-9FCB-B97398BB2D53";
shapes = (
{
closed = 1;
nodes = (
(981,1456,l),
(981,459,ls),
(981,241,o),
(860,139,o),
(673,139,cs),
(492,139,o),
(375,246,o),
(375,459,cs),
(375,1456,l),
(171,1456,l),
(171,459,ls),
(171,150,o),
(379,-21,o),
(673,-21,cs),
(970,-21,o),
(1185,147,o),
(1185,459,cs),
(1185,1456,l)
);
}
);
width = 1356;
},
{
anchors = (
{
name = top;
pos = (671,1456);
}
);
guides = (
{
angle = 90;
pos = (671,0);
}
);
layerId = "80A40485-F9FE-43F8-8BB8-E239AA3B9F7E";
shapes = (
{
closed = 1;
nodes = (
(1006,1456,l,{
name = ._.105553352223120;
}),
(1006,450,ls),
(1006,218,o),
(871,108,o),
(671,108,cs,{
name = ._.105553352223840;
}),
(478,108,o),
(350,224,o),
(350,450,cs),
(350,1456,l,{
name = ._.105553354069552;
}),
(186,1456,l,{
name = ._.105553354069392;
}),
(186,450,ls),
(186,145,o),
(387,-21,o),
(671,-21,cs,{
name = ._.105553354068672;
}),
(967,-21,o),
(1170,145,o),
(1170,450,cs),
(1170,1456,l,{
name = ._.105553354068832;
})
);
}
);
width = 1356;
},
{
anchors = (
{
name = top;
pos = (686,1455);
}
);
layerId = "557D07FA-4833-462F-859E-332980C518A5";
shapes = (
{
closed = 1;
nodes = (
(1062,1456,l,{
name = ._.105553353869664;
}),
(1062,433,ls),
(1062,178,o),
(900,49,o),
(680,49,cs),
(465,49,o),
(311,183,o),
(311,433,cs),
(311,1456,l,{
name = ._.105553355385632;
}),
(221,1456,l,{
name = ._.105553355385152;
}),
(221,433,ls),
(221,140,o),
(415,-21,o),
(680,-21,cs,{
name = ._.105553355387312;
}),
(963,-21,o),
(1150,140,o),
(1150,433,cs),
(1150,1456,l,{
name = ._.105553355424064;
})
);
}
);
width = 1371;
}
);
unicode = 85;
},
{
glyphname = Udieresis;
kernLeft = _U;
kernRight = _U;
lastChange = "2024-05-25 11:48:25 +0000";
layers = (
{
associatedMasterId = "557D07FA-4833-462F-859E-332980C518A5";
layerId = "8B9C2315-63B1-430F-AFCA-A7E2B0E3FB05";
name = img;
width = 1371;
},
{
layerId = "4EE6A762-B31F-492D-BAD7-A15389DCB08F";
shapes = (
{
closed = 1;
nodes = (
(587,1823,l,{
name = ._.105553419665728;
}),
(316,1823,l,{
name = ._.105553419665888;
}),
(316,1596,l,{
name = ._.105553419665968;
}),
(587,1596,l)
);
},
{
closed = 1;
nodes = (
(914,1456,l,{
name = ._.105553419696912;
}),
(914,483,ls),
(914,301,o),
(831,222,o),
(679,222,cs,{
name = ._.105553419697312;
}),
(528,222,o),
(442,305,o),
(442,483,cs),
(442,1456,l,{
name = ._.105553419697632;
}),
(130,1456,l,{
name = ._.105553419697712;
}),
(130,483,ls),
(130,163,o),
(356,-21,o),
(679,-21,cs,{
name = ._.105553419698032;
}),
(980,-21,o),
(1225,151,o),
(1225,483,cs),
(1225,1456,l,{
name = ._.105553419665488;
})
);
},
{
closed = 1;
nodes = (
(1037,1823,l,{
name = ._.105553419666128;
}),
(767,1823,l,{
name = ._.105553419666288;
}),
(767,1596,l),
(1037,1596,l)
);
}
);
width = 1355;
},
{
layerId = "7B7CA763-6202-4B35-9FCB-B97398BB2D53";
shapes = (
{
closed = 1;
nodes = (
(567,1819,l),
(376,1819,l),
(376,1637,l),
(567,1637,l)
);
},
{
closed = 1;
nodes = (
(981,1456,l),
(981,459,ls),
(981,241,o),
(860,139,o),
(673,139,cs),
(491,139,o),
(375,246,o),
(375,459,cs),
(375,1456,l),
(171,1456,l),
(171,459,ls),
(171,150,o),
(379,-21,o),
(673,-21,cs),
(971,-21,o),
(1185,147,o),
(1185,459,cs),
(1185,1456,l)
);
},
{
closed = 1;
nodes = (
(978,1819,l),
(788,1819,l),
(788,1637,l),
(978,1637,l)
);
}
);
width = 1356;
},
{
layerId = "80A40485-F9FE-43F8-8BB8-E239AA3B9F7E";
shapes = (
{
closed = 1;
nodes = (
(560,1817,l,{
name = ._.105553419670128;
}),
(398,1817,l,{
name = ._.105553419670288;
}),
(398,1652,l,{
name = ._.105553419670368;
}),
(560,1652,l)
);
},
{
closed = 1;
nodes = (
(1006,1456,l,{
name = ._.105553419668608;
}),
(1006,450,ls),
(1006,218,o),
(871,108,o),
(671,108,cs,{
name = ._.105553419669008;
}),
(478,108,o),
(350,224,o),
(350,450,cs),
(350,1456,l,{
name = ._.105553419669328;
}),
(186,1456,l,{
name = ._.105553419669408;
}),
(186,450,ls),
(186,145,o),
(387,-21,o),
(671,-21,cs,{
name = ._.105553419669728;
}),
(967,-21,o),
(1170,145,o),
(1170,450,cs),
(1170,1456,l,{
name = ._.105553419670048;
})
);
},
{
closed = 1;
nodes = (
(956,1817,l,{
name = ._.105553419670528;
}),
(796,1817,l,{
name = ._.105553419670688;
}),
(796,1652,l),
(956,1652,l)
);
}
);
width = 1356;
},
{
guides = (
{
pos = (0,1736);
}
);
layerId = "557D07FA-4833-462F-859E-332980C518A5";
shapes = (
{
closed = 1;
nodes = (
(567,1792,l,{
name = ._.105553419673008;
}),
(475,1792,l,{
name = ._.105553419673168;
}),
(475,1682,l,{
name = ._.105553419673248;
}),
(567,1682,l)
);
},
{
closed = 1;
nodes = (
(1062,1456,l,{
name = ._.105553419671488;
}),
(1062,433,ls),
(1062,178,o),
(900,49,o),
(680,49,cs),
(465,49,o),
(311,183,o),
(311,433,cs),
(311,1456,l,{
name = ._.105553419672208;
}),
(221,1456,l,{
name = ._.105553419672288;
}),
(221,433,ls),
(221,140,o),
(415,-21,o),
(680,-21,cs,{
name = ._.105553419672608;
}),
(963,-21,o),
(1150,140,o),
(1150,433,cs),
(1150,1456,l,{
name = ._.105553419672928;
})
);
},
{
closed = 1;
nodes = (
(895,1792,l,{
name = ._.105553419673408;
}),
(803,1792,l,{
name = ._.105553419673568;
}),
(803,1682,l),
(895,1682,l)
);
}
);
width = 1371;
}
);
unicode = 220;
},
{
glyphname = V;
lastChange = "2024-05-28 22:07:47 +0000";
layers = (
{
layerId = "4EE6A762-B31F-492D-BAD7-A15389DCB08F";
shapes = (
{
closed = 1;
nodes = (
(326,1456,l,{
name = ._.105553356163264;
}),
(0,1456,l),
(438,0,l,{
name = ._.105553356165264;
}),
(769,0,l),
(1208,1456,l),
(882,1456,l),
(620,403,l),
(605,319,l),
(599,319,l),
(586,403,l)
);
}
);
width = 1208;
},
{
layerId = "7B7CA763-6202-4B35-9FCB-B97398BB2D53";
shapes = (
{
closed = 1;
nodes = (
(243,1456,l),
(17,1456,l),
(501,0,l),
(695,0,l),
(1179,1456,l),
(959,1456,l),
(631,342,l),
(604,228,l),
(597,228,l),
(571,344,l)
);
}
);
width = 1196;
},
{
layerId = "80A40485-F9FE-43F8-8BB8-E239AA3B9F7E";
shapes = (
{
closed = 1;
nodes = (
(202,1456,l,{
name = ._.105553356163024;
}),
(23,1456,l),
(524,0,l,{
name = ._.105553356164064;
}),
(667,0,l),
(1168,1456,l),
(998,1456,l),
(635,320,l),
(603,195,l),
(596,195,l),
(565,322,l)
);
}
);
width = 1191;
},
{
guides = (
{
angle = 90;
pos = (592,0);
}
);
layerId = "557D07FA-4833-462F-859E-332980C518A5";
shapes = (
{
closed = 1;
nodes = (
(131,1456,l,{
name = ._.105553356168464;
}),
(35,1456,l),
(561,0,l,{
name = ._.105553356166784;
}),
(624,0,l),
(1149,1456,l),
(1053,1456,l),
(639,279,l),
(596,130,l),
(589,130,l),
(547,281,l)
);
}
);
width = 1184;
}
);
unicode = 86;
},
{
glyphname = W;
kernLeft = _W;
kernRight = _W;
lastChange = "2024-05-28 22:00:10 +0000";
layers = (
{
anchors = (
{
name = top;
pos = (837,1456);
}
);
layerId = "4EE6A762-B31F-492D-BAD7-A15389DCB08F";
shapes = (
{
closed = 1;
nodes = (
(317,1456,l,{
name = ._.105553356169264;
}),
(15,1456,l),
(323,0,l,{
name = ._.105553356174064;
}),
(614,0,l),
(817,816,l),
(837,965,l),
(843,965,l),
(862,816,l),
(1068,0,l),
(1360,0,l),
(1667,1456,l),
(1366,1456,l),
(1216,615,l),
(1196,404,l),
(1190,404,l),
(1162,615,l),
(950,1456,l),
(731,1456,l),
(525,615,l),
(494,404,l),
(488,404,l),
(469,616,l)
);
}
);
width = 1682;
},
{
anchors = (
{
name = top;
pos = (836,1456);
}
);
layerId = "7B7CA763-6202-4B35-9FCB-B97398BB2D53";
shapes = (
{
closed = 1;
nodes = (
(265,1456,l),
(48,1456,l),
(370,0,l),
(552,0,l),
(802,953,l),
(834,1142,l),
(840,1142,l),
(873,953,l),
(1121,0,l),
(1303,0,l),
(1625,1456,l),
(1414,1456,l),
(1236,525,l),
(1208,270,l),
(1202,270,l),
(1161,525,l),
(921,1456,l),
(757,1456,l),
(521,525,l),
(481,270,l),
(475,270,l),
(444,525,l)
);
}
);
width = 1673;
},
{
anchors = (
{
name = top;
pos = (835,1456);
}
);
layerId = "80A40485-F9FE-43F8-8BB8-E239AA3B9F7E";
shapes = (
{
closed = 1;
nodes = (
(229,1456,l,{
name = ._.105553356164864;
}),
(60,1456,l),
(388,0,l,{
name = ._.105553356170304;
}),
(529,0,l),
(796,1003,l),
(833,1208,l),
(839,1208,l),
(877,1003,l),
(1140,0,l),
(1282,0,l),
(1610,1456,l),
(1447,1456,l),
(1243,492,l),
(1212,221,l),
(1206,221,l),
(1161,492,l),
(910,1456,l),
(767,1456,l),
(519,492,l),
(476,221,l),
(470,221,l),
(435,492,l)
);
}
);
width = 1670;
},
{
anchors = (
{
name = top;
pos = (825,1453);
}
);
guides = (
{
pos = (0,915);
},
{
angle = 90;
pos = (827,0);
}
);
layerId = "557D07FA-4833-462F-859E-332980C518A5";
shapes = (
{
closed = 1;
nodes = (
(172,1456,l,{
name = ._.105553356374976;
}),
(75,1456,l),
(417,0,l,{
name = ._.105553356376976;
}),
(478,0,l),
(771,1113,l),
(822,1346,l),
(828,1346,l),
(880,1113,l),
(1173,0,l),
(1234,0,l),
(1575,1456,l),
(1478,1456,l),
(1242,415,l),
(1206,158,l),
(1200,158,l),
(1147,415,l),
(875,1456,l),
(778,1456,l),
(508,415,l),
(455,158,l),
(449,158,l),
(413,415,l)
);
}
);
width = 1650;
}
);
unicode = 87;
},
{
glyphname = X;
kernLeft = _X;
kernRight = _X;
lastChange = "2024-05-28 22:00:21 +0000";
layers = (
{
anchors = (
{
name = top;
pos = (585,1456);
}
);
layerId = "4EE6A762-B31F-492D-BAD7-A15389DCB08F";
shapes = (
{
closed = 1;
nodes = (
(367,1456,l,{
name = ._.105553356060416;
}),
(10,1456,l),
(395,734,l),
(0,0,l,{
name = ._.105553356061616;
}),
(361,0,l),
(585,510,l),
(816,0,l),
(1192,0,l),
(779,734,l),
(1164,1456,l),
(805,1456,l),
(589,947,l)
);
}
);
width = 1192;
},
{
anchors = (
{
name = top;
pos = (558,1456);
}
);
layerId = "7B7CA763-6202-4B35-9FCB-B97398BB2D53";
shapes = (
{
closed = 1;
nodes = (
(266,1456,l),
(25,1456,l),
(443,738,l),
(15,0,l),
(252,0,l),
(560,585,l),
(872,0,l),
(1118,0,l),
(683,735,l),
(1103,1456,l),
(869,1456,l),
(566,884,l)
);
}
);
width = 1133;
},
{
anchors = (
{
name = top;
pos = (556,1456);
}
);
layerId = "80A40485-F9FE-43F8-8BB8-E239AA3B9F7E";
shapes = (
{
closed = 1;
nodes = (
(228,1456,l,{
name = ._.105553356059856;
}),
(30,1456,l),
(458,739,l),
(20,0,l,{
name = ._.105553356055856;
}),
(211,0,l),
(551,613,l),
(893,0,l),
(1091,0,l),
(650,736,l),
(1080,1456,l),
(892,1456,l),
(557,861,l)
);
}
);
width = 1111;
},
{
anchors = (
{
name = top;
pos = (530,1456);
}
);
layerId = "557D07FA-4833-462F-859E-332980C518A5";
shapes = (
{
closed = 1;
nodes = (
(153,1456,l,{
name = ._.105553356055376;
}),
(42,1456,l),
(486,748,l),
(32,0,l,{
name = ._.105553356054336;
}),
(138,0,l),
(536,679,l),
(944,0,l),
(1048,0,l),
(591,741,l),
(1040,1456,l),
(941,1456,l),
(540,806,l)
);
}
);
width = 1080;
}
);
unicode = 88;
},
{
glyphname = Y;
kernLeft = _Y;
kernRight = _Y;
lastChange = "2024-05-28 22:09:07 +0000";
layers = (
{
anchors = (
{
name = top;
pos = (587,1456);
}
);
layerId = "4EE6A762-B31F-492D-BAD7-A15389DCB08F";
shapes = (
{
closed = 1;
nodes = (
(319,1456,l,{
name = ._.105553356054736;
}),
(-20,1456,l),
(427,532,l,{
name = ._.105553356053136;
}),
(427,0,l,{
name = ._.105553356052896;
}),
(739,0,l),
(739,515,l,{
name = ._.105553356052816;
}),
(1193,1456,l),
(854,1456,l),
(587,802,l)
);
}
);
width = 1173;
},
{
anchors = (
{
name = top;
pos = (549,1456);
}
);
layerId = "7B7CA763-6202-4B35-9FCB-B97398BB2D53";
shapes = (
{
closed = 1;
nodes = (
(219,1456,l),
(-14,1456,l),
(450,531,l),
(450,0,l),
(654,0,l),
(654,517,l),
(1120,1456,l),
(895,1456,l),
(557,707,l)
);
}
);
width = 1106;
},
{
anchors = (
{
name = top;
pos = (541,1456);
}
);
guides = (
{
pos = (0,518);
}
);
layerId = "80A40485-F9FE-43F8-8BB8-E239AA3B9F7E";
shapes = (
{
closed = 1;
nodes = (
(179,1456,l,{
name = ._.105553356051376;
}),
(-11,1456,l),
(459,531,l,{
name = ._.105553356051056;
}),
(459,0,l,{
name = ._.105553356050896;
}),
(623,0,l),
(623,518,l,{
name = ._.105553356051136;
}),
(1094,1456,l),
(915,1456,l),
(547,683,l)
);
}
);
width = 1082;
},
{
anchors = (
{
name = top;
pos = (536,1456);
}
);
guides = (
{
angle = 90;
pos = (1042,0);
},
{
angle = 90;
pos = (11,0);
},
{
angle = 90;
pos = (536,0);
}
);
layerId = "557D07FA-4833-462F-859E-332980C518A5";
shapes = (
{
closed = 1;
nodes = (
(106,1456,l,{
name = ._.105553356048896;
}),
(0,1456,l),
(487,530,l,{
name = ._.105553356049056;
}),
(487,0,l,{
name = ._.105553356049136;
}),
(577,0,l),
(577,519,l,{
name = ._.105553356049776;
}),
(1051,1456,l),
(950,1456,l),
(535,601,l)
);
}
);
width = 1051;
}
);
unicode = 89;
},
{
glyphname = Yacute;
kernLeft = _Y;
kernRight = _Y;
lastChange = "2024-05-25 11:48:25 +0000";
layers = (
{
associatedMasterId = "557D07FA-4833-462F-859E-332980C518A5";
layerId = "8B9C2315-63B1-430F-AFCA-A7E2B0E3FB05";
name = img;
width = 1051;
},
{
guides = (
{
pos = (0,1581);
},
{
pos = (0,1913);
}
);
layerId = "4EE6A762-B31F-492D-BAD7-A15389DCB08F";
shapes = (
{
closed = 1;
nodes = (
(318,1456,l,{
name = ._.105553419674688;
}),
(-20,1456,l),
(427,532,l,{
name = ._.105553419674928;
}),
(427,0,l,{
name = ._.105553419675008;
}),
(739,0,l),
(739,515,l,{
name = ._.105553419675168;
}),
(1193,1456,l),
(855,1456,l),
(587,809,l)
);
},
{
closed = 1;
nodes = (
(418,1575,l),
(664,1575,l),
(1067,1907,l,{
name = ._.105553419675728;
}),
(671,1907,l)
);
}
);
width = 1173;
},
{
layerId = "7B7CA763-6202-4B35-9FCB-B97398BB2D53";
shapes = (
{
closed = 1;
nodes = (
(219,1456,l),
(-14,1456,l),
(450,531,l),
(450,0,l),
(654,0,l),
(654,517,l),
(1120,1456,l),
(895,1456,l),
(557,707,l)
);
},
{
closed = 1;
nodes = (
(390,1582,l),
(561,1582,l),
(995,1887,l),
(696,1887,l)
);
}
);
width = 1106;
},
{
layerId = "80A40485-F9FE-43F8-8BB8-E239AA3B9F7E";
shapes = (
{
closed = 1;
nodes = (
(179,1456,l,{
name = ._.105553419677248;
}),
(-11,1456,l),
(460,531,l,{
name = ._.105553419677488;
}),
(460,0,l,{
name = ._.105553419677568;
}),
(622,0,l),
(622,518,l,{
name = ._.105553419677728;
}),
(1094,1456,l),
(915,1456,l),
(547,683,l)
);
},
{
closed = 1;
nodes = (
(380,1585,l),
(523,1585,l),
(968,1879,l,{
name = ._.105553419678288;
}),
(704,1879,l)
);
}
);
width = 1082;
},
{
guides = (
{
pos = (0,1878);
},
{
angle = 90;
pos = (1042,0);
},
{
angle = 90;
pos = (11,0);
},
{
angle = 90;
pos = (536,0);
}
);
layerId = "557D07FA-4833-462F-859E-332980C518A5";
shapes = (
{
closed = 1;
nodes = (
(106,1456,l,{
name = ._.105553419679488;
}),
(0,1456,l),
(487,530,l,{
name = ._.105553419679728;
}),
(487,0,l,{
name = ._.105553419679808;
}),
(577,0,l),
(577,519,l,{
name = ._.105553419679968;
}),
(1051,1456,l),
(950,1456,l),
(535,601,l)
);
},
{
closed = 1;
nodes = (
(401,1585,l),
(482,1585,l),
(930,1878,l,{
name = ._.105553419680528;
}),
(771,1878,l)
);
}
);
width = 1051;
}
);
unicode = 221;
},
{
glyphname = Ydieresis;
kernLeft = _Y;
kernRight = _Y;
lastChange = "2024-05-25 11:48:25 +0000";
layers = (
{
layerId = "4EE6A762-B31F-492D-BAD7-A15389DCB08F";
shapes = (
{
closed = 1;
nodes = (
(318,1456,l,{
name = ._.105553419791056;
}),
(-20,1456,l),
(427,532,l,{
name = ._.105553419791296;
}),
(427,0,l,{
name = ._.105553419791376;
}),
(739,0,l),
(739,515,l,{
name = ._.105553419791536;
}),
(1193,1456,l),
(855,1456,l),
(587,809,l)
);
},
{
closed = 1;
nodes = (
(497,1823,l,{
name = ._.105553419790656;
}),
(226,1823,l,{
name = ._.105553419790816;
}),
(226,1596,l,{
name = ._.105553419790896;
}),
(497,1596,l)
);
},
{
closed = 1;
nodes = (
(947,1823,l,{
name = ._.105553419791856;
}),
(677,1823,l,{
name = ._.105553419792016;
}),
(677,1596,l),
(947,1596,l)
);
}
);
width = 1173;
},
{
layerId = "7B7CA763-6202-4B35-9FCB-B97398BB2D53";
shapes = (
{
closed = 1;
nodes = (
(219,1456,l),
(-14,1456,l),
(450,531,l),
(450,0,l),
(654,0,l),
(654,517,l),
(1120,1456,l),
(895,1456,l),
(557,707,l)
);
},
{
closed = 1;
nodes = (
(441,1804,l),
(250,1804,l),
(250,1622,l),
(441,1622,l)
);
},
{
closed = 1;
nodes = (
(858,1804,l),
(668,1804,l),
(668,1622,l),
(858,1622,l)
);
}
);
width = 1106;
},
{
layerId = "80A40485-F9FE-43F8-8BB8-E239AA3B9F7E";
shapes = (
{
closed = 1;
nodes = (
(179,1456,l,{
name = ._.105553419794496;
}),
(-11,1456,l),
(460,531,l,{
name = ._.105553419794736;
}),
(460,0,l,{
name = ._.105553419794816;
}),
(622,0,l),
(622,518,l,{
name = ._.105553419794976;
}),
(1094,1456,l),
(915,1456,l),
(547,683,l)
);
},
{
closed = 1;
nodes = (
(420,1798,l,{
name = ._.105553419794096;
}),
(259,1798,l,{
name = ._.105553419794256;
}),
(259,1632,l,{
name = ._.105553419794336;
}),
(420,1632,l)
);
},
{
closed = 1;
nodes = (
(825,1798,l,{
name = ._.105553419795296;
}),
(665,1798,l,{
name = ._.105553419795456;
}),
(665,1632,l),
(825,1632,l)
);
}
);
width = 1082;
},
{
layerId = "557D07FA-4833-462F-859E-332980C518A5";
shapes = (
{
closed = 1;
nodes = (
(106,1456,l,{
name = ._.105553419763872;
}),
(0,1456,l),
(487,530,l,{
name = ._.105553419764032;
}),
(487,0,l,{
name = ._.105553419764112;
}),
(577,0,l),
(577,519,l,{
name = ._.105553419764272;
}),
(1051,1456,l),
(950,1456,l),
(535,601,l)
);
},
{
closed = 1;
nodes = (
(403,1792,l,{
name = ._.105553419796096;
}),
(311,1792,l,{
name = ._.105553419796256;
}),
(311,1682,l,{
name = ._.105553419796336;
}),
(403,1682,l)
);
},
{
closed = 1;
nodes = (
(731,1792,l,{
name = ._.105553419764592;
}),
(639,1792,l,{
name = ._.105553419764752;
}),
(639,1682,l),
(731,1682,l)
);
}
);
width = 1051;
}
);
unicode = 376;
},
{
glyphname = Z;
kernLeft = _Z;
kernRight = _Z;
lastChange = "2024-05-28 22:02:56 +0000";
layers = (
{
layerId = "4EE6A762-B31F-492D-BAD7-A15389DCB08F";
shapes = (
{
closed = 1;
nodes = (
(1004,1314,l),
(1004,1456,l),
(47,1456,l,{
name = ._.105553356050176;
}),
(47,1212,l,{
name = ._.105553356049936;
}),
(614,1212,l),
(34,147,l),
(34,0,l,{
name = ._.105553356046416;
}),
(1013,0,l),
(1013,243,l),
(424,243,l,{
name = ._.105553356048336;
})
);
}
);
width = 1043;
},
{
layerId = "7B7CA763-6202-4B35-9FCB-B97398BB2D53";
shapes = (
{
closed = 1;
nodes = (
(979,1337,l),
(979,1456,l),
(72,1456,l),
(72,1297,l),
(732,1297,l),
(54,120,l),
(54,0,l),
(998,0,l),
(998,158,l),
(302,158,l)
);
}
);
width = 1050;
},
{
layerId = "80A40485-F9FE-43F8-8BB8-E239AA3B9F7E";
shapes = (
{
closed = 1;
nodes = (
(970,1346,l),
(970,1456,l),
(71,1456,l,{
name = ._.105553356057056;
}),
(71,1329,l,{
name = ._.105553356058176;
}),
(782,1329,l),
(61,110,l),
(61,0,l,{
name = ._.105553356057216;
}),
(992,0,l),
(992,127,l),
(253,127,l,{
name = ._.105553356060976;
})
);
}
);
width = 1053;
},
{
guides = (
{
pos = (0,1388);
},
{
angle = 90;
pos = (91,0);
},
{
angle = 90;
pos = (-1274,0);
},
{
angle = 90;
pos = (-289,0);
},
{
angle = 90;
pos = (1350,0);
},
{
angle = 90;
pos = (2293,0);
},
{
angle = 90;
pos = (989,0);
}
);
layerId = "557D07FA-4833-462F-859E-332980C518A5";
shapes = (
{
closed = 1;
nodes = (
(975,1391,l),
(975,1456,l,{
name = ._.105553356057616;
}),
(100,1456,l),
(100,1386,l),
(873,1386,l),
(91,59,l),
(91,0,l,{
name = ._.105553356061376;
}),
(988,0,l),
(988,70,l),
(202,70,l)
);
}
);
width = 1079;
}
);
unicode = 90;
},
{
glyphname = Zcaron;
kernLeft = _Z;
kernRight = _Z;
lastChange = "2024-05-25 11:48:25 +0000";
layers = (
{
associatedMasterId = "557D07FA-4833-462F-859E-332980C518A5";
layerId = "8B9C2315-63B1-430F-AFCA-A7E2B0E3FB05";
name = img;
width = 1079;
},
{
layerId = "4EE6A762-B31F-492D-BAD7-A15389DCB08F";
shapes = (
{
closed = 1;
nodes = (
(409,1585,l),
(657,1585,l),
(976,1879,l),
(723,1879,l),
(534,1773,l),
(343,1879,l),
(90,1879,l,{
name = ._.105553419772272;
})
);
},
{
closed = 1;
nodes = (
(1004,1314,l),
(1004,1456,l),
(47,1456,l),
(47,1212,l),
(614,1212,l),
(34,147,l),
(34,0,l),
(1013,0,l),
(1013,243,l),
(424,243,l)
);
}
);
width = 1043;
},
{
layerId = "7B7CA763-6202-4B35-9FCB-B97398BB2D53";
shapes = (
{
closed = 1;
nodes = (
(451,1585,l),
(621,1585,l),
(921,1878,l),
(759,1878,l),
(536,1728,l),
(313,1878,l),
(149,1878,l)
);
},
{
closed = 1;
nodes = (
(979,1337,l),
(979,1456,l),
(72,1456,l),
(72,1297,l),
(732,1297,l),
(54,120,l),
(54,0,l),
(998,0,l),
(998,158,l),
(302,158,l)
);
}
);
width = 1050;
},
{
layerId = "80A40485-F9FE-43F8-8BB8-E239AA3B9F7E";
shapes = (
{
closed = 1;
nodes = (
(467,1585,l),
(607,1585,l),
(901,1878,l),
(772,1878,l),
(537,1711,l),
(302,1878,l),
(171,1878,l,{
name = ._.105553419774192;
})
);
},
{
closed = 1;
nodes = (
(970,1346,l),
(970,1456,l),
(71,1456,l),
(71,1329,l),
(782,1329,l),
(61,110,l),
(61,0,l),
(992,0,l),
(992,127,l),
(253,127,l)
);
}
);
width = 1053;
},
{
guides = (
{
pos = (0,1939);
},
{
angle = 90;
pos = (215,0);
},
{
angle = 90;
pos = (866,0);
},
{
angle = 90;
pos = (539,0);
},
{
pos = (0,1388);
},
{
angle = 90;
pos = (91,0);
},
{
angle = 90;
pos = (-1274,0);
},
{
angle = 90;
pos = (-289,0);
},
{
angle = 90;
pos = (1350,0);
},
{
angle = 90;
pos = (2293,0);
},
{
angle = 90;
pos = (989,0);
}
);
layerId = "557D07FA-4833-462F-859E-332980C518A5";
shapes = (
{
closed = 1;
nodes = (
(511,1587,l),
(568,1587,l),
(864,1879,l),
(797,1879,l),
(539,1676,l),
(283,1879,l),
(216,1879,l,{
name = ._.105553419777392;
})
);
},
{
closed = 1;
nodes = (
(975,1391,l),
(975,1456,l,{
name = ._.105553419776272;
}),
(100,1456,l),
(100,1386,l,{
name = ._.105553419776432;
}),
(873,1386,l),
(91,59,l),
(91,0,l,{
name = ._.105553419776672;
}),
(988,0,l),
(988,70,l),
(202,70,l)
);
}
);
width = 1079;
}
);
unicode = 381;
},
{
color = (255,153,153,255);
glyphname = Itilde.alt;
kernLeft = _Itilde;
kernRight = _Itilde;
lastChange = "2024-05-25 11:48:25 +0000";
layers = (
{
guides = (
{
pos = (0,1892);
},
{
pos = (0,1590);
}
);
layerId = "4EE6A762-B31F-492D-BAD7-A15389DCB08F";
shapes = (
{
closed = 1;
nodes = (
(451,1894,l),
(444,1820,o),
(432,1794,o),
(400,1794,cs,{
name = hr01;
}),
(353,1794,o),
(305,1894,o),
(192,1894,cs),
(75,1894,o),
(14,1789,o),
(4,1620,c),
(167,1586,l),
(172,1663,o),
(179,1685,o),
(209,1685,cs,{
name = hr01;
}),
(250,1685,o),
(315,1586,o),
(429,1586,cs),
(545,1586,o),
(605,1691,o),
(615,1860,c)
);
},
{
alignment = -1;
ref = I;
}
);
width = 622;
},
{
layerId = "7B7CA763-6202-4B35-9FCB-B97398BB2D53";
shapes = (
{
closed = 1;
nodes = (
(470,1859,l),
(468,1793,o),
(445,1762,o),
(408,1762,cs),
(350,1762,o),
(311,1850,o),
(193,1850,cs),
(92,1850,o),
(15,1764,o),
(12,1630,c),
(122,1609,l),
(124,1668,o),
(148,1700,o),
(187,1700,cs),
(249,1700,o),
(289,1617,o),
(405,1617,cs),
(500,1617,o),
(576,1700,o),
(579,1836,c)
);
},
{
alignment = -1;
ref = I;
}
);
width = 583;
},
{
guides = (
{
pos = (0,1858);
},
{
pos = (0,1618);
},
{
pos = (0,1630);
},
{
pos = (0,1843);
}
);
layerId = "80A40485-F9FE-43F8-8BB8-E239AA3B9F7E";
shapes = (
{
closed = 1;
nodes = (
(477,1847,l),
(477,1783,o),
(450,1751,o),
(411,1751,cs),
(342,1751,o),
(313,1834,o),
(194,1834,cs,{
name = hr01;
}),
(98,1834,o),
(15,1755,o),
(15,1634,c),
(106,1618,l),
(106,1670,o),
(137,1706,o),
(179,1706,cs),
(255,1706,o),
(280,1629,o),
(396,1629,cs,{
name = hr02;
}),
(483,1629,o),
(566,1704,o),
(566,1827,c)
);
},
{
alignment = -1;
ref = I;
}
);
width = 568;
},
{
layerId = "557D07FA-4833-462F-859E-332980C518A5";
shapes = (
{
closed = 1;
nodes = (
(474,1822,l),
(474,1759,o),
(447,1721,o),
(392,1721,cs),
(331,1721,o),
(279,1811,o),
(162,1811,cs,{
name = hr01;
}),
(81,1811,o),
(22,1751,o),
(22,1650,c),
(74,1639,l),
(74,1674,o),
(85,1739,o),
(153,1739,cs),
(232,1739,o),
(286,1649,o),
(382,1649,cs,{
name = hr02;
}),
(469,1649,o),
(523,1708,o),
(523,1809,c)
);
},
{
alignment = -1;
ref = I;
}
);
width = 532;
}
);
},
{
color = 2;
glyphname = Oslash.light;
kernLeft = _O;
kernRight = _O;
lastChange = "2024-05-29 01:49:52 +0000";
layers = (
{
layerId = "557D07FA-4833-462F-859E-332980C518A5";
shapes = (
{
closed = 1;
nodes = (
(264,-137,l),
(376.449,73.933,l),
(459.1,11.731,o),
(559.743,-21,o),
(672,-21,cs,{
name = ._.105553290042160;
}),
(981,-21,o),
(1202,227,o),
(1202,655,cs,{
name = ._.105553290047040;
}),
(1202,769,ls),
(1202,1007.249,o),
(1142.665,1193.328,o),
(1037.96,1314.808,c),
(1182,1585,l,{
name = ._.105553357323824;
}),
(1099,1585,l),
(983.22,1368.995,l),
(899.259,1439.547,o),
(793.889,1477,o),
(672,1477,cs,{
name = ._.105553290035440;
}),
(349,1477,o),
(142,1214,o),
(142,769,cs,{
name = ._.105553290035840;
}),
(142,655,ls),
(142,421.783,o),
(207.618,242.011,o),
(317.337,126.685,c),
(176,-137,l,{
name = ._.105553357357536;
})
);
},
{
closed = 1;
nodes = (
(573.008,49,o),
(486.481,85.563,o),
(416.851,149.72,c),
(994.174,1232.673,l),
(1068.64,1125.235,o),
(1114,968.418,o),
(1114,763,cs),
(1114,667,ls),
(1114,293,o),
(940,49,o),
(672,49,cs)
);
},
{
closed = 1;
nodes = (
(230,763,ls,{
name = ._.105553290045440;
}),
(230,1190,o),
(426,1407,o),
(672,1407,cs),
(774.615,1407,o),
(868.53,1369.242,o),
(943.148,1294.234,c),
(362.146,210.285,l),
(278.151,321.301,o),
(230,481.839,o),
(230,667,cs)
);
}
);
width = 1344;
},
{
layerId = "80A40485-F9FE-43F8-8BB8-E239AA3B9F7E";
shapes = (
{
closed = 1;
nodes = (
(313,-137,l),
(402.491,43.132,l),
(476.056,0.771,o),
(561.928,-21,o),
(657,-21,cs,{
name = ._.105553290040960;
}),
(978,-21,o),
(1197,218,o),
(1197,653,cs,{
name = ._.105553290036800;
}),
(1197,791,ls),
(1197,1021.332,o),
(1137.814,1198.81,o),
(1034.608,1315.489,c),
(1169,1586,l,{
name = ._.105553357319664;
}),
(1027,1586,l),
(934.943,1400.92,l),
(856.257,1451.014,o),
(762.415,1477,o),
(657,1477,cs,{
name = ._.105553290048720;
}),
(324,1477,o),
(128,1221,o),
(128,764,cs,{
name = ._.105553290038400;
}),
(128,653,ls),
(128,416.348,o),
(191.337,237.705,o),
(299.816,123.995,c),
(170,-137,l,{
name = ._.105553357320704;
})
);
},
{
closed = 1;
nodes = (
(581.168,108,o),
(517.313,129.249,o),
(465.315,169.587,c),
(957.441,1160.164,l),
(1005.33,1069.037,o),
(1032,945.27,o),
(1032,790,cs),
(1032,657,ls),
(1032,304,o),
(891,108,o),
(657,108,cs,{
name = ._.105553290048880;
})
);
},
{
closed = 1;
nodes = (
(293,790,ls,{
name = ._.105553290050240;
}),
(293,1157,o),
(437,1348,o),
(657,1348,cs,{
name = ._.105553290050800;
}),
(739.761,1348,o),
(812.195,1322.387,o),
(870.769,1271.897,c),
(375.967,277.098,l),
(320.509,377.535,o),
(293,519.803,o),
(293,696,cs)
);
}
);
width = 1325;
},
{
layerId = "7B7CA763-6202-4B35-9FCB-B97398BB2D53";
shapes = (
{
closed = 1;
nodes = (
(344,-137,l),
(423.457,29.347,l),
(492.27,-3.993,o),
(570.547,-21,o),
(656,-21,cs),
(978,-21,o),
(1202,216,o),
(1202,655,cs),
(1202,792,ls),
(1202,1022.905,o),
(1144.52,1201.683,o),
(1039.281,1318.613,c),
(1167,1586,l),
(994,1586,l),
(913.421,1417.303,l),
(839.636,1456.596,o),
(752.99,1477,o),
(655,1477,cs),
(317,1477,o),
(118,1222,o),
(118,759,cs),
(118,655,ls),
(118,415.137,o),
(183.38,235.578,o),
(294.728,122.033,c),
(171,-137,l)
);
},
{
closed = 1;
nodes = (
(594.379,139,o),
(541.386,153.984,o),
(496.936,183.181,c),
(942.041,1115.036,l),
(977.53,1032.596,o),
(997,924.917,o),
(997,792,cs),
(997,667,ls),
(997,319,o),
(871,139,o),
(656,139,cs)
);
},
{
closed = 1;
nodes = (
(322,783,ls),
(322,1140,o),
(449,1317,o),
(655,1317,cs),
(724.658,1317,o),
(786.163,1297.183,o),
(837.114,1257.549,c),
(387.455,316.161,l),
(343.701,408.85,o),
(322,536.543,o),
(322,696,cs)
);
}
);
width = 1320;
},
{
layerId = "4EE6A762-B31F-492D-BAD7-A15389DCB08F";
shapes = (
{
closed = 1;
nodes = (
(411,-137,l),
(472.281,5.768,l),
(528.526,-12.032,o),
(589.454,-21,o),
(654,-21,cs,{
name = ._.105553290213120;
}),
(981,-21,o),
(1216,212,o),
(1216,660,cs,{
name = ._.105553290208960;
}),
(1216,795,ls),
(1216,1033.631,o),
(1161.202,1219.68,o),
(1043.583,1336.748,c),
(1151,1587,l,{
name = ._.105553357314304;
}),
(908,1587,l),
(849.351,1450.363,l),
(791.043,1467.918,o),
(725.358,1477,o),
(652,1477,cs,{
name = ._.105553290213840;
}),
(299,1477,o),
(90,1223,o),
(90,744,cs,{
name = ._.105553290213440;
}),
(90,660,ls),
(90,414.562,o),
(160.533,233.655,o),
(278.415,120.238,c),
(168,-137,l,{
name = ._.105553357315344;
})
);
},
{
closed = 1;
nodes = (
(623.691,223,o),
(596.147,227.418,o),
(571.345,236.562,c),
(889.442,977.64,l),
(898.985,926.034,o),
(904,865.995,o),
(904,797,cs),
(904,694,ls),
(904,360,o),
(819,223,o),
(654,223,cs,{
name = ._.105553290209680;
})
);
},
{
closed = 1;
nodes = (
(401,763,ls,{
name = ._.105553290263552;
}),
(401,1093,o),
(482,1232,o),
(652,1232,cs,{
name = ._.105553290249152;
}),
(686.637,1232,o),
(718.441,1225.424,o),
(746.934,1211.759,c),
(421.709,454.073,l),
(407.871,518.929,o),
(401,598.476,o),
(401,694,cs)
);
}
);
width = 1306;
}
);
},
{
glyphname = a;
kernLeft = _a;
kernRight = _a;
lastChange = "2024-05-28 21:18:54 +0000";
layers = (
{
anchors = (
{
name = top;
pos = (559,1122);
}
);
guides = (
{
angle = 90;
pos = (-947,0);
},
{
angle = 90;
pos = (-709,0);
}
);
layerId = "4EE6A762-B31F-492D-BAD7-A15389DCB08F";
shapes = (
{
closed = 1;
nodes = (
(990,139,l),
(945,177,o),
(934,207,o),
(934,318,cs),
(934,781,ls,{
name = ._.105553356036032;
}),
(934,1020,o),
(767,1142,o),
(559,1142,cs,{
name = ._.105553356032512;
}),
(378,1142,o),
(219,1087,o),
(109,1014,c),
(189,823,l),
(273,869,o),
(374,911,o),
(484,911,cs,{
name = ._.105553356034272;
}),
(574,911,o),
(622,882,o),
(622,781,cs,{
name = ._.105553356032272;
}),
(622,683,l),
(507,683,ls,{
name = ._.105553356033232;
}),
(204,683,o),
(60,543,o),
(60,318,cs,{
name = ._.105553356033152;
}),
(60,117,o),
(181,-21,o),
(381,-21,cs,{
name = ._.105553356035952;
}),
(496,-21,o),
(592,38,o),
(651,126,c),
(685,41,o),
(793,-18,o),
(871,-22,c,{
name = ._.105553356030672;
})
);
},
{
closed = 1;
nodes = (
(411,210,o),
(370,259,o),
(370,332,cs,{
name = ._.105553356031312;
}),
(370,426,o),
(420,480,o),
(521,480,cs,{
name = ._.105553356034752;
}),
(622,480,l),
(622,287,l),
(590,242,o),
(535,210,o),
(473,210,cs)
);
}
);
width = 1065;
},
{
anchors = (
{
name = top;
pos = (531,1086);
}
);
layerId = "7B7CA763-6202-4B35-9FCB-B97398BB2D53";
shapes = (
{
closed = 1;
nodes = (
(949,94,l),
(906,130,o),
(894,181,o),
(894,244,cs),
(894,748,ls),
(894,981,o),
(746,1107,o),
(535,1107,cs),
(341,1107,o),
(205,1029,o),
(136,977,c),
(199,851,l),
(267,902,o),
(375,952,o),
(493,953,cs),
(629,954,o),
(691,877,o),
(691,750,cs),
(691,644,l),
(511,644,ls),
(236,644,o),
(76,511,o),
(76,300,cs),
(76,103,o),
(199,-21,o),
(395,-21,cs),
(524,-21,o),
(643,44,o),
(710,143,c),
(728,64,o),
(801,1,o),
(860,-20,c)
);
},
{
closed = 1;
nodes = (
(337,139,o),
(280,206,o),
(280,304,cs),
(280,417,o),
(357,497,o),
(514,497,cs),
(691,497,l),
(691,297,l),
(655,208,o),
(547,139,o),
(442,139,cs)
);
}
);
width = 1059;
},
{
anchors = (
{
name = top;
pos = (529,1074);
}
);
layerId = "80A40485-F9FE-43F8-8BB8-E239AA3B9F7E";
shapes = (
{
closed = 1;
nodes = (
(934,78,l),
(892,113,o),
(879,171,o),
(879,217,cs),
(879,736,ls,{
name = ._.105553356037152;
}),
(879,967,o),
(739,1095,o),
(526,1095,cs,{
name = ._.105553356034112;
}),
(327,1095,o),
(199,1008,o),
(146,964,c),
(202,862,l),
(265,914,o),
(374.996,967.24,o),
(496,969,cs,{
name = ._.105553356039072;
}),
(649.997,971.24,o),
(717,875,o),
(717,738,cs,{
name = ._.105553356039152;
}),
(717,626,l),
(512,626,ls,{
name = ._.105553356039872;
}),
(246,626,o),
(82,502,o),
(82,295,cs,{
name = ._.105553356040272;
}),
(82,98,o),
(206,-21,o),
(400,-21,cs,{
name = ._.105553356039472;
}),
(535,-21,o),
(662,47,o),
(732,149,c),
(744,72,o),
(804,8,o),
(856,-19,c,{
name = ._.105553356040752;
})
);
},
{
closed = 1;
nodes = (
(309,113,o),
(245,186,o),
(245,294,cs,{
name = ._.105553356041072;
}),
(245,414,o),
(333,508,o),
(511,508,cs,{
name = ._.105553356040912;
}),
(717,508,l),
(717,301,l),
(680,196,o),
(552,113,o),
(431,113,cs)
);
}
);
width = 1057;
},
{
anchors = (
{
name = top;
pos = (538,1059);
}
);
guides = (
{
pos = (0,1081);
}
);
layerId = "557D07FA-4833-462F-859E-332980C518A5";
shapes = (
{
closed = 1;
nodes = (
(913,33,l),
(877,67,o),
(865,150,o),
(865,171,cs),
(865,733,ls,{
name = ._.105553356046192;
}),
(865,960,o),
(742,1081,o),
(533,1081,cs,{
name = ._.105553356044432;
}),
(343,1081,o),
(236,1004,o),
(181,957,c),
(217,902,l),
(280,957,o),
(392,1010,o),
(506,1012,cs),
(702,1016,o),
(777,888,o),
(777,733,cs,{
name = ._.105553356044112;
}),
(777,598,l),
(527,598,ls,{
name = ._.105553356044912;
}),
(265,598,o),
(106,490,o),
(106,285,cs,{
name = ._.105553356041552;
}),
(106,89,o),
(251,-21,o),
(423,-21,cs,{
name = ._.105553356045872;
}),
(578,-21,o),
(706,52,o),
(781,162,c),
(791,71,o),
(821,25,o),
(863,-18,c,{
name = ._.105553356045792;
})
);
},
{
closed = 1;
nodes = (
(281,60,o),
(194,151,o),
(194,285,cs,{
name = ._.105553356032032;
}),
(194,417,o),
(290,527,o),
(527,527,cs,{
name = ._.105553356033072;
}),
(777,527,l),
(777,283,l),
(737,148,o),
(571,60,o),
(441,60,cs)
);
}
);
width = 1076;
}
);
unicode = 97;
},
{
glyphname = aacute;
kernLeft = _a;
kernRight = _a;
lastChange = "2024-05-25 11:48:25 +0000";
layers = (
{
guides = (
{
angle = 90;
pos = (-947,0);
},
{
angle = 90;
pos = (-709,0);
},
{
pos = (0,1235);
}
);
layerId = "4EE6A762-B31F-492D-BAD7-A15389DCB08F";
shapes = (
{
closed = 1;
nodes = (
(295,1235,l),
(541,1235,l),
(944,1560,l),
(548,1560,l,{
name = ._.105553356925088;
})
);
},
{
closed = 1;
nodes = (
(990,139,l),
(945,177,o),
(934,207,o),
(934,318,cs),
(934,781,ls,{
name = ._.105553356921408;
}),
(934,1020,o),
(767,1142,o),
(559,1142,cs,{
name = ._.105553356921648;
}),
(378,1142,o),
(219,1087,o),
(109,1014,c),
(189,823,l),
(273,869,o),
(374,911,o),
(484,911,cs,{
name = ._.105553356922208;
}),
(574,911,o),
(622,882,o),
(622,781,cs,{
name = ._.105553356922448;
}),
(622,669,l),
(507,669,ls,{
name = ._.105553356922608;
}),
(208,669,o),
(60,536,o),
(60,315,cs,{
name = ._.105553356922848;
}),
(60,117,o),
(181,-21,o),
(381,-21,cs,{
name = ._.105553356923088;
}),
(496,-21,o),
(592,38,o),
(651,126,c),
(685,41,o),
(793,-18,o),
(871,-22,c,{
name = ._.105553356923568;
})
);
},
{
closed = 1;
nodes = (
(411,210,o),
(370,259,o),
(370,332,cs,{
name = ._.105553356923808;
}),
(370,426,o),
(420,486,o),
(521,486,c,{
name = ._.105553356924048;
}),
(622,486,l),
(622,287,l),
(590,242,o),
(535,210,o),
(473,210,cs,{
name = ._.105553356920368;
})
);
}
);
width = 1065;
},
{
layerId = "7B7CA763-6202-4B35-9FCB-B97398BB2D53";
shapes = (
{
closed = 1;
nodes = (
(346,1229,l),
(504,1229,l),
(875,1559,l),
(607,1559,l)
);
},
{
closed = 1;
nodes = (
(949,94,l),
(906,130,o),
(894,181,o),
(894,244,cs),
(894,748,ls),
(894,981,o),
(746,1107,o),
(535,1107,cs),
(341,1107,o),
(205,1029,o),
(136,977,c),
(199,851,l),
(267,902,o),
(375,952,o),
(493,953,cs),
(629,954,o),
(691,877,o),
(691,750,cs),
(691,638,l),
(511,638,ls),
(236,638,o),
(76,511,o),
(76,300,cs),
(76,103,o),
(199,-21,o),
(395,-21,cs),
(524,-21,o),
(643,44,o),
(710,143,c),
(728,64,o),
(801,1,o),
(860,-20,c)
);
},
{
closed = 1;
nodes = (
(337,139,o),
(279,206,o),
(279,304,cs),
(279,417,o),
(357,502,o),
(514,502,cs),
(691,502,l),
(691,297,l),
(655,208,o),
(547,139,o),
(442,139,cs)
);
}
);
width = 1059;
},
{
guides = (
{
pos = (0,1228);
}
);
layerId = "80A40485-F9FE-43F8-8BB8-E239AA3B9F7E";
shapes = (
{
closed = 1;
nodes = (
(365,1231,l),
(491,1231,l),
(849,1559,l),
(629,1559,l,{
name = ._.105553356964320;
})
);
},
{
closed = 1;
nodes = (
(934,78,l),
(892,113,o),
(879,171,o),
(879,217,cs),
(879,736,ls,{
name = ._.105553356927808;
}),
(879,967,o),
(739,1095,o),
(526,1095,cs,{
name = ._.105553356928048;
}),
(327,1095,o),
(199,1008,o),
(146,964,c),
(202,862,l),
(265,914,o),
(375,967,o),
(496,969,cs,{
name = ._.105553356928608;
}),
(650,971,o),
(717,875,o),
(717,738,cs,{
name = ._.105553356928848;
}),
(717,626,l),
(512,626,ls,{
name = ._.105553356929008;
}),
(246,626,o),
(82,502,o),
(82,295,cs,{
name = ._.105553356929248;
}),
(82,98,o),
(206,-21,o),
(400,-21,cs,{
name = ._.105553356929488;
}),
(535,-21,o),
(662,47,o),
(732,149,c),
(744,72,o),
(804,8,o),
(856,-19,c,{
name = ._.105553356929968;
})
);
},
{
closed = 1;
nodes = (
(309,113,o),
(245,186,o),
(245,294,cs,{
name = ._.105553356930208;
}),
(245,414,o),
(333,508,o),
(511,508,cs,{
name = ._.105553356930448;
}),
(717,508,l),
(717,301,l),
(680,196,o),
(552,113,o),
(431,113,cs,{
name = ._.105553356927088;
})
);
}
);
width = 1057;
},
{
guides = (
{
pos = (0,1557);
}
);
layerId = "557D07FA-4833-462F-859E-332980C518A5";
shapes = (
{
closed = 1;
nodes = (
(400,1225,l),
(468,1225,l),
(798,1557,l),
(668,1557,l,{
name = ._.105553356968800;
})
);
},
{
closed = 1;
nodes = (
(913,33,l),
(877,67,o),
(865,150,o),
(865,171,cs),
(865,733,ls,{
name = ._.105553356965280;
}),
(865,960,o),
(742,1081,o),
(533,1081,cs,{
name = ._.105553356965520;
}),
(343,1081,o),
(236,1004,o),
(181,957,c),
(217,902,l),
(280,957,o),
(392,1010,o),
(506,1012,cs,{
name = ._.105553356966080;
}),
(702,1016,o),
(777,888,o),
(777,733,cs,{
name = ._.105553356966320;
}),
(777,598,l),
(527,598,ls,{
name = ._.105553356966480;
}),
(265,598,o),
(106,490,o),
(106,285,cs,{
name = ._.105553356966720;
}),
(106,89,o),
(251,-21,o),
(423,-21,cs,{
name = ._.105553356966960;
}),
(578,-21,o),
(706,52,o),
(781,162,c),
(791,71,o),
(821,25,o),
(863,-18,c,{
name = ._.105553356967440;
})
);
},
{
closed = 1;
nodes = (
(281,60,o),
(194,151,o),
(194,285,cs,{
name = ._.105553356967680;
}),
(194,417,o),
(290,527,o),
(527,527,cs,{
name = ._.105553356967920;
}),
(777,527,l),
(777,283,l),
(737,148,o),
(571,60,o),
(441,60,cs)
);
}
);
width = 1076;
}
);
unicode = 225;
},
{
glyphname = acircumflex;
kernLeft = _a;
kernRight = _a;
lastChange = "2024-05-25 11:48:25 +0000";
layers = (
{
guides = (
{
pos = (0,1233);
},
{
angle = 90;
pos = (-947,0);
},
{
angle = 90;
pos = (-709,0);
}
);
layerId = "4EE6A762-B31F-492D-BAD7-A15389DCB08F";
shapes = (
{
closed = 1;
nodes = (
(649,1560,l),
(400,1560,l),
(102,1235,l),
(355,1235,l),
(524,1364,l),
(695,1235,l),
(948,1235,l)
);
},
{
closed = 1;
nodes = (
(990,139,l),
(945,177,o),
(934,207,o),
(934,318,cs),
(934,781,ls),
(934,1020,o),
(767,1142,o),
(559,1142,cs),
(378,1142,o),
(219,1087,o),
(109,1014,c),
(189,823,l),
(273,869,o),
(374,911,o),
(484,911,cs),
(574,911,o),
(622,882,o),
(622,781,cs),
(622,669,l),
(507,669,ls),
(208,669,o),
(60,536,o),
(60,315,cs),
(60,117,o),
(181,-21,o),
(381,-21,cs),
(496,-21,o),
(592,38,o),
(651,126,c),
(685,41,o),
(793,-18,o),
(871,-22,c)
);
},
{
closed = 1;
nodes = (
(411,210,o),
(370,259,o),
(370,332,cs),
(370,426,o),
(420,486,o),
(521,486,cs),
(622,486,l),
(622,287,l),
(590,242,o),
(535,210,o),
(473,210,cs)
);
}
);
width = 1065;
},
{
layerId = "7B7CA763-6202-4B35-9FCB-B97398BB2D53";
shapes = (
{
closed = 1;
nodes = (
(601,1559,l),
(451,1559,l),
(173,1228,l),
(336,1228,l),
(525,1399,l),
(717,1228,l),
(881,1228,l)
);
},
{
closed = 1;
nodes = (
(949,94,l),
(906,130,o),
(894,181,o),
(894,244,cs),
(894,748,ls),
(894,981,o),
(746,1107,o),
(535,1107,cs),
(341,1107,o),
(205,1029,o),
(136,977,c),
(199,851,l),
(267,902,o),
(375,952,o),
(493,953,cs),
(629,954,o),
(691,877,o),
(691,750,cs),
(691,638,l),
(511,638,ls),
(236,638,o),
(76,511,o),
(76,300,cs),
(76,103,o),
(199,-21,o),
(395,-21,cs),
(524,-21,o),
(643,44,o),
(710,143,c),
(728,64,o),
(801,1,o),
(860,-20,c)
);
},
{
closed = 1;
nodes = (
(337,139,o),
(279,206,o),
(279,304,cs),
(279,417,o),
(357,502,o),
(514,502,cs),
(691,502,l),
(691,297,l),
(655,208,o),
(547,139,o),
(442,139,cs)
);
}
);
width = 1059;
},
{
guides = (
{
pos = (0,1228);
}
);
layerId = "80A40485-F9FE-43F8-8BB8-E239AA3B9F7E";
shapes = (
{
closed = 1;
nodes = (
(581,1559,l),
(468,1559,l),
(198,1228,l),
(327,1228,l),
(524,1413,l),
(724,1228,l),
(855,1228,l)
);
},
{
closed = 1;
nodes = (
(934,78,l),
(892,113,o),
(879,171,o),
(879,217,cs),
(879,736,ls),
(879,967,o),
(739,1095,o),
(526,1095,cs),
(327,1095,o),
(199,1008,o),
(146,964,c),
(202,862,l),
(265,914,o),
(375,967,o),
(496,969,cs,{
name = hr01;
}),
(650,971,o),
(717,875,o),
(717,738,cs),
(717,626,l),
(512,626,ls),
(246,626,o),
(82,502,o),
(82,295,cs),
(82,98,o),
(206,-21,o),
(400,-21,cs),
(535,-21,o),
(662,47,o),
(732,149,c),
(744,72,o),
(804,8,o),
(856,-19,c)
);
},
{
closed = 1;
nodes = (
(309,113,o),
(245,186,o),
(245,294,cs),
(245,414,o),
(333,508,o),
(511,508,cs),
(717,508,l),
(717,301,l),
(680,196,o),
(552,113,o),
(431,113,cs)
);
}
);
width = 1057;
},
{
layerId = "557D07FA-4833-462F-859E-332980C518A5";
shapes = (
{
closed = 1;
nodes = (
(562,1558,l),
(505,1558,l,{
name = ._.105553356978480;
}),
(243,1226,l),
(310,1226,l),
(534,1454,l,{
name = ._.105553356979040;
}),
(764,1226,l,{
name = ._.105553356979120;
}),
(831,1226,l)
);
},
{
closed = 1;
nodes = (
(913,33,l),
(877,67,o),
(865,150,o),
(865,171,cs),
(865,733,ls,{
name = ._.105553356975440;
}),
(865,960,o),
(742,1081,o),
(533,1081,cs,{
name = ._.105553356975680;
}),
(343,1081,o),
(236,1004,o),
(181,957,c),
(217,902,l),
(280,957,o),
(392.004,1009.794,o),
(506,1012,cs,{
name = ._.105553356976240;
}),
(702.004,1015.794,o),
(777,888,o),
(777,733,cs,{
name = ._.105553356976480;
}),
(777,598,l,{
name = ._.105553356976560;
}),
(527,598,ls,{
name = ._.105553356976640;
}),
(265,598,o),
(106,490,o),
(106,285,cs,{
name = ._.105553356976880;
}),
(106,89,o),
(251,-21,o),
(423,-21,cs,{
name = ._.105553356977120;
}),
(578,-21,o),
(706,52,o),
(781,162,c),
(791,71,o),
(821,25,o),
(863,-18,c,{
name = ._.105553356977600;
})
);
},
{
closed = 1;
nodes = (
(281,60,o),
(194,151,o),
(194,285,cs,{
name = ._.105553356977840;
}),
(194,417,o),
(290,527,o),
(527,527,cs,{
name = ._.105553356978080;
}),
(777,527,l),
(777,283,l),
(737,148,o),
(571,60,o),
(441,60,cs,{
name = ._.105553356974880;
})
);
}
);
width = 1076;
}
);
unicode = 226;
},
{
glyphname = adieresis;
kernLeft = _a;
kernRight = _a;
lastChange = "2024-05-25 11:48:25 +0000";
layers = (
{
guides = (
{
angle = 90;
pos = (-947,0);
},
{
angle = 90;
pos = (-709,0);
},
{
pos = (0,1248);
showMeasurement = 1;
},
{
pos = (0,1479);
}
);
layerId = "4EE6A762-B31F-492D-BAD7-A15389DCB08F";
shapes = (
{
closed = 1;
nodes = (
(440,1479,l,{
name = ._.105553357001008;
}),
(169,1479,l,{
name = ._.105553357001168;
}),
(169,1248,l,{
name = ._.105553357001248;
}),
(440,1248,l)
);
},
{
closed = 1;
nodes = (
(990,139,l),
(945,177,o),
(934,207,o),
(934,318,cs),
(934,781,ls,{
name = ._.105553356997888;
}),
(934,1020,o),
(767,1142,o),
(559,1142,cs,{
name = ._.105553356998128;
}),
(378,1142,o),
(219,1087,o),
(109,1014,c),
(189,823,l),
(273,869,o),
(374,911,o),
(484,911,cs,{
name = ._.105553356998688;
}),
(574,911,o),
(622,882,o),
(622,781,cs),
(622,669,l),
(507,669,ls,{
name = ._.105553356999088;
}),
(208,669,o),
(60,536,o),
(60,315,cs,{
name = ._.105553356999328;
}),
(60,117,o),
(181,-21,o),
(381,-21,cs,{
name = ._.105553356999568;
}),
(496,-21,o),
(592,38,o),
(651,126,c),
(685,41,o),
(793,-18,o),
(871,-22,c,{
name = ._.105553357000048;
})
);
},
{
closed = 1;
nodes = (
(411,210,o),
(370,259,o),
(370,332,cs,{
name = ._.105553357000288;
}),
(370,426,o),
(420,486,o),
(521,486,cs,{
name = ._.105553357000528;
}),
(622,486,l),
(622,287,l),
(590,242,o),
(535,210,o),
(473,210,cs,{
name = ._.105553356996768;
})
);
},
{
closed = 1;
nodes = (
(890,1479,l,{
name = ._.105553357001408;
}),
(620,1479,l,{
name = ._.105553357001568;
}),
(620,1248,l,{
name = ._.105553357001648;
}),
(890,1248,l)
);
}
);
width = 1065;
},
{
layerId = "7B7CA763-6202-4B35-9FCB-B97398BB2D53";
shapes = (
{
closed = 1;
nodes = (
(414,1478,l),
(223,1478,l),
(223,1286,l),
(414,1286,l)
);
},
{
closed = 1;
nodes = (
(949,94,l),
(906,130,o),
(894,181,o),
(894,244,cs),
(894,748,ls),
(894,981,o),
(747,1107,o),
(535,1107,cs),
(341,1107,o),
(204,1029,o),
(136,977,c),
(198,851,l),
(267,902,o),
(375,952,o),
(493,953,cs),
(629,954,o),
(691,877,o),
(691,750,cs),
(691,638,l),
(511,638,ls),
(236,638,o),
(76,511,o),
(76,300,cs),
(76,103,o),
(199,-21,o),
(395,-21,cs),
(525,-21,o),
(643,44,o),
(710,143,c),
(728,64,o),
(801,1,o),
(860,-20,c)
);
},
{
closed = 1;
nodes = (
(337,139,o),
(279,206,o),
(279,304,cs),
(279,417,o),
(357,502,o),
(514,502,cs),
(691,502,l),
(691,297,l),
(656,208,o),
(547,139,o),
(443,139,cs)
);
},
{
closed = 1;
nodes = (
(831,1478,l),
(641,1478,l),
(641,1286,l),
(831,1286,l)
);
}
);
width = 1059;
},
{
layerId = "80A40485-F9FE-43F8-8BB8-E239AA3B9F7E";
shapes = (
{
closed = 1;
nodes = (
(404,1472,l,{
name = ._.105553357008128;
}),
(243,1472,l,{
name = ._.105553357008288;
}),
(243,1307,l,{
name = ._.105553357008368;
}),
(404,1307,l)
);
},
{
closed = 1;
nodes = (
(934,78,l),
(892,113,o),
(879,171,o),
(879,217,cs),
(879,736,ls,{
name = ._.105553357005088;
}),
(879,967,o),
(739,1095,o),
(526,1095,cs,{
name = ._.105553357005328;
}),
(327,1095,o),
(199,1008,o),
(146,964,c),
(202,862,l),
(265,914,o),
(375,967,o),
(496,969,cs,{
name = ._.105553357005888;
}),
(650,971,o),
(717,875,o),
(717,738,cs,{
name = ._.105553357006128;
}),
(717,626,l),
(512,626,ls,{
name = ._.105553357006288;
}),
(246,626,o),
(82,502,o),
(82,295,cs,{
name = ._.105553357006528;
}),
(82,98,o),
(206,-21,o),
(400,-21,cs,{
name = ._.105553357006768;
}),
(535,-21,o),
(662,47,o),
(732,149,c),
(744,72,o),
(804,8,o),
(856,-19,c,{
name = ._.105553357007248;
})
);
},
{
closed = 1;
nodes = (
(309,113,o),
(245,186,o),
(245,294,cs,{
name = hr01;
}),
(245,414,o),
(333,508,o),
(511,508,cs,{
name = ._.105553357007728;
}),
(717,508,l),
(717,301,l),
(680,196,o),
(552,113,o),
(431,113,cs,{
name = ._.105553357004528;
})
);
},
{
closed = 1;
nodes = (
(809,1472,l,{
name = ._.105553357008528;
}),
(649,1472,l,{
name = ._.105553357008688;
}),
(649,1307,l),
(809,1307,l)
);
}
);
width = 1057;
},
{
layerId = "557D07FA-4833-462F-859E-332980C518A5";
shapes = (
{
closed = 1;
nodes = (
(405,1455,l,{
name = ._.105553356980384;
}),
(313,1455,l,{
name = ._.105553356980464;
}),
(313,1345,l,{
name = ._.105553356980544;
}),
(405,1345,l)
);
},
{
closed = 1;
nodes = (
(913,33,l),
(877,67,o),
(865,150,o),
(865,171,cs),
(865,733,ls,{
name = ._.105553357009968;
}),
(865,960,o),
(742,1081,o),
(533,1081,cs,{
name = ._.105553357010208;
}),
(343,1081,o),
(236,1004,o),
(181,957,c),
(217,902,l),
(280,957,o),
(392,1010,o),
(506,1012,cs,{
name = ._.105553357010768;
}),
(702,1016,o),
(777,888,o),
(777,733,cs,{
name = ._.105553357011008;
}),
(777,598,l),
(527,598,ls,{
name = ._.105553357011168;
}),
(265,598,o),
(106,490,o),
(106,285,cs,{
name = ._.105553357011408;
}),
(106,89,o),
(251,-21,o),
(423,-21,cs,{
name = ._.105553357011648;
}),
(578,-21,o),
(706,52,o),
(781,162,c),
(791,71,o),
(821,25,o),
(863,-18,c,{
name = ._.105553357012128;
})
);
},
{
closed = 1;
nodes = (
(281,60,o),
(194,151,o),
(194,285,cs,{
name = ._.105553357012368;
}),
(194,417,o),
(290,527,o),
(527,527,cs,{
name = ._.105553357012608;
}),
(777,527,l),
(777,283,l),
(737,148,o),
(571,60,o),
(441,60,cs)
);
},
{
closed = 1;
nodes = (
(758,1455,l,{
name = ._.105553356980704;
}),
(666,1455,l,{
name = ._.105553356980864;
}),
(666,1345,l),
(758,1345,l)
);
}
);
width = 1076;
}
);
unicode = 228;
},
{
glyphname = agrave;
kernLeft = _a;
kernRight = _a;
lastChange = "2024-05-25 11:48:25 +0000";
layers = (
{
guides = (
{
angle = 90;
pos = (-947,0);
},
{
angle = 90;
pos = (-709,0);
},
{
pos = (0,1235);
}
);
layerId = "4EE6A762-B31F-492D-BAD7-A15389DCB08F";
shapes = (
{
closed = 1;
nodes = (
(503,1560,l,{
name = ._.105553356941392;
}),
(107,1560,l),
(514,1235,l),
(760,1235,l)
);
},
{
closed = 1;
nodes = (
(990,139,l),
(945,177,o),
(934,207,o),
(934,318,cs),
(934,781,ls,{
name = ._.105553356938352;
}),
(934,1020,o),
(767,1142,o),
(559,1142,cs,{
name = ._.105553356938592;
}),
(378,1142,o),
(219,1087,o),
(109,1014,c),
(189,823,l),
(273,869,o),
(374,911,o),
(484,911,cs,{
name = ._.105553356939152;
}),
(574,911,o),
(622,882,o),
(622,781,cs,{
name = ._.105553356939392;
}),
(622,669,l),
(507,669,ls,{
name = ._.105553356939552;
}),
(208,669,o),
(60,536,o),
(60,315,cs,{
name = ._.105553356939792;
}),
(60,117,o),
(181,-21,o),
(381,-21,cs,{
name = ._.105553356940032;
}),
(496,-21,o),
(592,38,o),
(651,126,c),
(685,41,o),
(793,-18,o),
(871,-22,c,{
name = ._.105553356940512;
})
);
},
{
closed = 1;
nodes = (
(411,210,o),
(370,259,o),
(370,332,cs,{
name = ._.105553356940752;
}),
(370,426,o),
(420,486,o),
(521,486,cs,{
name = ._.105553356940992;
}),
(622,486,l),
(622,287,l),
(590,242,o),
(535,210,o),
(473,210,cs,{
name = ._.105553356937312;
})
);
}
);
width = 1065;
},
{
guides = (
{
pos = (0,1226);
}
);
layerId = "7B7CA763-6202-4B35-9FCB-B97398BB2D53";
shapes = (
{
closed = 1;
nodes = (
(450,1559,l),
(183,1559,l),
(553,1227,l),
(712,1227,l)
);
},
{
closed = 1;
nodes = (
(949,94,l),
(906,130,o),
(894,181,o),
(894,244,cs),
(894,748,ls),
(894,981,o),
(746,1107,o),
(535,1107,cs),
(341,1107,o),
(205,1029,o),
(136,977,c),
(199,851,l),
(267,902,o),
(375,952,o),
(493,953,cs),
(629,954,o),
(691,877,o),
(691,750,cs),
(691,638,l),
(511,638,ls),
(236,638,o),
(76,511,o),
(76,300,cs),
(76,103,o),
(199,-21,o),
(395,-21,cs),
(524,-21,o),
(643,44,o),
(710,143,c),
(728,64,o),
(801,1,o),
(860,-20,c)
);
},
{
closed = 1;
nodes = (
(337,139,o),
(279,206,o),
(279,304,cs),
(279,417,o),
(357,502,o),
(514,502,cs),
(691,502,l),
(691,297,l),
(655,208,o),
(547,139,o),
(442,139,cs)
);
}
);
width = 1059;
},
{
guides = (
{
pos = (0,1228);
}
);
layerId = "80A40485-F9FE-43F8-8BB8-E239AA3B9F7E";
shapes = (
{
closed = 1;
nodes = (
(431,1560,l,{
name = ._.105553356915088;
}),
(211,1560,l),
(568,1228,l),
(694,1228,l)
);
},
{
closed = 1;
nodes = (
(934,78,l),
(892,113,o),
(879,171,o),
(879,217,cs),
(879,736,ls,{
name = ._.105553356944912;
}),
(879,967,o),
(739,1095,o),
(526,1095,cs,{
name = ._.105553356945152;
}),
(327,1095,o),
(199,1008,o),
(146,964,c),
(202,862,l),
(265,914,o),
(375,967,o),
(496,969,cs,{
name = ._.105553356945712;
}),
(650,971,o),
(717,875,o),
(717,738,cs,{
name = ._.105553356945952;
}),
(717,626,l),
(512,626,ls,{
name = ._.105553356946112;
}),
(246,626,o),
(82,502,o),
(82,295,cs,{
name = ._.105553356946352;
}),
(82,98,o),
(206,-21,o),
(400,-21,cs,{
name = ._.105553356946592;
}),
(535,-21,o),
(662,47,o),
(732,149,c),
(744,72,o),
(804,8,o),
(856,-19,c,{
name = ._.105553356947072;
})
);
},
{
closed = 1;
nodes = (
(309,113,o),
(245,186,o),
(245,294,cs,{
name = ._.105553356947312;
}),
(245,414,o),
(333,508,o),
(511,508,cs,{
name = ._.105553356914688;
}),
(717,508,l),
(717,301,l),
(680,196,o),
(552,113,o),
(431,113,cs,{
name = ._.105553356944192;
})
);
}
);
width = 1057;
},
{
guides = (
{
pos = (0,1557);
}
);
layerId = "557D07FA-4833-462F-859E-332980C518A5";
shapes = (
{
closed = 1;
nodes = (
(401,1557,l,{
name = ._.105553356916048;
}),
(271,1557,l),
(601,1225,l),
(669,1225,l)
);
},
{
closed = 1;
nodes = (
(913,33,l),
(877,67,o),
(865,150,o),
(865,171,cs),
(865,733,ls,{
name = ._.105553356916688;
}),
(865,960,o),
(742,1081,o),
(533,1081,cs,{
name = ._.105553356916928;
}),
(343,1081,o),
(236,1004,o),
(181,957,c),
(217,902,l),
(280,957,o),
(392,1010,o),
(506,1012,cs,{
name = ._.105553356917488;
}),
(702,1016,o),
(777,888,o),
(777,733,cs,{
name = ._.105553356917728;
}),
(777,598,l),
(527,598,ls,{
name = ._.105553356917888;
}),
(265,598,o),
(106,490,o),
(106,285,cs,{
name = ._.105553356918128;
}),
(106,89,o),
(251,-21,o),
(423,-21,cs,{
name = ._.105553356918368;
}),
(578,-21,o),
(706,52,o),
(781,162,c),
(791,71,o),
(821,25,o),
(863,-18,c,{
name = ._.105553356918848;
})
);
},
{
closed = 1;
nodes = (
(281,60,o),
(194,151,o),
(194,285,cs,{
name = ._.105553356919088;
}),
(194,417,o),
(290,527,o),
(527,527,cs,{
name = ._.105553356919328;
}),
(777,527,l),
(777,283,l),
(737,148,o),
(571,60,o),
(441,60,cs)
);
}
);
width = 1076;
}
);
unicode = 224;
},
{
glyphname = aring;
kernLeft = _a;
kernRight = _a;
lastChange = "2024-05-25 11:48:25 +0000";
layers = (
{
guides = (
{
pos = (0,1601);
},
{
pos = (0,1225);
},
{
angle = 90;
pos = (-947,0);
},
{
angle = 90;
pos = (-709,0);
}
);
layerId = "4EE6A762-B31F-492D-BAD7-A15389DCB08F";
shapes = (
{
closed = 1;
nodes = (
(990,139,l),
(945,177,o),
(934,207,o),
(934,318,cs),
(934,781,ls,{
name = ._.105553356982784;
}),
(934,1020,o),
(767,1142,o),
(559,1142,cs,{
name = ._.105553356983024;
}),
(378,1142,o),
(219,1087,o),
(109,1014,c),
(189,823,l),
(273,869,o),
(374,911,o),
(484,911,cs,{
name = ._.105553356983584;
}),
(574,911,o),
(622,882,o),
(622,781,cs,{
name = ._.105553356983824;
}),
(622,669,l),
(507,669,ls,{
name = ._.105553356983984;
}),
(208,669,o),
(60,536,o),
(60,315,cs,{
name = ._.105553356984224;
}),
(60,117,o),
(181,-21,o),
(381,-21,cs,{
name = ._.105553356984464;
}),
(496,-21,o),
(592,38,o),
(651,126,c),
(685,41,o),
(793,-18,o),
(871,-22,c,{
name = ._.105553356984944;
})
);
},
{
closed = 1;
nodes = (
(411,210,o),
(370,259,o),
(370,332,cs,{
name = ._.105553356985184;
}),
(370,426,o),
(420,486,o),
(521,486,cs,{
name = ._.105553356985424;
}),
(622,486,l),
(622,287,l),
(590,242,o),
(535,210,o),
(473,210,cs,{
name = ._.105553356981104;
})
);
},
{
closed = 1;
nodes = (
(288,1295,o),
(381,1217,o),
(540,1217,cs),
(698,1217,o),
(788,1296,o),
(788,1411,cs),
(788,1523,o),
(698,1612,o),
(540,1612,cs),
(381,1612,o),
(288,1526,o),
(288,1411,cs)
);
},
{
closed = 1;
nodes = (
(458,1448,o),
(480,1495,o),
(540,1495,cs),
(598,1495,o),
(618,1448,o),
(618,1411,cs),
(618,1374,o),
(592,1332,o),
(540,1332,cs),
(484,1332,o),
(458,1375,o),
(458,1411,cs)
);
}
);
width = 1065;
},
{
layerId = "7B7CA763-6202-4B35-9FCB-B97398BB2D53";
shapes = (
{
closed = 1;
nodes = (
(949,94,l),
(906,130,o),
(894,181,o),
(894,244,cs),
(894,748,ls),
(894,981,o),
(747,1107,o),
(535,1107,cs),
(341,1107,o),
(205,1029,o),
(136,977,c),
(199,851,l),
(267,902,o),
(375,952,o),
(493,953,cs),
(629,954,o),
(691,877,o),
(691,750,cs),
(691,638,l),
(510,638,ls),
(236,638,o),
(76,511,o),
(76,300,cs),
(76,103,o),
(199,-21,o),
(395,-21,cs),
(524,-21,o),
(643,44,o),
(710,143,c),
(728,64,o),
(801,1,o),
(860,-20,c)
);
},
{
closed = 1;
nodes = (
(336,139,o),
(279,206,o),
(279,304,cs),
(279,417,o),
(356,502,o),
(513,502,cs),
(691,502,l),
(691,297,l),
(655,208,o),
(547,139,o),
(442,139,cs)
);
},
{
closed = 1;
nodes = (
(317,1288,o),
(404,1213,o),
(533,1213,cs),
(661,1213,o),
(746,1290,o),
(746,1400,cs),
(746,1509,o),
(662,1592,o),
(533,1592,cs),
(405,1592,o),
(317,1509,o),
(317,1400,cs)
);
},
{
closed = 1;
nodes = (
(440,1455,o),
(475,1496,o),
(533,1496,cs),
(590,1496,o),
(623,1455,o),
(623,1400,cs),
(623,1344,o),
(589,1307,o),
(533,1307,cs),
(475,1307,o),
(440,1347,o),
(440,1400,cs)
);
}
);
width = 1059;
},
{
layerId = "80A40485-F9FE-43F8-8BB8-E239AA3B9F7E";
shapes = (
{
closed = 1;
nodes = (
(934,78,l),
(892,113,o),
(879,171,o),
(879,217,cs),
(879,736,ls,{
name = ._.105553356990384;
}),
(879,967,o),
(739,1095,o),
(526,1095,cs,{
name = ._.105553356990624;
}),
(327,1095,o),
(199,1008,o),
(146,964,c),
(202,862,l),
(265,914,o),
(374.996,967.24,o),
(496,969,cs,{
name = ._.105553356991184;
}),
(649.997,971.24,o),
(717,875,o),
(717,738,cs,{
name = ._.105553356991424;
}),
(717,626,l),
(512,626,ls,{
name = ._.105553356991584;
}),
(246,626,o),
(82,502,o),
(82,295,cs,{
name = ._.105553356991824;
}),
(82,98,o),
(206,-21,o),
(400,-21,cs,{
name = ._.105553356992064;
}),
(535,-21,o),
(662,47,o),
(732,149,c),
(744,72,o),
(804,8,o),
(856,-19,c,{
name = ._.105553356992544;
})
);
},
{
closed = 1;
nodes = (
(309,113,o),
(245,186,o),
(245,294,cs,{
name = ._.105553356992784;
}),
(245,414,o),
(333,508,o),
(511,508,cs,{
name = ._.105553356993024;
}),
(717,508,l,{
name = hr01;
}),
(717,301,l),
(680,196,o),
(552,113,o),
(431,113,cs,{
name = ._.105553356989744;
})
);
},
{
closed = 1;
nodes = (
(327,1289,o),
(412,1212,o),
(530,1212,cs),
(648,1212,o),
(731,1291,o),
(731,1399,cs),
(731,1506,o),
(649,1590,o),
(530,1590,cs),
(413,1590,o),
(327,1505,o),
(327,1399,cs)
);
},
{
closed = 1;
nodes = (
(431,1461,o),
(472,1506,o),
(531,1506,cs),
(588,1506,o),
(626,1460,o),
(626,1399,cs),
(626,1337,o),
(588,1295,o),
(531,1295,cs),
(471,1295,o),
(431,1340,o),
(431,1399,cs)
);
}
);
width = 1057;
},
{
layerId = "557D07FA-4833-462F-859E-332980C518A5";
shapes = (
{
closed = 1;
nodes = (
(913,33,l),
(877,67,o),
(865,150,o),
(865,171,cs),
(865,733,ls,{
name = ._.105553356995424;
}),
(865,960,o),
(742,1081,o),
(533,1081,cs,{
name = ._.105553356995664;
}),
(343,1081,o),
(236,1004,o),
(181,957,c),
(217,902,l),
(280,957,o),
(392.004,1009.794,o),
(506,1012,cs,{
name = ._.105553356996224;
}),
(702.004,1015.794,o),
(777,888,o),
(777,733,cs,{
name = ._.105553356996464;
}),
(777,598,l),
(527,598,ls,{
name = ._.105553356979840;
}),
(265,598,o),
(106,490,o),
(106,285,cs,{
name = ._.105553357029536;
}),
(106,89,o),
(251,-21,o),
(423,-21,cs,{
name = ._.105553357029776;
}),
(578,-21,o),
(706,52,o),
(781,162,c),
(791,71,o),
(821,25,o),
(863,-18,c,{
name = ._.105553357030256;
})
);
},
{
closed = 1;
nodes = (
(281,60,o),
(194,151,o),
(194,285,cs,{
name = ._.105553357030656;
}),
(194,417,o),
(290,527,o),
(527,527,cs,{
name = ._.105553357030896;
}),
(777,527,l),
(777,283,l),
(737,148,o),
(571,60,o),
(441,60,cs)
);
},
{
closed = 1;
nodes = (
(341,1271,o),
(423,1194,o),
(535,1194,cs),
(647,1194,o),
(727,1273,o),
(727,1381,cs),
(727,1488,o),
(648,1572,o),
(535,1572,cs),
(424,1572,o),
(341,1487,o),
(341,1381,cs)
);
},
{
closed = 1;
nodes = (
(413,1453,o),
(462,1512,o),
(536,1512,cs),
(608,1512,o),
(654,1452,o),
(654,1381,cs),
(654,1309,o),
(608,1253,o),
(536,1253,cs),
(461,1253,o),
(413,1312,o),
(413,1381,cs)
);
}
);
width = 1076;
}
);
unicode = 229;
},
{
glyphname = atilde;
kernLeft = _a;
kernRight = _a;
lastChange = "2024-05-25 11:48:25 +0000";
layers = (
{
guides = (
{
angle = 90;
pos = (100,0);
},
{
angle = 90;
pos = (-947,0);
},
{
angle = 90;
pos = (-709,0);
}
);
layerId = "4EE6A762-B31F-492D-BAD7-A15389DCB08F";
shapes = (
{
closed = 1;
nodes = (
(792,1565,l,{
name = ._.105553356951216;
}),
(778,1523,o),
(758,1455,o),
(700,1455,cs,{
name = hr02;
}),
(605,1455,o),
(518,1561,o),
(371,1561,cs,{
name = ._.105553356952096;
}),
(229,1561,o),
(122,1426,o),
(102,1267,c),
(270,1233,l),
(279,1269,o),
(305,1343,o),
(367,1343,cs,{
name = hr01;
}),
(457,1343,o),
(552,1237,o),
(696,1237,cs,{
name = ._.105553356952896;
}),
(825,1237,o),
(950,1361,o),
(961,1520,c)
);
},
{
closed = 1;
nodes = (
(990,139,l),
(945,177,o),
(934,207,o),
(934,318,cs),
(934,781,ls,{
name = ._.105553356948096;
}),
(934,1020,o),
(767,1142,o),
(559,1142,cs,{
name = ._.105553356948336;
}),
(378,1142,o),
(219,1087,o),
(109,1014,c),
(189,823,l),
(273,869,o),
(374,911,o),
(484,911,cs,{
name = ._.105553356948896;
}),
(574,911,o),
(622,882,o),
(622,781,cs,{
name = ._.105553356949136;
}),
(622,669,l),
(507,669,ls,{
name = ._.105553356949296;
}),
(208,669,o),
(60,536,o),
(60,315,cs,{
name = ._.105553356949536;
}),
(60,117,o),
(181,-21,o),
(381,-21,cs,{
name = ._.105553356949776;
}),
(496,-21,o),
(592,38,o),
(651,126,c),
(685,41,o),
(793,-18,o),
(871,-22,c,{
name = ._.105553356950256;
})
);
},
{
closed = 1;
nodes = (
(411,210,o),
(370,259,o),
(370,332,cs,{
name = ._.105553356950496;
}),
(370,426,o),
(420,486,o),
(521,486,cs,{
name = ._.105553356950736;
}),
(622,486,l),
(622,287,l),
(590,242,o),
(535,210,o),
(473,210,cs,{
name = ._.105553356947616;
})
);
}
);
width = 1065;
},
{
layerId = "7B7CA763-6202-4B35-9FCB-B97398BB2D53";
shapes = (
{
closed = 1;
nodes = (
(772,1527,l),
(768,1469,o),
(728,1424,o),
(675,1424,cs),
(590,1424,o),
(520,1516,o),
(383,1516,cs),
(271,1516,o),
(174,1415,o),
(169,1284,c),
(280,1263,l),
(283,1310,o),
(318,1364,o),
(377,1364,cs),
(462,1364,o),
(534,1272,o),
(668,1272,cs),
(778,1272,o),
(880,1367,o),
(883,1500,c)
);
},
{
closed = 1;
nodes = (
(949,94,l),
(906,130,o),
(894,181,o),
(894,244,cs),
(894,748,ls),
(894,981,o),
(746,1107,o),
(535,1107,cs),
(341,1107,o),
(205,1029,o),
(136,977,c),
(199,851,l),
(267,902,o),
(375,952,o),
(493,953,cs),
(629,954,o),
(691,877,o),
(691,750,cs),
(691,638,l),
(511,638,ls),
(236,638,o),
(76,511,o),
(76,300,cs),
(76,103,o),
(199,-21,o),
(395,-21,cs),
(524,-21,o),
(643,44,o),
(710,143,c),
(728,64,o),
(801,1,o),
(860,-20,c)
);
},
{
closed = 1;
nodes = (
(337,139,o),
(279,206,o),
(279,304,cs),
(279,417,o),
(357,502,o),
(514,502,cs),
(691,502,l),
(691,297,l),
(655,208,o),
(547,139,o),
(442,139,cs)
);
}
);
width = 1059;
},
{
layerId = "80A40485-F9FE-43F8-8BB8-E239AA3B9F7E";
shapes = (
{
closed = 1;
nodes = (
(765,1514,l),
(765,1450,o),
(718,1413,o),
(667,1413,cs),
(580,1413,o),
(521,1501,o),
(388,1501,cs,{
name = hr01;
}),
(286,1501,o),
(193,1412,o),
(193,1291,c),
(284,1275,l),
(284,1327,o),
(323,1373,o),
(381,1373,cs),
(471,1373,o),
(527,1286,o),
(659,1286,cs,{
name = hr02;
}),
(761,1286,o),
(854,1371,o),
(854,1494,c)
);
},
{
closed = 1;
nodes = (
(934,78,l),
(892,113,o),
(879,171,o),
(879,217,cs),
(879,736,ls),
(879,967,o),
(739,1095,o),
(526,1095,cs),
(327,1095,o),
(199,1008,o),
(146,964,c),
(202,862,l),
(265,914,o),
(375,967,o),
(496,969,cs),
(650,971,o),
(717,875,o),
(717,738,cs),
(717,626,l),
(512,626,ls),
(246,626,o),
(82,502,o),
(82,295,cs),
(82,98,o),
(206,-21,o),
(400,-21,cs),
(535,-21,o),
(662,47,o),
(732,149,c),
(744,72,o),
(804,8,o),
(856,-19,c)
);
},
{
closed = 1;
nodes = (
(309,113,o),
(245,186,o),
(245,294,cs),
(245,414,o),
(333,508,o),
(511,508,cs),
(717,508,l),
(717,301,l),
(680,196,o),
(552,113,o),
(431,113,cs)
);
}
);
width = 1057;
},
{
layerId = "557D07FA-4833-462F-859E-332980C518A5";
shapes = (
{
closed = 1;
nodes = (
(786,1488,l,{
name = ._.105553356958096;
}),
(786,1425,o),
(744,1376,o),
(686,1376,cs,{
name = ._.105553356962096;
}),
(615,1376,o),
(522,1477,o),
(395,1477,cs,{
name = hr01;
}),
(313,1477,o),
(238,1407,o),
(238,1306,c),
(290,1295,l),
(290,1330,o),
(316,1401,o),
(387,1401,cs),
(477,1401,o),
(568,1300,o),
(674,1300,cs,{
name = hr02;
}),
(763,1300,o),
(835,1374,o),
(835,1475,c)
);
},
{
closed = 1;
nodes = (
(913,33,l),
(877,67,o),
(865,150,o),
(865,171,cs),
(865,733,ls,{
name = ._.105553356958576;
}),
(865,960,o),
(742,1081,o),
(533,1081,cs,{
name = ._.105553356958816;
}),
(343,1081,o),
(236,1004,o),
(181,957,c),
(217,902,l),
(280,957,o),
(392,1010,o),
(506,1012,cs,{
name = ._.105553356959376;
}),
(702,1016,o),
(777,888,o),
(777,733,cs,{
name = ._.105553356959616;
}),
(777,598,l),
(527,598,ls,{
name = ._.105553356959776;
}),
(265,598,o),
(106,490,o),
(106,285,cs,{
name = ._.105553356960016;
}),
(106,89,o),
(251,-21,o),
(423,-21,cs,{
name = ._.105553356960256;
}),
(578,-21,o),
(706,52,o),
(781,162,c),
(791,71,o),
(821,25,o),
(863,-18,c,{
name = ._.105553356960736;
})
);
},
{
closed = 1;
nodes = (
(281,60,o),
(194,151,o),
(194,285,cs,{
name = ._.105553356960976;
}),
(194,417,o),
(290,527,o),
(527,527,cs,{
name = ._.105553356961216;
}),
(777,527,l),
(777,283,l),
(737,148,o),
(571,60,o),
(441,60,cs)
);
}
);
width = 1076;
}
);
unicode = 227;
},
{
glyphname = ae;
kernLeft = _a;
kernRight = _e;
lastChange = "2024-05-28 19:18:29 +0000";
layers = (
{
layerId = "4EE6A762-B31F-492D-BAD7-A15389DCB08F";
shapes = (
{
closed = 1;
nodes = (
(1262,-21,o),
(1409,36,o),
(1492,106,c),
(1417,295,l),
(1316,239,o),
(1249,222,o),
(1143,222,cs,{
name = ._.105553357352352;
}),
(1013,222,o),
(940,335,o),
(934,465,c,{
name = ._.105553357352592;
}),
(1513,465,l),
(1513,650,ls,{
name = ._.105553357352752;
}),
(1513,964,o),
(1354,1142,o),
(1079,1142,cs,{
name = ._.105553357352992;
}),
(970,1142,o),
(872,1103,o),
(813,1051,c),
(757,1105,o),
(658,1142,o),
(559,1142,cs,{
name = ._.105553357353472;
}),
(378,1142,o),
(219,1087,o),
(109,1014,c),
(189,823,l),
(273,869,o),
(374,911,o),
(484,911,cs,{
name = ._.105553357354032;
}),
(574,911,o),
(622,882,o),
(622,781,cs),
(622,669,l,{
name = ._.105553357354352;
}),
(507,669,ls,{
name = ._.105553357354432;
}),
(208,669,o),
(60,536,o),
(60,315,cs,{
name = ._.105553357354672;
}),
(60,117,o),
(181,-21,o),
(381,-21,cs,{
name = ._.105553357354912;
}),
(540,-21,o),
(678,43,o),
(753,133,c),
(816,43,o),
(966,-21,o),
(1103,-21,cs,{
name = ._.105553357351712;
})
);
},
{
closed = 1;
nodes = (
(1163,898,o),
(1209,843,o),
(1209,708,cs),
(1209,670,l,{
name = ._.105553357356592;
}),
(935,670,l,{
name = ._.105553357356672;
}),
(943,808,o),
(985,898,o),
(1079,898,cs,{
name = ._.105553357356192;
})
);
},
{
closed = 1;
nodes = (
(411,210,o),
(370,259,o),
(370,332,cs,{
name = ._.105553357355552;
}),
(370,426,o),
(420,486,o),
(521,486,cs,{
name = ._.105553357355792;
}),
(622,486,l),
(622,287,l),
(590,242,o),
(535,210,o),
(473,210,cs,{
name = ._.105553357351552;
})
);
}
);
width = 1590;
},
{
layerId = "7B7CA763-6202-4B35-9FCB-B97398BB2D53";
shapes = (
{
closed = 1;
nodes = (
(1290,-21,o),
(1427,24,o),
(1519,101,c),
(1463,227,l),
(1379,166,o),
(1288,138,o),
(1184,138,cs),
(990,138,o),
(896,301,o),
(894,496,c),
(1536,496,l),
(1536,630,ls),
(1536,916,o),
(1409,1107,o),
(1131,1107,cs),
(994,1107,o),
(891,1047,o),
(825,960,c),
(771,1057,o),
(666,1107,o),
(535,1107,cs),
(341,1107,o),
(205,1029,o),
(136,977,c),
(199,851,l),
(267,902,o),
(375,952,o),
(493,953,cs),
(629,954,o),
(691,880,o),
(691,751,cs),
(691,638,l),
(511,638,ls),
(236,638,o),
(76,511,o),
(76,300,cs),
(76,103,o),
(199,-21,o),
(397,-21,cs),
(549,-21,o),
(686,58,o),
(771,186,c),
(841,58,o),
(983,-21,o),
(1147,-21,cs)
);
},
{
closed = 1;
nodes = (
(1270,950,o),
(1336,837,o),
(1336,679,cs),
(1336,637,l),
(896,637,l),
(900,796,o),
(980,950,o),
(1126,950,cs)
);
},
{
closed = 1;
nodes = (
(337,139,o),
(279,206,o),
(279,304,cs),
(279,417,o),
(357,501,o),
(514,501,cs),
(691,501,l),
(691,298,l),
(655,208,o),
(547,139,o),
(442,139,cs)
);
}
);
width = 1637;
},
{
layerId = "80A40485-F9FE-43F8-8BB8-E239AA3B9F7E";
shapes = (
{
closed = 1;
nodes = (
(1301,-21,o),
(1434,19,o),
(1529,99,c),
(1481,202,l),
(1404,141,o),
(1307,109,o),
(1209,107,cs,{
name = ._.105553357393344;
}),
(985,101,o),
(880,286,o),
(879,507,c,{
name = ._.105553357393584;
}),
(1545,507,l),
(1545,622,ls,{
name = ._.105553357393744;
}),
(1545,898,o),
(1429,1095,o),
(1150,1095,cs),
(1003,1095,o),
(899,1026,o),
(830,927,c),
(777,1039,o),
(670,1095,o),
(526,1095,cs,{
name = ._.105553357394464;
}),
(327,1095,o),
(199,1008,o),
(146,963,c),
(202,862,l),
(265,914,o),
(375,967,o),
(496,969,cs,{
name = ._.105553357395024;
}),
(650,971,o),
(717,879,o),
(717,741,cs),
(717,626,l),
(512,626,ls),
(246,626,o),
(82,502,o),
(82,295,cs,{
name = ._.105553357395664;
}),
(82,98,o),
(206,-21,o),
(403,-21,cs,{
name = ._.105553357395904;
}),
(553,-21,o),
(690,64,o),
(778,206,c),
(851,63,o),
(990,-21,o),
(1164,-21,cs,{
name = ._.105553357392704;
})
);
},
{
closed = 1;
nodes = (
(1309,969,o),
(1383,835,o),
(1383,669,cs),
(1383,626,l,{
name = ._.105553357397664;
}),
(882,626,l,{
name = ._.105553357397744;
}),
(885,792,o),
(978,969,o),
(1144,969,cs)
);
},
{
closed = 1;
nodes = (
(309,113,o),
(245,186,o),
(245,294,cs,{
name = ._.105553357396544;
}),
(245,414,o),
(333,507,o),
(511,507,cs),
(717,507,l,{
name = ._.105553357396864;
}),
(717,302,l),
(679,196,o),
(552,113,o),
(431,113,cs,{
name = ._.105553357392544;
})
);
}
);
width = 1655;
},
{
guides = (
{
pos = (0,861);
}
);
layerId = "557D07FA-4833-462F-859E-332980C518A5";
shapes = (
{
closed = 1;
nodes = (
(1366,-20,o),
(1490,30,o),
(1554,84,c),
(1529,139,l),
(1459,89,o),
(1366,55,o),
(1263,55,cs,{
name = hr01;
}),
(988,55,o),
(865,248,o),
(865,524,c,{
name = ._.105553357399424;
}),
(1573,524,l),
(1573,602,ls,{
name = ._.105553357399584;
}),
(1573,858,o),
(1488,1081,o),
(1193,1081,cs,{
name = ._.105553357399824;
}),
(1029,1081,o),
(916,991,o),
(850,869,c),
(811,1014,o),
(699,1081,o),
(533,1081,cs),
(343,1081,o),
(236,1003,o),
(181,956,c),
(217,902,l),
(280,957,o),
(392,1010,o),
(506,1012,cs),
(702,1016,o),
(777,898,o),
(777,743,cs),
(777,598,l,{
name = ._.105553357401184;
}),
(527,598,ls,{
name = ._.105553357401264;
}),
(265,598,o),
(106,490,o),
(106,285,cs,{
name = ._.105553357401504;
}),
(106,89,o),
(251,-21,o),
(432,-21,cs,{
name = ._.105553357401744;
}),
(650,-21,o),
(780,126,o),
(828,242,c),
(898,74,o),
(1044,-20,o),
(1221,-20,cs,{
name = ._.105553357398544;
})
);
},
{
closed = 1;
nodes = (
(1409,1014,o),
(1486,841,o),
(1486,646,cs),
(1486,592,l,{
name = ._.105553357403344;
}),
(865,592,l,{
name = ._.105553357403424;
}),
(877,813,o),
(979,1014,o),
(1193,1014,cs)
);
},
{
closed = 1;
nodes = (
(281,60,o),
(194,151,o),
(194,285,cs,{
name = ._.105553357402384;
}),
(194,417,o),
(290,527,o),
(527,527,cs),
(777,527,l),
(777,286,l),
(736,148,o),
(571,60,o),
(441,60,cs)
);
}
);
width = 1698;
}
);
unicode = 230;
},
{
glyphname = b;
kernLeft = _b;
kernRight = _b;
lastChange = "2024-05-25 11:48:25 +0000";
layers = (
{
layerId = "4EE6A762-B31F-492D-BAD7-A15389DCB08F";
shapes = (
{
closed = 1;
nodes = (
(1053,582,ls),
(1053,900,o),
(910,1142,o),
(663,1142,cs,{
name = ._.105553356031872;
}),
(567,1142,o),
(494,1099,o),
(439,1023,c),
(439,1560,l,{
name = ._.105553356045312;
}),
(128,1560,l,{
name = ._.105553356031152;
}),
(128,0,l,{
name = ._.105553356045632;
}),
(380,0,l),
(417,122,l),
(474,29,o),
(555,-21,o),
(665,-21,cs,{
name = ._.105553356037792;
}),
(913,-21,o),
(1053,192,o),
(1053,518,cs,{
name = ._.105553356037952;
})
);
},
{
closed = 1;
nodes = (
(743,542,ls,{
name = ._.105553356038592;
}),
(743,373,o),
(709,223,o),
(585,223,cs,{
name = hr02;
}),
(526,223,o),
(468,246,o),
(439,294,c),
(439,814,l),
(468,868,o),
(522,898,o),
(579,898,cs,{
name = hr01;
}),
(697,898,o),
(743,719,o),
(743,582,cs)
);
}
);
width = 1133;
},
{
layerId = "7B7CA763-6202-4B35-9FCB-B97398BB2D53";
shapes = (
{
closed = 1;
nodes = (
(1032,561,ls),
(1032,884,o),
(889,1108,o),
(641,1108,cs),
(520,1108,o),
(429,1055,o),
(369,965,c),
(369,1560,l),
(167,1560,l),
(167,0,l),
(331,0,l),
(356,142,l),
(416,43,o),
(514,-22,o),
(643,-22,cs),
(889,-22,o),
(1032,187,o),
(1032,482,cs)
);
},
{
closed = 1;
nodes = (
(829,489,ls),
(829,274,o),
(751,139,o),
(592,139,cs),
(489,139,o),
(404,210,o),
(369,297,c),
(369,796,l),
(411,891,o),
(488,947,o),
(588,947,cs),
(752,947,o),
(829,779,o),
(829,561,cs)
);
}
);
width = 1140;
},
{
layerId = "80A40485-F9FE-43F8-8BB8-E239AA3B9F7E";
shapes = (
{
closed = 1;
nodes = (
(1024,553,ls),
(1024,878,o),
(881,1095,o),
(633,1095,cs,{
name = ._.105553355999984;
}),
(503,1095,o),
(405,1039,o),
(343,943,c),
(343,1559,l,{
name = ._.105553356000304;
}),
(181,1559,l,{
name = ._.105553356000384;
}),
(181,0,l,{
name = ._.105553356000464;
}),
(313,0,l),
(333,149,l),
(394,48,o),
(499,-22,o),
(635,-22,cs,{
name = hr01;
}),
(880,-22,o),
(1024,185,o),
(1024,469,cs,{
name = ._.105553356001104;
})
);
},
{
closed = 1;
nodes = (
(861,469,ls,{
name = ._.105553356001184;
}),
(861,237,o),
(766,108,o),
(595,108,cs,{
name = ._.105553356001504;
}),
(475,108,o),
(380,197,o),
(343,298,c),
(343,789,l),
(390,900,o),
(475,965,o),
(592,965,cs,{
name = ._.105553356002064;
}),
(772,965,o),
(861,801,o),
(861,553,cs)
);
}
);
width = 1142;
},
{
guides = (
{
pos = (0,-23);
},
{
pos = (0,311);
},
{
pos = (0,152);
},
{
angle = 90;
pos = (162,0);
},
{
angle = 90;
pos = (341,0);
}
);
layerId = "557D07FA-4833-462F-859E-332980C518A5";
shapes = (
{
closed = 1;
nodes = (
(1010,544,ls),
(1010,872,o),
(867,1082,o),
(618,1082,cs,{
name = ._.105553356003984;
}),
(470,1082,o),
(361,1014,o),
(298,909,c),
(298,1558,l,{
name = ._.105553356004304;
}),
(211,1558,l,{
name = ._.105553356004384;
}),
(210,0,l),
(275,0,l),
(292,162,l),
(355,57,o),
(472,-21,o),
(620,-21,cs,{
name = hr01;
}),
(864,-21,o),
(1010,196,o),
(1010,460,cs,{
name = ._.105553356005104;
})
);
},
{
closed = 1;
nodes = (
(923,460,ls,{
name = ._.105553356005184;
}),
(923,172,o),
(784,51,o),
(600,51,cs),
(463,51,o),
(325,163,o),
(298,271,c),
(298,797,l),
(356,941,o),
(460,1010,o),
(597,1010,cs),
(804,1010,o),
(923,847,o),
(923,544,cs)
);
}
);
width = 1145;
}
);
unicode = 98;
},
{
glyphname = c;
kernLeft = _c;
kernRight = _c;
lastChange = "2024-05-28 21:23:15 +0000";
layers = (
{
layerId = "4EE6A762-B31F-492D-BAD7-A15389DCB08F";
shapes = (
{
closed = 1;
nodes = (
(492,222,o),
(391,328,o),
(391,549,cs),
(391,574,ls,{
name = ._.105553356007184;
}),
(391,755,o),
(492,899,o),
(617,899,cs,{
name = ._.105553356007424;
}),
(701,899,o),
(757,878,o),
(833,825,c),
(924,1009,l),
(837,1088,o),
(738,1142,o),
(544,1142,cs,{
name = ._.105553356007984;
}),
(267,1142,o),
(80,914,o),
(80,584,cs,{
name = ._.105553356008224;
}),
(80,539,ls),
(80,189,o),
(267,-21,o),
(544,-21,cs,{
name = ._.105553356008544;
}),
(746,-21,o),
(851,44,o),
(924,112,c),
(833,296,l),
(757,243,o),
(701,222,o),
(617,222,cs,{
name = ._.105553356006784;
})
);
}
);
width = 943;
},
{
layerId = "7B7CA763-6202-4B35-9FCB-B97398BB2D53";
shapes = (
{
closed = 1;
nodes = (
(411,137,o),
(310,291,o),
(310,526,cs),
(310,569,l),
(311,790,o),
(413,949,o),
(582,949,cs),
(676,949,o),
(756,917,o),
(820,861,c),
(886,988,l),
(812,1057,o),
(709,1107,o),
(555,1107,cs),
(267,1107,o),
(108,885,o),
(107,579,c),
(107,511,ls),
(107,198,o),
(267,-21,o),
(555,-21,cs),
(711,-21,o),
(818,34,o),
(885,101,c),
(820,225,l),
(756,169,o),
(676,137,o),
(582,137,cs)
);
}
);
width = 933;
},
{
layerId = "80A40485-F9FE-43F8-8BB8-E239AA3B9F7E";
shapes = (
{
closed = 1;
nodes = (
(381,106,o),
(280,278,o),
(280,518,cs),
(280,568,l,{
name = ._.105553356010384;
}),
(282,803,o),
(384,968,o),
(569,968,cs,{
name = ._.105553356010624;
}),
(667,968,o),
(755,932,o),
(815,875,c),
(872,981,l),
(803,1047,o),
(698,1095,o),
(559,1095,cs,{
name = ._.105553356011184;
}),
(267,1095,o),
(118,875,o),
(117,577,c,{
name = ._.105553356011424;
}),
(117,501,ls),
(117,202,o),
(267,-21,o),
(559,-21,cs,{
name = ._.105553356011744;
}),
(698,-21,o),
(806,31,o),
(871,97,c),
(815,199,l),
(755,142,o),
(667,106,o),
(569,106,cs,{
name = ._.105553356009984;
})
);
}
);
width = 929;
},
{
guides = (
{
pos = (0,1101);
},
{
pos = (0,161);
}
);
layerId = "557D07FA-4833-462F-859E-332980C518A5";
shapes = (
{
closed = 1;
nodes = (
(359,52,o),
(223,222,o),
(223,519,cs),
(223,544,ls,{
name = ._.105553356013184;
}),
(223,841,o),
(359,1009,o),
(568,1009,cs),
(666,1009,o),
(750,983,o),
(821,930,c),
(848,990,l),
(778,1049,o),
(671,1082,o),
(559,1082,cs,{
name = ._.105553356210656;
}),
(276,1082,o),
(137,862,o),
(135,552,c,{
name = ._.105553356210896;
}),
(135,519,ls),
(135,205,o),
(274,-21,o),
(559,-21,cs,{
name = ._.105553356211216;
}),
(671,-21,o),
(783,15,o),
(848,75,c),
(821,132,l),
(750,79,o),
(666,52,o),
(568,52,cs)
);
}
);
width = 910;
}
);
unicode = 99;
},
{
glyphname = ccedilla;
kernLeft = _c;
kernRight = _c;
lastChange = "2024-05-25 11:48:25 +0000";
layers = (
{
layerId = "4EE6A762-B31F-492D-BAD7-A15389DCB08F";
shapes = (
{
closed = 1;
nodes = (
(492,222,o),
(391,328,o),
(391,549,cs),
(391,574,ls,{
name = ._.105553357033056;
}),
(391,755,o),
(492,899,o),
(617,899,cs,{
name = ._.105553357033296;
}),
(701,899,o),
(757,878,o),
(833,825,c),
(924,1009,l),
(837,1088,o),
(738,1142,o),
(544,1142,cs,{
name = ._.105553357033856;
}),
(267,1142,o),
(80,914,o),
(80,584,cs,{
name = ._.105553357034096;
}),
(80,539,ls),
(80,242,o),
(215,45,o),
(425,-7,c),
(387,-151,l),
(481,-155,o),
(515,-202,o),
(515,-244,cs,{
name = ._.105553357034736;
}),
(515,-327,o),
(416,-340,o),
(353,-340,c),
(362,-506,l),
(543,-508,o),
(738,-434,o),
(738,-254,cs,{
name = ._.105553357035296;
}),
(738,-128,o),
(661,-83,o),
(604,-71,c),
(620,-17,l,{
name = ._.105553357035616;
}),
(773,-3,o),
(861,53,o),
(924,112,c),
(833,296,l),
(757,243,o),
(701,222,o),
(617,222,cs,{
name = ._.105553357032656;
})
);
}
);
width = 943;
},
{
layerId = "7B7CA763-6202-4B35-9FCB-B97398BB2D53";
shapes = (
{
closed = 1;
nodes = (
(411,138,o),
(310,292,o),
(310,527,cs),
(310,570,l),
(311,790,o),
(413,949,o),
(582,949,cs),
(676,949,o),
(756,917,o),
(820,861,c),
(886,988,l),
(812,1057,o),
(709,1107,o),
(555,1107,cs),
(267,1107,o),
(108,885,o),
(107,579,c),
(107,511,ls),
(107,240,o),
(227,38,o),
(448,-10,c),
(407,-165,l),
(504,-172,o),
(550,-211,o),
(550,-277,cs),
(550,-360,o),
(463,-389,o),
(381,-389,c),
(388,-502,l),
(573,-503,o),
(711,-428,o),
(711,-268,cs),
(711,-156,o),
(647,-103,o),
(565,-89,c),
(586,-19,l),
(720,-12,o),
(819,37,o),
(885,102,c),
(820,226,l),
(756,170,o),
(676,138,o),
(582,138,cs)
);
}
);
width = 934;
},
{
layerId = "80A40485-F9FE-43F8-8BB8-E239AA3B9F7E";
shapes = (
{
closed = 1;
nodes = (
(381,106,o),
(280,278,o),
(280,518,cs),
(280,568,l,{
name = ._.105553357038016;
}),
(282,803,o),
(384,968,o),
(569,968,cs,{
name = ._.105553357038256;
}),
(667,968,o),
(755,932,o),
(815,875,c),
(872,981,l),
(803,1047,o),
(698,1095,o),
(559,1095,cs,{
name = ._.105553357038816;
}),
(267,1095,o),
(118,875,o),
(117,577,c,{
name = ._.105553357039056;
}),
(117,501,ls),
(117,238,o),
(232,35,o),
(457,-11,c),
(414,-170,l,{
name = ._.105553357039456;
}),
(513,-178,o),
(563,-214,o),
(563,-289,cs,{
name = ._.105553357039696;
}),
(563,-372,o),
(481,-407,o),
(392,-407,c,{
name = ._.105553357039936;
}),
(397,-501,l,{
name = ._.105553357040016;
}),
(584,-501,o),
(701,-426,o),
(701,-273,cs,{
name = ._.105553357040256;
}),
(701,-166,o),
(642,-110,o),
(551,-96,c),
(574,-20,l,{
name = ._.105553357040576;
}),
(701,-15,o),
(804,30,o),
(871,97,c),
(815,199,l),
(755,142,o),
(667,106,o),
(569,106,cs,{
name = ._.105553357037616;
})
);
}
);
width = 930;
},
{
guides = (
{
pos = (0,-440);
}
);
layerId = "557D07FA-4833-462F-859E-332980C518A5";
shapes = (
{
closed = 1;
nodes = (
(359,52,o),
(223,222,o),
(223,519,cs),
(223,544,ls,{
name = ._.105553357042336;
}),
(223,841,o),
(359,1009,o),
(568,1009,cs),
(666,1009,o),
(750,983,o),
(821,930,c),
(848,990,l),
(778,1049,o),
(671,1082,o),
(559,1082,cs,{
name = ._.105553357043136;
}),
(276,1082,o),
(137,862,o),
(135,552,c,{
name = ._.105553357043376;
}),
(135,519,ls),
(135,237,o),
(247,26,o),
(476,-14,c),
(433,-167,l,{
name = ._.105553357043776;
}),
(520,-175,o),
(602,-198,o),
(602,-300,cs,{
name = ._.105553357044016;
}),
(602,-393,o),
(524,-432,o),
(417,-432,c),
(419,-492,l,{
name = ._.105553357044336;
}),
(609,-492,o),
(688,-410,o),
(688,-290,cs,{
name = ._.105553357044576;
}),
(688,-192,o),
(631,-119,o),
(518,-107,c,{
name = ._.105553357044816;
}),
(543,-20,l,{
name = ._.105553357044896;
}),
(650,-20,o),
(769,4,o),
(848,75,c),
(821,132,l),
(750,79,o),
(666,52,o),
(568,52,cs,{
name = ._.105553357041936;
})
);
}
);
width = 910;
}
);
unicode = 231;
},
{
glyphname = d;
lastChange = "2024-05-28 21:23:21 +0000";
layers = (
{
guides = (
{
pos = (0,1606);
}
);
layerId = "4EE6A762-B31F-492D-BAD7-A15389DCB08F";
shapes = (
{
closed = 1;
nodes = (
(80,536,ls),
(80,279,o),
(173,-21,o),
(469,-21,cs,{
name = ._.105553356214016;
}),
(573,-21,o),
(651,31,o),
(723,126,c),
(757,41,o),
(865,-18,o),
(943,-22,c,{
name = hr01;
}),
(1062,139,l),
(1020,174,o),
(1007,202,o),
(1006,294,c),
(1006,1560,l,{
name = ._.105553356214896;
}),
(695,1560,l,{
name = ._.105553356214976;
}),
(695,1017,l),
(637,1097,o),
(563,1142,o),
(471,1142,cs,{
name = ._.105553356215296;
}),
(174,1142,o),
(84,815,o),
(80,557,c)
);
},
{
closed = 1;
nodes = (
(391,557,ls),
(391,651,o),
(404,898,o),
(551,898,cs,{
name = ._.105553356212816;
}),
(603,898,o),
(662,864,o),
(695,806,c),
(695,301,l),
(662,250,o),
(604,223,o),
(549,223,cs,{
name = hr02;
}),
(445,223,o),
(391,331,o),
(391,536,cs,{
name = ._.105553356213616;
})
);
}
);
width = 1147;
},
{
layerId = "7B7CA763-6202-4B35-9FCB-B97398BB2D53";
shapes = (
{
closed = 1;
nodes = (
(108,514,ls),
(108,204,o),
(236,-21,o),
(497,-21,cs),
(633,-21,o),
(721,38,o),
(788,141,c),
(811,50,o),
(891,-6,o),
(938,-20,c),
(1026,95,l),
(988,129,o),
(971,173,o),
(971,238,cs),
(971,1560,l),
(769,1560,l),
(769,965,l),
(707,1053,o),
(615,1108,o),
(501,1108,cs),
(230,1108,o),
(109,851,o),
(108,551,c)
);
},
{
closed = 1;
nodes = (
(311,551,ls),
(311,764,o),
(385,947,o),
(552,947,cs),
(647,947,o),
(732,870,o),
(769,785,c),
(769,296,l),
(724,202,o),
(649,138,o),
(551,138,cs),
(392,138,o),
(311,274,o),
(311,514,cs)
);
}
);
width = 1148;
},
{
guides = (
{
pos = (0,1606);
}
);
layerId = "80A40485-F9FE-43F8-8BB8-E239AA3B9F7E";
shapes = (
{
closed = 1;
nodes = (
(118,506,ls),
(118,176,o),
(259,-21,o),
(507,-21,cs,{
name = ._.105553356219376;
}),
(655,-21,o),
(747,41,o),
(813,146,c),
(831,53,o),
(902,-1,o),
(937,-19,c,{
name = ._.105553356219856;
}),
(1014,78,l),
(977,112,o),
(959,162,o),
(959,217,cs),
(959,1559,l,{
name = ._.105553356220256;
}),
(797,1559,l,{
name = ._.105553356220336;
}),
(797,946,l),
(733,1037,o),
(635,1095,o),
(512,1095,cs,{
name = ._.105553356220656;
}),
(251,1095,o),
(118,864,o),
(118,548,cs)
);
},
{
closed = 1;
nodes = (
(281,548,ls),
(281,806,o),
(378,965,o),
(552,965,cs,{
name = ._.105553356218176;
}),
(664,965,o),
(758,872,o),
(797,777,c),
(797,293,l),
(747,184,o),
(666,106,o),
(552,106,cs,{
name = ._.105553356218736;
}),
(372,106,o),
(281,252,o),
(281,506,cs,{
name = ._.105553356218976;
})
);
}
);
width = 1148;
},
{
guides = (
{
pos = (0,164);
},
{
pos = (0,1606);
}
);
layerId = "557D07FA-4833-462F-859E-332980C518A5";
shapes = (
{
closed = 1;
nodes = (
(135,513,ls),
(135,185,o),
(278,-21,o),
(527,-21,cs,{
name = ._.105553356223376;
}),
(672,-21,o),
(783,39,o),
(851,155,c),
(862,68,o),
(892,24,o),
(933,-18,c,{
name = ._.105553356223856;
}),
(983,33,l),
(947,67,o),
(935,150,o),
(935,171,cs),
(935,1558,l,{
name = ._.105553356224256;
}),
(847,1558,l,{
name = ._.105553356224336;
}),
(847,904,l),
(783,1005,o),
(668,1082,o),
(525,1082,cs,{
name = ._.105553356224656;
}),
(281,1082,o),
(135,861,o),
(135,597,cs)
);
},
{
closed = 1;
nodes = (
(222,597,ls),
(222,885,o),
(359,1010,o),
(545,1010,cs),
(682,1010,o),
(820,894,o),
(847,786,c),
(847,258,l),
(789,115,o),
(684,51,o),
(548,51,cs),
(341,51,o),
(222,210,o),
(222,513,cs,{
name = ._.105553356222976;
})
);
}
);
width = 1153;
}
);
unicode = 100;
},
{
glyphname = dcroat;
lastChange = "2024-05-25 11:48:25 +0000";
layers = (
{
guides = (
{
pos = (0,1606);
},
{
pos = (0,1606);
}
);
layerId = "4EE6A762-B31F-492D-BAD7-A15389DCB08F";
shapes = (
{
closed = 1;
nodes = (
(80,536,ls,{
name = ._.105553420223264;
}),
(80,279,o),
(173,-21,o),
(469,-21,cs,{
name = ._.105553420223584;
}),
(573,-21,o),
(651,31,o),
(723,126,c),
(757,41,o),
(865,-18,o),
(943,-22,c,{
name = hr01;
}),
(1062,139,l),
(1020,174,o),
(1007,202,o),
(1006,294,c),
(1006,1251,l,{
name = ._.105553420224464;
}),
(1136,1251,l),
(1136,1427,l),
(1006,1427,l,{
name = ._.105553420224704;
}),
(1006,1560,l,{
name = ._.105553420224784;
}),
(695,1560,l,{
name = ._.105553420224864;
}),
(695,1427,l),
(413,1427,l),
(413,1251,l),
(695,1251,l),
(695,1017,l),
(637,1097,o),
(563,1142,o),
(471,1142,cs,{
name = ._.105553420225504;
}),
(174,1142,o),
(84,815,o),
(80,557,c)
);
},
{
closed = 1;
nodes = (
(391,557,ls),
(391,651,o),
(404,898,o),
(551,898,cs,{
name = ._.105553420225984;
}),
(603,898,o),
(662,864,o),
(695,806,c),
(695,301,l),
(662,250,o),
(604,223,o),
(549,223,cs,{
name = hr02;
}),
(445,223,o),
(391,331,o),
(391,536,cs,{
name = ._.105553420226784;
})
);
}
);
width = 1147;
},
{
layerId = "7B7CA763-6202-4B35-9FCB-B97398BB2D53";
shapes = (
{
closed = 1;
nodes = (
(108,514,ls),
(108,204,o),
(236,-21,o),
(497,-21,cs),
(633,-21,o),
(721,38,o),
(788,141,c),
(811,50,o),
(891,-6,o),
(938,-20,c),
(1026,95,l),
(988,129,o),
(971,173,o),
(971,238,cs),
(971,1256,l),
(1118,1256,l),
(1118,1391,l),
(971,1391,l),
(971,1559,l),
(769,1559,l),
(769,1391,l),
(461,1391,l),
(461,1256,l),
(769,1256,l),
(769,965,l),
(707,1053,o),
(615,1108,o),
(501,1108,cs),
(230,1108,o),
(109,851,o),
(108,551,c)
);
},
{
closed = 1;
nodes = (
(311,551,ls),
(311,764,o),
(385,947,o),
(552,947,cs),
(647,947,o),
(732,870,o),
(769,785,c),
(769,296,l),
(724,202,o),
(649,138,o),
(551,138,cs),
(392,138,o),
(311,274,o),
(311,514,cs)
);
}
);
width = 1148;
},
{
guides = (
{
pos = (0,1606);
},
{
pos = (0,1661);
},
{
pos = (0,1606);
},
{
pos = (0,1661);
}
);
layerId = "80A40485-F9FE-43F8-8BB8-E239AA3B9F7E";
shapes = (
{
closed = 1;
nodes = (
(118,506,ls,{
name = ._.105553420229984;
}),
(118,176,o),
(259,-21,o),
(507,-21,cs,{
name = ._.105553420230304;
}),
(655,-21,o),
(747,41,o),
(813,146,c),
(831,53,o),
(902,-1,o),
(937,-19,c,{
name = ._.105553420230784;
}),
(1014,78,l),
(977,112,o),
(959,162,o),
(959,217,cs),
(959,1258,l,{
name = ._.105553420231184;
}),
(1112,1258,l),
(1112,1378,l),
(959,1378,l,{
name = ._.105553420231424;
}),
(959,1559,l,{
name = ._.105553420231504;
}),
(797,1559,l,{
name = ._.105553420231584;
}),
(797,1378,l),
(479,1378,l),
(479,1258,l),
(797,1258,l),
(797,946,l),
(733,1037,o),
(635,1095,o),
(512,1095,cs,{
name = ._.105553420232224;
}),
(251,1095,o),
(118,864,o),
(118,548,cs)
);
},
{
closed = 1;
nodes = (
(281,548,ls),
(281,806,o),
(378,965,o),
(552,965,cs,{
name = ._.105553420232704;
}),
(664,965,o),
(758,872,o),
(797,777,c),
(797,293,l),
(747,184,o),
(666,106,o),
(552,106,cs,{
name = ._.105553420233264;
}),
(372,106,o),
(281,252,o),
(281,506,cs,{
name = ._.105553420233504;
})
);
}
);
width = 1148;
},
{
guides = (
{
pos = (0,164);
},
{
pos = (0,1606);
},
{
pos = (0,164);
},
{
pos = (0,1606);
}
);
layerId = "557D07FA-4833-462F-859E-332980C518A5";
shapes = (
{
closed = 1;
nodes = (
(135,513,ls,{
name = ._.105553420234944;
}),
(135,185,o),
(278,-21,o),
(527,-21,cs,{
name = ._.105553420235264;
}),
(672,-21,o),
(783,39,o),
(851,155,c),
(862,68,o),
(892,24,o),
(933,-18,c,{
name = ._.105553420235744;
}),
(983,33,l),
(947,67,o),
(935,150,o),
(935,171,cs),
(935,1275,l),
(1083,1275,l),
(1083,1341,l),
(935,1341,l),
(935,1558,l,{
name = ._.105553420236464;
}),
(847,1558,l,{
name = ._.105553420236544;
}),
(847,1341,l),
(539,1341,l,{
name = ._.105553420236704;
}),
(539,1275,l),
(847,1275,l),
(847,904,l),
(783,1005,o),
(668,1082,o),
(525,1082,cs,{
name = ._.105553420237184;
}),
(281,1082,o),
(135,861,o),
(135,597,cs)
);
},
{
closed = 1;
nodes = (
(222,597,ls),
(222,885,o),
(359,1010,o),
(545,1010,cs,{
name = ._.105553420237664;
}),
(682,1010,o),
(820,894,o),
(847,786,c),
(847,258,l),
(789,115,o),
(684,51,o),
(548,51,cs),
(341,51,o),
(222,210,o),
(222,513,cs,{
name = ._.105553420238464;
})
);
}
);
width = 1153;
}
);
unicode = 273;
},
{
glyphname = eth;
lastChange = "2024-05-29 14:59:07 +0000";
layers = (
{
guides = (
{
pos = (0,1813);
}
);
layerId = "4EE6A762-B31F-492D-BAD7-A15389DCB08F";
shapes = (
{
closed = 1;
nodes = (
(1032,1407,l),
(949,1542,l),
(764,1432,l),
(677,1497,o),
(577,1544,o),
(469,1572,c,{
name = ._.105553357404944;
}),
(384.399,1372.227,l),
(431.399,1355.227,o),
(491.898,1327.227,o),
(531.898,1298.227,c),
(345,1184,l),
(430,1048,l),
(647.034,1178,l,{
name = ._.105553357405504;
}),
(698.034,1112,o),
(732,1028,o),
(748,895,c),
(744,890,l),
(685,935,o),
(604,962,o),
(516,962,cs,{
name = ._.105553357406064;
}),
(252,962,o),
(80,767,o),
(80,467,cs,{
name = ._.105553357373440;
}),
(80,191,o),
(281,-21,o),
(565,-21,cs,{
name = ._.105553357373680;
}),
(864,-21,o),
(1091,235,o),
(1091,607,cs),
(1091,670,ls,{
name = ._.105553357374000;
}),
(1091,968,o),
(1020,1163,o),
(880,1317,c)
);
},
{
closed = 1;
nodes = (
(471,222,o),
(391,327,o),
(391,467,cs,{
name = ._.105553357374640;
}),
(391,632,o),
(465,735,o),
(575,735,cs,{
name = ._.105553357374880;
}),
(667,735,o),
(739,701,o),
(779,655,c,{
name = ._.105553357375120;
}),
(779,603,ls),
(779,384,o),
(702,222,o),
(568,222,cs,{
name = ._.105553357374400;
})
);
}
);
width = 1176;
},
{
layerId = "7B7CA763-6202-4B35-9FCB-B97398BB2D53";
shapes = (
{
closed = 1;
nodes = (
(1034,1459,l),
(967,1560,l),
(762,1431,l),
(682,1496,o),
(587,1545,o),
(490,1573,c),
(437,1434,l),
(493,1412,o),
(555,1377,o),
(600,1340,c),
(372,1189,l),
(430,1087,l),
(690,1252,l),
(765,1165,o),
(809,1023,o),
(825,866,c),
(822,862,l),
(754,931,o),
(654,973,o),
(550,973,cs),
(283,973,o),
(106,769,o),
(106,464,cs),
(106,191,o),
(301,-21,o),
(570,-21,cs),
(854,-21,o),
(1045,236,o),
(1045,587,cs),
(1045,686,ls),
(1045,936,o),
(990,1180,o),
(849,1342,c)
);
},
{
closed = 1;
nodes = (
(409,137,o),
(309,292,o),
(309,472,cs),
(309,670,o),
(411,820,o),
(571,820,cs),
(702,820,o),
(797,758,o),
(842,683,c),
(842,565,ls),
(842,315,o),
(742,137,o),
(572,137,cs)
);
}
);
width = 1161;
},
{
layerId = "80A40485-F9FE-43F8-8BB8-E239AA3B9F7E";
shapes = (
{
closed = 1;
nodes = (
(1033,1472,l),
(974,1564,l),
(758,1428,l),
(681,1493,o),
(593,1541,o),
(498,1571,c,{
name = ._.105553357378160;
}),
(455.773,1458,l),
(517.773,1434,o),
(582,1405,o),
(636,1354,c),
(371,1188,l),
(429,1096,l),
(711,1272,l),
(791,1178,o),
(840,1026,o),
(853,855,c),
(851,851,l),
(779,930,o),
(673,977,o),
(562,977,cs,{
name = ._.105553357379280;
}),
(296,977,o),
(116,769,o),
(116,463,cs,{
name = ._.105553357379520;
}),
(116,190,o),
(306,-21,o),
(572,-21,cs,{
name = ._.105553357379760;
}),
(850,-21,o),
(1028,234,o),
(1028,570,cs),
(1028,681,ls,{
name = ._.105553357380080;
}),
(1028,926,o),
(974,1181,o),
(837,1347,c)
);
},
{
closed = 1;
nodes = (
(388,105,o),
(279,278,o),
(279,473,cs,{
name = ._.105553357380560;
}),
(279,684,o),
(393,851,o),
(569,851,cs,{
name = ._.105553357380800;
}),
(715,851,o),
(818,779,o),
(865,693,c,{
name = ._.105553357381040;
}),
(865,550,l),
(865,289,o),
(756,105,o),
(574,105,cs,{
name = ._.105553357377520;
})
);
}
);
width = 1156;
},
{
layerId = "557D07FA-4833-462F-859E-332980C518A5";
shapes = (
{
closed = 1;
nodes = (
(1035,1509,l),
(995,1563,l),
(760,1411,l),
(686,1484,o),
(597,1537,o),
(505,1567,c,{
name = ._.105553357382320;
}),
(486,1504,l),
(565,1477,o),
(639,1430,o),
(699,1371,c),
(393,1179,l),
(429,1124,l),
(746,1319,l),
(832,1211,o),
(888,1041,o),
(896,845,c),
(896,841,l),
(810,935,o),
(688,984,o),
(565,984,cs,{
name = ._.105553357383440;
}),
(301,984,o),
(135,772,o),
(135,461,cs,{
name = ._.105553357383680;
}),
(135,193,o),
(313,-21,o),
(567,-21,cs,{
name = ._.105553357383920;
}),
(860,-21,o),
(989,268,o),
(989,589,cs),
(989,725,ls,{
name = ._.105553357384240;
}),
(989,1020,o),
(916,1224,o),
(806,1359,c)
);
},
{
closed = 1;
nodes = (
(349,49,o),
(223,241,o),
(223,491,cs,{
name = ._.105553357384720;
}),
(223,732,o),
(364,913,o),
(568,913,cs),
(735,913,o),
(848,819,o),
(900,716,c,{
name = ._.105553357385200;
}),
(900,565,ls),
(900,246,o),
(787,49,o),
(567,49,cs)
);
}
);
width = 1135;
}
);
unicode = 240;
},
{
glyphname = e;
kernLeft = _e;
kernRight = _e;
lastChange = "2024-05-30 16:57:28 +0000";
layers = (
{
anchors = (
{
name = top;
pos = (540,1122);
}
);
layerId = "4EE6A762-B31F-492D-BAD7-A15389DCB08F";
shapes = (
{
closed = 1;
nodes = (
(878,295,l),
(777,239,o),
(710,222,o),
(604,222,cs,{
name = ._.105553356225936;
}),
(474,222,o),
(401,335,o),
(395,465,c,{
name = ._.105553356226176;
}),
(974,465,l),
(974,650,ls,{
name = ._.105553356226336;
}),
(974,964,o),
(815,1142,o),
(540,1142,cs,{
name = ._.105553356115552;
}),
(192,1142,o),
(80,853,o),
(80,555,cs),
(80,498,ls,{
name = ._.105553356113312;
}),
(80,194,o),
(268,-21,o),
(564,-21,cs,{
name = ._.105553356112192;
}),
(723,-21,o),
(870,36,o),
(953,106,c)
);
},
{
closed = 1;
nodes = (
(624,898,o),
(670,843,o),
(670,708,cs),
(670,675,l,{
name = ._.105553356127472;
}),
(395,670,l),
(401,816,o),
(446,898,o),
(540,898,cs)
);
}
);
width = 1051;
},
{
anchors = (
{
name = top;
pos = (548,1084);
}
);
layerId = "7B7CA763-6202-4B35-9FCB-B97398BB2D53";
shapes = (
{
closed = 1;
nodes = (
(880,227,l),
(795,167,o),
(705,138,o),
(601,138,cs),
(408,138,o),
(313,297,o),
(311,491,c),
(953,491,l),
(953,627,ls),
(953,914,o),
(825,1108,o),
(548,1108,cs),
(239,1108,o),
(107,833,o),
(107,562,cs),
(107,492,ls),
(107,207,o),
(271,-21,o),
(564,-21,cs),
(707,-21,o),
(844,24,o),
(936,100,c)
);
},
{
closed = 1;
nodes = (
(689,950,o),
(752,837,o),
(752,680,cs),
(752,640,l),
(310,639,l),
(312,793,o),
(396,950,o),
(543,950,cs)
);
}
);
width = 1055;
},
{
anchors = (
{
name = top;
pos = (551,1073);
}
);
layerId = "80A40485-F9FE-43F8-8BB8-E239AA3B9F7E";
shapes = (
{
closed = 1;
nodes = (
(882,202,l),
(804,141,o),
(705.991,109.4,o),
(610,107,cs,{
name = ._.105553356115872;
}),
(385.99,101.4,o),
(281,281,o),
(280,502,c,{
name = ._.105553356116752;
}),
(946,502,l),
(946,619,ls,{
name = ._.105553356118912;
}),
(946,895,o),
(829,1095,o),
(551,1095,cs,{
name = ._.105553356117152;
}),
(257,1095,o),
(117,825,o),
(117,565,cs),
(117,490,ls,{
name = ._.105553356116272;
}),
(117,212,o),
(272,-21,o),
(564,-21,cs,{
name = ._.105553356118112;
}),
(702,-21,o),
(835,19,o),
(930,98,c)
);
},
{
closed = 1;
nodes = (
(713,969,o),
(783,835,o),
(783,669,cs),
(783,624,l,{
name = ._.105553356120992;
}),
(279,624,l,{
name = ._.105553356120112;
}),
(279,782,o),
(377,969,o),
(544,969,c)
);
}
);
width = 1056;
},
{
anchors = (
{
name = top;
pos = (551,1059);
}
);
guides = (
{
pos = (0,1270);
},
{
pos = (0,-126);
},
{
pos = (0,132);
},
{
pos = (162.25,565.703);
},
{
angle = 90;
pos = (2159,0);
},
{
angle = 90;
pos = (-152,0);
}
);
layerId = "557D07FA-4833-462F-859E-332980C518A5";
shapes = (
{
closed = 1;
nodes = (
(887,139,l),
(817,89,o),
(719,54,o),
(621,54,cs),
(346,54,o),
(223,248,o),
(223,524,c,{
name = ._.105553356122112;
}),
(931,524,l),
(931,602,ls,{
name = ._.105553356123072;
}),
(931,858,o),
(846,1082,o),
(551,1082,cs,{
name = ._.105553356124032;
}),
(266,1082,o),
(135,807,o),
(135,572,cs,{
name = ._.105553356124192;
}),
(135,494,ls),
(135,253,o),
(264,-21,o),
(579,-21,cs,{
name = ._.105553356125712;
}),
(724,-21,o),
(848,28,o),
(912,82,c)
);
},
{
closed = 1;
nodes = (
(767,1015,o),
(844,841,o),
(844,646,cs),
(844,592,l,{
name = ._.105553356121632;
}),
(223,592,l,{
name = ._.105553356123152;
}),
(223,805,o),
(344,1015,o),
(551,1015,cs)
);
}
);
width = 1056;
}
);
unicode = 101;
},
{
glyphname = f;
kernLeft = _f;
kernRight = _f;
lastChange = "2024-05-28 21:28:55 +0000";
layers = (
{
guides = (
{
angle = 90;
pos = (1742,0);
},
{
angle = 90;
pos = (702,0);
}
);
layerId = "4EE6A762-B31F-492D-BAD7-A15389DCB08F";
shapes = (
{
closed = 1;
nodes = (
(477,0,l,{
name = ._.105553356125872;
}),
(477,902,l,{
name = ._.105553356125232;
}),
(679,902,l),
(679,1122,l),
(477,1122,l,{
name = ._.105553356114352;
}),
(477,1210,ls,{
name = ._.105553356114592;
}),
(477,1298,o),
(527,1358,o),
(605,1358,cs,{
name = ._.105553356126512;
}),
(642,1358,o),
(665,1354,o),
(696,1348,c),
(721,1560,l),
(660,1573,o),
(614,1581,o),
(566,1581,cs,{
name = ._.105553356124992;
}),
(316,1581,o),
(166,1453,o),
(166,1207,cs,{
name = ._.105553356114272;
}),
(166,1122,l),
(33,1122,l),
(33,902,l),
(166,902,l),
(166,0,l)
);
}
);
width = 701;
},
{
layerId = "7B7CA763-6202-4B35-9FCB-B97398BB2D53";
shapes = (
{
closed = 1;
nodes = (
(396,0,l),
(396,938,l),
(621,938,l),
(621,1087,l),
(396,1087,l),
(396,1230,ls),
(396,1357,o),
(446,1425,o),
(543,1425,cs),
(578,1425,o),
(607,1420,o),
(639,1412,c),
(660,1559,l),
(609,1572,o),
(564,1581,o),
(519,1581,cs),
(313,1581,o),
(194,1457,o),
(194,1229,cs),
(194,1087,l),
(44,1087,l),
(44,938,l),
(194,938,l),
(194,0,l)
);
}
);
width = 636;
},
{
layerId = "80A40485-F9FE-43F8-8BB8-E239AA3B9F7E";
shapes = (
{
closed = 1;
nodes = (
(366,0,l,{
name = ._.105553356125152;
}),
(366,951,l,{
name = ._.105553356120272;
}),
(599,951,l),
(599,1074,l),
(366,1074,l,{
name = ._.105553356118592;
}),
(366,1237,ls,{
name = ._.105553356111872;
}),
(366,1379,o),
(416,1450,o),
(520,1450,cs,{
name = ._.105553356119232;
}),
(554,1450,o),
(586,1444,o),
(618,1436,c),
(638,1558,l),
(590,1572,o),
(545,1581,o),
(501,1581,cs,{
name = ._.105553356115152;
}),
(312,1581,o),
(204,1459,o),
(204,1237,cs,{
name = ._.105553356117072;
}),
(204,1074,l),
(48,1074,l),
(48,951,l),
(204,951,l),
(204,0,l)
);
}
);
width = 612;
},
{
guides = (
{
pos = (0,1581);
},
{
pos = (0,1558);
},
{
angle = 90;
pos = (184,0);
},
{
angle = 90;
pos = (384,0);
}
);
layerId = "557D07FA-4833-462F-859E-332980C518A5";
shapes = (
{
closed = 1;
nodes = (
(307,0,l,{
name = ._.105553356108688;
}),
(307,991,l),
(556,991,l,{
name = ._.105553356109568;
}),
(556,1059,l,{
name = ._.105553356110848;
}),
(307,1059,l),
(307,1270,ls,{
name = ._.105553356108768;
}),
(307,1440,o),
(355,1508,o),
(463,1508,cs),
(498,1508,o),
(529,1502,o),
(576,1488,c),
(592,1553,l),
(553,1571,o),
(501,1581,o),
(455,1581,cs,{
name = ._.105553356110368;
}),
(305,1581,o),
(219,1480,o),
(219,1270,cs,{
name = ._.105553356106128;
}),
(219,1059,l),
(62,1059,l),
(62,991,l),
(219,991,l),
(219,0,l)
);
}
);
width = 568;
}
);
unicode = 102;
},
